<?xml version="1.0" encoding="UTF-8"?>
<svg xmlns="http://www.w3.org/2000/svg" xmlns:xlink="http://www.w3.org/1999/xlink" version="1.2" >
<font id="ITC Lubalin Graph Std Demi Oblique">
<font-face  font-family="ITC Lubalin Graph Std" units-per-em="1000" ascent="719" descent="-281" font-style="italic" font-weight="600" font-stretch="normal" slope="-10" cap-height="719" x-height="520" underline-position="-75" underline-thickness="50" />
<missing-glyph  horiz-adv-x="623" d="M123 0 L623 0 L623 700 L123 700 L123 0 Z M373 395 L203 650 L543 650 L373 395 Z M403 350 L573 605 L573 95 L403 350 Z M203 50 L373 305 L543 50 L203 50 Z M173 605 L343 350 L173 95 L173 605 Z " />
<glyph glyph-name="NULL" d="" />
<glyph glyph-name="CR" unicode="&#xd;" horiz-adv-x="250" d="" />
<glyph glyph-name="space" unicode="&#x20;" horiz-adv-x="300" d="" />
<glyph glyph-name="exclam" unicode="&#x21;" horiz-adv-x="200" d="M188 141 L62 141 L37 0 L163 0 L188 141 Z M289 714 L163 714 L75 214 L201 214 L289 714 Z " />
<glyph glyph-name="quotedbl" unicode="&#x22;" horiz-adv-x="400" d="M404 427 L482 714 L356 714 L331 427 L404 427 Z M210 427 L288 714 L162 714 L137 427 L210 427 Z " />
<glyph glyph-name="numbersign" unicode="&#x23;" horiz-adv-x="580" d="M446 239 L567 239 L580 314 L471 314 L503 416 L627 416 L641 491 L528 491 L599 714 L523 714 L452 491 L349 491 L419 714 L344 714 L273 491 L143 491 L129 416 L248 416 L215 314 L82 314 L69 239 L190 239 L114 0 L190 0 L266 239 L369 239 L293 0 L369 0 L446 239 Z M426 416 L393 314 L291 314 L323 416 L426 416 Z " />
<glyph glyph-name="dollar" unicode="&#x24;" horiz-adv-x="580" d="M100 212 L63 0 L164 0 L171 41 C186 16 196 11 223 1 L231 0 L210 -120 L314 -120 L332 -17 C447 1 543 88 563 202 C575 270 554 328 506 367 C468 398 410 415 361 428 C312 441 268 462 279 523 C289 576 338 609 388 609 C442 609 475 571 468 518 L579 518 L614 714 L520 714 L512 671 C501 692 485 705 460 709 L480 825 L376 825 L358 720 C256 707 164 621 146 520 C135 457 153 396 197 360 C233 330 288 314 334 300 C385 284 437 261 425 194 C415 136 363 98 307 98 C244 98 205 149 219 212 L100 212 Z " />
<glyph glyph-name="percent" unicode="&#x25;" horiz-adv-x="860" d="M649 -11 C747 -11 840 70 858 168 C875 266 808 344 710 344 C614 344 520 266 503 169 C485 70 549 -11 649 -11 L649 -11 Z M668 93 C626 93 599 127 607 168 C614 209 653 241 693 241 C733 241 761 207 753 167 C746 127 708 93 668 93 L668 93 Z M276 374 C375 374 467 454 484 552 C502 650 435 729 337 729 C242 729 147 650 130 554 C112 455 176 374 276 374 L276 374 Z M294 478 C252 478 226 511 234 553 C241 593 279 625 319 625 C360 625 387 592 380 551 C373 511 334 478 294 478 L294 478 Z M318 0 L765 714 L667 714 L219 0 L318 0 Z " />
<glyph glyph-name="ampersand" unicode="&#x26;" horiz-adv-x="720" d="M688 73 L588 196 L672 322 L743 322 L762 433 L614 433 L518 281 L422 394 C491 430 553 489 567 565 C584 663 513 733 417 733 C316 733 220 659 202 556 C190 490 210 449 246 403 L252 396 C166 348 87 291 70 193 C49 71 144 -14 261 -14 C354 -14 429 28 496 102 L589 -10 L688 73 Z M425 187 C389 138 350 102 289 102 C234 102 193 145 203 202 C213 261 264 294 315 318 L425 187 Z M356 470 C333 494 315 519 321 558 C328 597 360 628 400 628 C439 628 460 595 453 557 C446 515 400 483 363 462 L356 470 Z " />
<glyph glyph-name="quotesingle" unicode="&#x27;" horiz-adv-x="200" d="M210 427 L288 714 L162 714 L137 427 L210 427 Z " />
<glyph glyph-name="parenleft" unicode="&#x28;" horiz-adv-x="360" d="M335 19 C247 72 206 182 225 292 C245 405 325 509 432 565 L458 714 C269 655 120 477 87 291 C54 102 142 -69 309 -133 L335 19 Z " />
<glyph glyph-name="parenright" unicode="&#x29;" horiz-adv-x="360" d="M136 565 C223 508 265 405 245 292 C226 182 147 72 39 19 L13 -133 C202 -70 350 102 383 291 C416 477 329 655 162 714 L136 565 Z " />
<glyph glyph-name="asterisk" unicode="&#x2a;" horiz-adv-x="360" d="M433 608 L340 603 L404 680 L353 714 L291 628 L254 714 L193 678 L234 600 L140 603 L129 539 L228 545 L166 467 L216 436 L275 521 L309 436 L369 472 L331 547 L422 545 L433 608 Z " />
<glyph glyph-name="plus" unicode="&#x2b;" horiz-adv-x="660" d="M147 404 L131 312 L339 312 L302 104 L394 104 L431 312 L639 312 L655 404 L447 404 L484 612 L392 612 L355 404 L147 404 Z " />
<glyph glyph-name="comma" unicode="&#x2c;" horiz-adv-x="300" d="M141 0 L139 -13 C133 -44 127 -76 87 -76 L74 -76 L62 -144 L81 -144 C115 -144 140 -142 169 -113 C197 -85 203 -55 210 -19 L238 141 L112 141 L87 0 L141 0 Z " />
<glyph glyph-name="hyphen" unicode="&#x2d;" horiz-adv-x="320" d="M324 202 L345 323 L89 323 L68 202 L324 202 Z " />
<glyph glyph-name="period" unicode="&#x2e;" horiz-adv-x="300" d="M238 141 L112 141 L87 0 L213 0 L238 141 Z " />
<glyph glyph-name="slash" unicode="&#x2f;" horiz-adv-x="580" d="M90 -195 L698 714 L609 714 L2 -195 L90 -195 Z " />
<glyph glyph-name="zero" unicode="0" horiz-adv-x="580" d="M629 460 C644 543 639 602 587 660 C546 706 486 733 418 733 C346 733 272 702 213 650 C148 593 127 537 113 460 L78 260 C63 177 67 118 119 60 C159 14 220 -14 287 -14 C360 -14 433 18 493 70 C558 127 580 183 594 260 L629 460 Z M247 460 C253 494 259 525 283 555 C311 592 356 611 398 611 C437 611 473 595 489 562 C506 530 502 497 495 460 L459 258 C453 224 447 193 424 163 C395 126 351 108 309 108 C269 108 234 123 217 156 C200 188 205 221 211 258 L247 460 Z " />
<glyph glyph-name="one" unicode="1" horiz-adv-x="580" d="M497 714 L260 714 L240 600 L345 600 L259 114 L175 114 L155 0 L455 0 L475 114 L391 114 L497 714 Z " />
<glyph glyph-name="two" unicode="2" horiz-adv-x="580" d="M440 190 L426 114 L243 114 L439 269 C523 335 597 394 616 499 C639 629 554 733 425 733 C282 733 160 624 136 481 L265 481 C273 546 328 601 395 601 C453 601 495 558 485 498 C475 441 420 400 375 363 L74 114 L54 0 L523 0 L557 190 L440 190 Z " />
<glyph glyph-name="three" unicode="3" horiz-adv-x="580" d="M78 206 C61 67 166 -14 296 -14 C363 -14 423 6 480 53 C533 95 572 153 583 215 C597 295 564 372 493 399 C551 426 592 488 602 546 C623 661 535 733 427 733 C317 733 202 656 180 539 L303 539 C314 588 357 622 405 622 C457 622 488 586 479 533 C467 466 411 441 352 441 L324 441 L305 337 L312 338 L339 338 C409 338 457 293 444 219 C433 156 372 105 309 105 C250 105 212 149 213 206 L78 206 Z " />
<glyph glyph-name="four" unicode="4" horiz-adv-x="580" d="M630 294 L523 294 L597 714 L444 714 L62 294 L44 190 L373 190 L359 114 L276 114 L256 0 L554 0 L574 114 L491 114 L505 190 L612 190 L630 294 Z M391 294 L207 294 L437 553 L391 294 Z " />
<glyph glyph-name="five" unicode="5" horiz-adv-x="580" d="M62 191 C66 65 156 -14 285 -14 C432 -14 576 90 603 242 C626 374 547 487 412 487 C366 487 322 475 280 449 L335 600 L610 600 L630 714 L250 714 L119 332 L225 303 C255 347 303 373 353 373 C426 373 478 318 465 242 C451 167 382 109 307 109 C251 109 213 140 202 191 L62 191 Z " />
<glyph glyph-name="six" unicode="6" horiz-adv-x="580" d="M411 714 L169 432 C122 377 87 324 75 256 C63 186 77 113 119 62 C158 17 225 -14 291 -14 C440 -14 575 103 601 250 C623 375 549 493 418 493 C393 493 375 489 352 477 L560 714 L411 714 Z M314 115 C239 115 192 176 205 249 C218 323 289 380 362 380 C437 380 484 319 471 245 C459 173 386 115 314 115 L314 115 Z " />
<glyph glyph-name="seven" unicode="7" horiz-adv-x="580" d="M183 714 L143 485 L272 485 L292 600 L500 600 L118 0 L265 0 L637 599 L657 714 L183 714 Z " />
<glyph glyph-name="eight" unicode="8" horiz-adv-x="580" d="M484 398 C543 431 580 483 591 545 C610 655 526 733 422 733 C308 733 192 656 170 534 C159 473 182 416 234 391 C155 362 92 287 78 208 C53 69 157 -14 286 -14 C416 -14 553 78 577 216 C591 295 556 373 484 398 L484 398 Z M307 102 C243 102 199 151 210 216 C221 279 280 330 343 330 C406 330 449 279 438 216 C428 156 369 102 307 102 L307 102 Z M363 438 C311 438 279 479 288 530 C297 580 346 620 396 620 C445 620 478 577 469 528 C460 479 413 438 363 438 L363 438 Z " />
<glyph glyph-name="nine" unicode="9" horiz-adv-x="580" d="M311 0 L553 288 C602 347 630 392 643 464 C656 538 641 608 595 660 C554 705 491 733 424 733 C282 733 136 613 111 471 C88 341 163 220 300 220 C323 220 344 227 366 237 L146 0 L311 0 Z M354 335 C278 335 230 396 243 471 C256 543 328 602 401 602 C473 602 525 543 512 471 C499 396 430 335 354 335 L354 335 Z " />
<glyph glyph-name="colon" unicode="&#x3a;" horiz-adv-x="300" d="M238 141 L112 141 L87 0 L213 0 L238 141 Z M304 514 L178 514 L153 373 L279 373 L304 514 Z " />
<glyph glyph-name="semicolon" unicode="&#x3b;" horiz-adv-x="300" d="M238 141 L112 141 L87 0 L141 0 L139 -13 C133 -44 127 -76 87 -76 L74 -76 L62 -144 L81 -144 C115 -144 140 -142 169 -113 C197 -85 203 -55 210 -19 L238 141 Z M304 514 L178 514 L153 373 L279 373 L304 514 Z " />
<glyph glyph-name="less" unicode="&#x3c;" horiz-adv-x="660" d="M623 158 L208 357 L694 559 L710 651 L126 402 L110 314 L607 67 L623 158 Z " />
<glyph glyph-name="equal" unicode="&#x3d;" horiz-adv-x="660" d="M161 482 L145 389 L653 389 L669 482 L161 482 Z M133 326 L117 233 L625 233 L641 326 L133 326 Z " />
<glyph glyph-name="greater" unicode="&#x3e;" horiz-adv-x="660" d="M83 158 L67 67 L650 314 L666 402 L170 651 L154 559 L568 357 L83 158 Z " />
<glyph glyph-name="question" unicode="&#x3f;" horiz-adv-x="540" d="M363 141 L237 141 L212 0 L338 0 L363 141 Z M373 200 C419 340 569 333 598 499 C620 626 531 733 405 733 C268 733 144 623 122 488 L251 488 C263 552 315 603 381 603 C438 603 477 553 466 496 C458 446 420 419 380 388 C313 334 262 285 247 200 L373 200 Z " />
<glyph glyph-name="at" unicode="&#x40;" horiz-adv-x="880" d="M761 150 C674 76 585 44 481 44 C299 44 176 170 209 357 C224 445 273 523 345 583 C420 646 497 674 586 674 C739 674 845 580 817 420 C808 367 785 315 743 273 C720 249 674 217 641 217 C621 217 613 227 617 247 C619 261 627 278 633 291 L750 531 L678 531 L661 500 C652 538 616 562 574 562 C456 562 335 436 315 324 C300 240 337 164 426 164 C475 164 516 186 551 223 C550 181 567 160 611 160 C675 160 746 203 792 254 C838 305 864 366 875 429 C907 612 774 733 598 733 C390 733 181 561 144 352 C126 252 154 148 217 83 C278 19 378 -14 474 -14 C587 -14 684 21 775 105 L761 150 Z M451 233 C402 233 385 275 394 321 C406 394 479 495 562 495 C604 495 622 466 615 426 C610 397 593 359 579 332 C552 283 510 233 451 233 L451 233 Z " />
<glyph glyph-name="A" unicode="A" horiz-adv-x="780" d="M476 0 L777 0 L797 114 L721 114 L577 714 L338 714 L318 600 L397 600 L103 114 L27 114 L7 0 L298 0 L316 100 L239 100 L299 207 L550 207 L573 100 L494 100 L476 0 Z M534 312 L352 312 L486 557 L487 557 L534 312 Z " />
<glyph glyph-name="B" unicode="B" horiz-adv-x="600" d="M22 0 L354 0 C415 0 471 6 526 48 C576 85 610 142 620 199 C635 284 602 351 529 383 C593 411 637 470 648 535 C658 592 646 642 606 677 C569 709 518 714 465 714 L148 714 L128 600 L205 600 L119 114 L42 114 L22 0 Z M342 600 L412 600 C441 600 473 602 495 586 C518 570 525 544 520 515 C515 488 501 463 476 447 C444 427 414 429 381 429 L312 429 L342 600 Z M291 317 L367 317 C402 317 437 317 462 296 C486 276 493 247 487 215 C482 185 462 154 433 137 C402 118 363 119 331 119 L256 119 L291 317 Z " />
<glyph glyph-name="C" unicode="C" horiz-adv-x="760" d="M804 489 L844 717 L732 717 L720 645 C672 705 597 733 514 733 C311 733 119 563 84 363 C66 263 87 167 145 96 C201 28 292 -14 388 -14 C541 -14 706 89 778 235 L631 235 C575 166 493 127 411 127 C282 127 198 234 221 362 C244 496 361 598 496 598 C573 598 646 557 674 489 L804 489 Z " />
<glyph glyph-name="D" unicode="D" horiz-adv-x="740" d="M22 0 L359 0 C464 0 553 26 638 106 C711 174 758 264 774 355 C791 454 776 550 719 620 C660 693 587 714 487 714 L148 714 L128 600 L206 600 L120 114 L42 114 L22 0 Z M341 593 L450 593 C516 593 567 586 608 536 C643 489 649 419 638 355 C627 297 597 231 550 186 C493 132 433 123 365 123 L258 123 L341 593 Z " />
<glyph glyph-name="E" unicode="E" horiz-adv-x="580" d="M22 0 L551 0 L589 216 L453 216 L436 119 L257 119 L290 308 L498 308 L517 414 L309 414 L340 592 L519 592 L503 499 L639 499 L677 714 L148 714 L128 600 L206 600 L120 114 L42 114 L22 0 Z " />
<glyph glyph-name="F" unicode="F" horiz-adv-x="580" d="M120 114 L42 114 L22 0 L314 0 L334 114 L256 114 L290 304 L497 304 L515 409 L308 409 L340 592 L523 592 L507 499 L643 499 L681 714 L148 714 L128 600 L206 600 L120 114 Z " />
<glyph glyph-name="G" unicode="G" horiz-adv-x="780" d="M818 377 L403 377 L383 262 L647 262 C597 174 508 122 413 122 C281 122 198 230 221 361 C244 493 364 597 497 597 C536 597 570 589 598 573 C626 558 649 535 667 504 L815 504 L852 714 L740 714 L728 648 C673 704 604 733 518 733 C419 733 311 689 230 617 C150 546 100 456 83 359 C47 153 183 -14 389 -14 C487 -14 589 28 658 110 L639 0 L752 0 L818 377 Z " />
<glyph glyph-name="H" unicode="H" horiz-adv-x="740" d="M586 428 L311 428 L342 600 L419 600 L439 714 L148 714 L128 600 L206 600 L120 114 L42 114 L22 0 L313 0 L333 114 L256 114 L287 292 L562 292 L531 114 L454 114 L434 0 L724 0 L744 114 L667 114 L753 600 L830 600 L850 714 L560 714 L540 600 L617 600 L586 428 Z " />
<glyph glyph-name="I" unicode="I" horiz-adv-x="340" d="M342 600 L419 600 L439 714 L148 714 L128 600 L206 600 L120 114 L42 114 L22 0 L313 0 L333 114 L256 114 L342 600 Z " />
<glyph glyph-name="J" unicode="J" horiz-adv-x="540" d="M47 201 C20 71 103 -14 231 -14 C293 -14 362 12 410 58 C464 110 477 160 488 224 L555 600 L632 600 L652 714 L361 714 L341 600 L419 600 L355 241 C351 213 344 176 326 151 C306 126 282 112 252 112 C202 112 183 157 189 201 L47 201 Z " />
<glyph glyph-name="K" unicode="K" horiz-adv-x="720" d="M722 114 L659 114 L437 366 L732 600 L793 600 L813 714 L519 714 L499 600 L563 600 L305 391 L342 600 L419 600 L439 714 L148 714 L128 600 L206 600 L120 114 L42 114 L22 0 L313 0 L333 114 L256 114 L295 335 L488 114 L418 114 L398 0 L702 0 L722 114 Z " />
<glyph glyph-name="L" unicode="L" horiz-adv-x="560" d="M22 0 L543 0 L581 216 L445 216 L429 122 L258 122 L342 600 L419 600 L439 714 L148 714 L128 600 L206 600 L120 114 L42 114 L22 0 Z " />
<glyph glyph-name="M" unicode="M" horiz-adv-x="960" d="M970 600 L1048 600 L1068 714 L800 714 L517 210 L412 714 L144 714 L124 600 L202 600 L116 114 L38 114 L18 0 L315 0 L335 114 L252 114 L325 529 L435 0 L531 0 L821 529 L748 114 L671 114 L651 0 L942 0 L962 114 L884 114 L970 600 Z " />
<glyph glyph-name="N" unicode="N" horiz-adv-x="800" d="M804 600 L881 600 L901 714 L610 714 L590 600 L668 600 L604 236 L348 714 L148 714 L128 600 L205 600 L119 114 L42 114 L22 0 L313 0 L333 114 L255 114 L318 470 L571 0 L698 0 L804 600 Z " />
<glyph glyph-name="O" unicode="O" horiz-adv-x="780" d="M391 -15 C600 -15 796 154 833 363 C869 566 729 732 526 732 C318 732 120 567 83 357 C47 151 185 -15 391 -15 L391 -15 Z M415 121 C283 121 200 229 224 361 C247 492 371 596 501 596 C629 596 715 490 693 362 C670 230 548 121 415 121 L415 121 Z " />
<glyph glyph-name="P" unicode="P" horiz-adv-x="600" d="M149 714 L129 600 L206 600 L120 114 L43 114 L23 0 L314 0 L334 114 L256 114 L280 247 L378 247 C450 247 510 260 571 313 C624 357 659 418 670 481 C683 555 667 623 615 667 C568 706 497 714 433 714 L149 714 Z M301 370 L340 590 L415 590 C448 590 478 589 503 568 C528 549 539 516 533 481 C527 448 508 416 478 394 C447 371 416 370 382 370 L301 370 Z " />
<glyph glyph-name="Q" unicode="Q" horiz-adv-x="860" d="M792 162 L780 96 C750 98 725 111 704 128 C771 191 815 277 830 361 C866 568 726 733 519 733 C316 733 120 566 84 363 C47 154 180 -14 390 -14 C467 -14 538 8 610 50 C665 0 737 -22 817 -22 L860 -19 L892 162 L792 162 Z M227 382 C237 434 272 487 315 525 C366 571 431 597 495 597 C629 597 712 489 689 356 C680 304 655 259 615 220 C552 305 472 369 353 369 C311 369 266 361 224 345 L227 382 Z M417 122 C333 122 261 163 232 237 C261 252 295 259 326 259 C415 259 472 210 520 149 C487 130 452 122 417 122 L417 122 Z " />
<glyph glyph-name="R" unicode="R" horiz-adv-x="640" d="M119 114 L42 114 L22 0 L296 0 L316 114 L255 114 L292 321 L461 0 L628 0 L648 114 L567 114 L481 256 C591 265 678 368 696 471 C709 544 692 611 644 659 C597 707 537 714 467 714 L148 714 L128 600 L205 600 L119 114 Z M294 334 L339 592 L433 592 C471 592 504 592 530 567 C557 543 566 504 559 466 C552 426 528 388 492 363 C451 336 410 334 368 334 L294 334 Z " />
<glyph glyph-name="S" unicode="S" horiz-adv-x="520" d="M62 212 L25 0 L133 0 L141 47 C168 5 213 -14 268 -14 C398 -14 510 81 533 210 C544 270 528 323 488 360 C449 395 399 410 347 425 C295 441 235 456 248 526 C258 582 307 615 360 615 C413 615 445 575 437 522 L559 522 L593 714 L489 714 L482 674 C459 713 414 729 365 729 C250 729 133 641 112 523 C101 459 118 405 163 367 C201 334 243 321 292 306 C344 290 408 272 395 201 C385 140 332 103 273 103 C240 103 216 116 201 135 C186 155 181 183 186 212 L62 212 Z " />
<glyph glyph-name="T" unicode="T" horiz-adv-x="600" d="M474 593 L579 593 L560 489 L668 489 L708 714 L146 714 L106 489 L214 489 L233 593 L338 593 L253 114 L175 114 L155 0 L447 0 L467 114 L389 114 L474 593 Z " />
<glyph glyph-name="U" unicode="U" horiz-adv-x="700" d="M534 714 L514 600 L579 600 L520 264 C513 227 504 188 475 157 C447 128 411 114 375 114 C336 114 302 131 286 164 C271 194 277 230 283 264 L342 600 L407 600 L427 714 L149 714 L129 600 L206 600 L144 250 C130 172 132 109 180 52 C222 2 284 -14 353 -14 C424 -14 494 5 554 58 C617 113 639 172 652 246 L715 600 L792 600 L812 714 L534 714 Z " />
<glyph glyph-name="V" unicode="V" horiz-adv-x="740" d="M762 600 L838 600 L858 714 L577 714 L557 600 L626 600 L402 188 L334 600 L402 600 L422 714 L133 714 L113 600 L190 600 L289 0 L438 0 L762 600 Z " />
<glyph glyph-name="W" unicode="W" horiz-adv-x="1020" d="M1034 600 L1113 600 L1133 714 L843 714 L823 600 L903 600 L741 229 L690 714 L575 714 L360 225 L325 600 L403 600 L423 714 L133 714 L113 600 L184 600 L249 0 L376 0 L591 471 L640 0 L769 0 L1034 600 Z " />
<glyph glyph-name="X" unicode="X" horiz-adv-x="740" d="M741 114 L668 114 L514 362 L748 600 L820 600 L840 714 L545 714 L526 609 L592 609 L451 457 L362 609 L428 609 L447 714 L153 714 L133 600 L206 600 L352 362 L109 114 L39 114 L19 0 L312 0 L331 105 L260 105 L417 268 L517 105 L447 105 L428 0 L721 0 L741 114 Z " />
<glyph glyph-name="Y" unicode="Y" horiz-adv-x="680" d="M448 249 L698 600 L769 600 L789 714 L514 714 L494 600 L562 600 L401 364 L323 600 L389 600 L409 714 L133 714 L113 600 L185 600 L312 249 L288 114 L211 114 L191 0 L482 0 L502 114 L424 114 L448 249 Z " />
<glyph glyph-name="Z" unicode="Z" horiz-adv-x="560" d="M577 217 L452 217 L435 119 L203 119 L632 611 L650 714 L163 714 L125 497 L246 497 L263 595 L465 595 L39 107 L20 0 L539 0 L577 217 Z " />
<glyph glyph-name="bracketleft" unicode="&#x5b;" horiz-adv-x="380" d="M337 -14 L176 -14 L284 599 L445 599 L465 714 L167 714 L18 -129 L316 -129 L337 -14 Z " />
<glyph glyph-name="backslash" unicode="&#x5c;" horiz-adv-x="620" d="M413 0 L513 0 L335 714 L234 714 L413 0 Z " />
<glyph glyph-name="bracketright" unicode="&#x5d;" horiz-adv-x="380" d="M39 -14 L18 -129 L316 -129 L465 714 L167 714 L147 599 L308 599 L200 -14 L39 -14 Z " />
<glyph glyph-name="asciicircum" unicode="&#x5e;" horiz-adv-x="660" d="M160 174 L437 617 L562 174 L653 174 L499 714 L411 714 L69 174 L160 174 Z " />
<glyph glyph-name="underscore" unicode="&#x5f;" horiz-adv-x="500" d="M-13 -75 L-22 -125 L478 -125 L487 -75 L-13 -75 Z " />
<glyph glyph-name="grave" unicode="&#x60;" horiz-adv-x="460" d="M509 689 L267 833 L199 725 L453 600 L509 689 Z " />
<glyph glyph-name="a" unicode="a" horiz-adv-x="660" d="M458 0 L649 0 L669 114 L602 114 L656 420 L723 420 L743 534 L552 534 L539 458 C512 516 458 548 389 548 C233 548 86 419 59 264 C32 113 131 -14 284 -14 C354 -14 421 13 471 72 L458 0 Z M316 105 C230 105 169 177 185 264 C200 354 284 429 375 429 C463 429 523 358 508 270 C492 179 408 105 316 105 L316 105 Z " />
<glyph glyph-name="b" unicode="b" horiz-adv-x="660" d="M334 714 L143 714 L123 600 L192 600 L106 114 L37 114 L17 0 L208 0 L222 80 C253 22 315 -8 386 -8 C456 -8 534 27 590 79 C646 130 683 198 695 267 C722 418 620 542 469 542 C401 542 336 513 289 457 L334 714 Z M441 431 C530 431 590 358 574 269 C559 182 477 105 387 105 C295 105 234 177 251 270 C266 359 352 431 441 431 L441 431 Z " />
<glyph glyph-name="c" unicode="c" horiz-adv-x="580" d="M455 180 C423 133 366 106 314 106 C225 106 165 176 181 267 C197 356 277 429 368 429 C395 429 419 422 440 409 C460 396 477 378 488 356 L602 356 L633 534 L528 534 L519 483 C487 526 438 550 378 550 C226 550 85 415 59 267 C32 111 137 -14 292 -14 C409 -14 538 67 591 180 L455 180 Z " />
<glyph glyph-name="d" unicode="d" horiz-adv-x="660" d="M459 0 L650 0 L670 114 L601 114 L707 714 L515 714 L495 600 L565 600 L539 456 C507 511 447 543 379 543 C228 543 85 416 59 267 C33 119 134 -8 283 -8 C354 -8 423 20 473 80 L459 0 Z M318 104 C229 104 170 177 186 265 C202 356 287 429 378 429 C465 429 525 357 509 269 C494 179 409 104 318 104 L318 104 Z " />
<glyph glyph-name="e" unicode="e" horiz-adv-x="580" d="M447 157 C409 113 359 93 306 93 C230 93 172 147 169 221 L601 221 L613 264 C626 340 616 408 573 464 C530 517 462 550 388 550 C229 550 88 423 60 265 C32 108 136 -14 292 -14 C403 -14 514 55 574 157 L447 157 Z M185 315 C212 385 291 441 363 441 C442 441 501 392 509 315 L185 315 Z " />
<glyph glyph-name="f" unicode="f" horiz-adv-x="320" d="M282 420 L352 420 L372 534 L302 534 C309 591 341 625 403 624 L422 733 C288 733 203 668 180 534 L111 534 L91 420 L160 420 L106 114 L37 114 L17 0 L278 0 L298 114 L228 114 L282 420 Z " />
<glyph glyph-name="g" unicode="g" horiz-adv-x="660" d="M34 -46 C41 -162 148 -217 259 -217 C338 -217 415 -192 482 -136 C554 -75 571 -11 586 71 L647 420 L716 420 L736 534 L555 534 L541 456 C512 518 451 543 379 543 C231 543 85 415 59 268 C33 119 129 -8 281 -8 C353 -8 418 19 467 81 L464 61 C455 11 446 -23 405 -63 C372 -94 325 -112 283 -112 C236 -112 188 -91 175 -46 L34 -46 Z M184 269 C200 358 286 431 375 431 C464 431 525 359 510 270 C494 180 411 105 319 105 C228 105 168 178 184 269 L184 269 Z " />
<glyph glyph-name="h" unicode="h" horiz-adv-x="640" d="M334 714 L143 714 L123 600 L192 600 L106 114 L37 114 L17 0 L277 0 L297 114 L228 114 L257 276 C264 316 269 350 302 383 C328 411 365 426 401 426 C440 426 473 411 489 377 C504 343 495 304 488 265 L461 114 L392 114 L372 0 L632 0 L652 114 L583 114 L616 298 C627 362 632 414 602 468 C574 517 526 546 464 546 C395 546 333 514 288 454 L334 714 Z " />
<glyph glyph-name="i" unicode="i" horiz-adv-x="300" d="M305 534 L114 534 L94 420 L163 420 L109 114 L39 114 L19 0 L280 0 L300 114 L231 114 L305 534 Z M337 714 L215 714 L192 585 L314 585 L337 714 Z " />
<glyph glyph-name="j" unicode="j" horiz-adv-x="280" d="M314 534 L123 534 L103 420 L172 420 L108 58 C96 -11 88 -83 -4 -88 L-23 -201 C116 -193 197 -133 221 8 L314 534 Z M346 714 L224 714 L201 585 L323 585 L346 714 Z " />
<glyph glyph-name="k" unicode="k" horiz-adv-x="600" d="M261 295 L335 714 L143 714 L123 600 L193 600 L107 114 L37 114 L17 0 L257 0 L277 114 L229 114 L254 254 L356 114 L311 114 L291 0 L582 0 L602 114 L518 114 L391 278 L563 420 L628 420 L648 534 L385 534 L367 432 L422 432 L261 295 Z " />
<glyph glyph-name="l" unicode="l" horiz-adv-x="300" d="M339 714 L148 714 L128 600 L197 600 L111 114 L37 114 L17 0 L282 0 L302 114 L233 114 L339 714 Z " />
<glyph glyph-name="m" unicode="m" horiz-adv-x="980" d="M109 114 L40 114 L20 0 L280 0 L300 114 L231 114 L260 279 C267 320 276 355 308 388 C335 415 366 427 400 427 C436 427 468 410 480 378 C491 350 484 310 478 278 L449 114 L380 114 L360 0 L620 0 L640 114 L571 114 L601 286 C608 325 614 355 644 387 C670 413 708 427 741 427 C775 427 806 412 821 383 C831 352 826 321 819 286 L789 114 L720 114 L700 0 L960 0 L980 114 L911 114 L947 316 C957 377 967 430 933 479 C902 523 849 547 791 547 C717 547 638 503 597 435 C579 502 524 547 450 547 C382 547 324 510 280 454 L294 534 L114 534 L94 420 L163 420 L109 114 Z " />
<glyph glyph-name="n" unicode="n" horiz-adv-x="640" d="M106 114 L37 114 L17 0 L277 0 L297 114 L228 114 L255 269 C262 305 270 351 298 381 C325 411 366 426 403 426 C439 426 473 412 490 383 C505 354 499 320 494 287 L463 114 L394 114 L374 0 L634 0 L654 114 L585 114 L622 323 C633 384 640 431 605 480 C573 522 520 546 462 546 C396 546 331 517 289 458 L302 534 L111 534 L91 420 L160 420 L106 114 Z " />
<glyph glyph-name="o" unicode="o" horiz-adv-x="580" d="M289 -14 C446 -14 592 114 620 270 C646 422 545 550 391 550 C236 550 87 425 59 269 C32 115 133 -14 289 -14 L289 -14 Z M310 106 C219 106 164 182 180 270 C195 359 282 430 370 430 C459 430 514 354 499 267 C483 178 399 106 310 106 L310 106 Z " />
<glyph glyph-name="p" unicode="p" horiz-adv-x="660" d="M71 -81 L3 -81 L-17 -195 L243 -195 L263 -81 L194 -81 L221 75 C254 19 318 -8 388 -8 C536 -8 676 119 702 265 C728 416 629 540 478 540 C406 540 337 511 287 450 L302 534 L111 534 L91 420 L159 420 L71 -81 Z M387 105 C298 105 238 177 254 266 C270 358 356 428 446 428 C535 428 591 352 576 265 C560 177 475 105 387 105 L387 105 Z " />
<glyph glyph-name="q" unicode="q" horiz-adv-x="660" d="M445 -81 L376 -81 L356 -195 L616 -195 L636 -81 L568 -81 L656 420 L724 420 L744 534 L553 534 L538 450 C510 511 452 540 380 540 C229 540 85 416 59 265 C33 119 129 -8 277 -8 C347 -8 419 19 472 75 L445 -81 Z M318 105 C231 105 170 177 186 265 C201 352 282 428 371 428 C462 428 523 358 507 266 C491 177 408 105 318 105 L318 105 Z " />
<glyph glyph-name="r" unicode="r" horiz-adv-x="380" d="M293 534 L111 534 L91 420 L160 420 L106 114 L37 114 L17 0 L277 0 L297 114 L228 114 L252 249 C261 299 274 342 320 376 C355 403 393 413 432 415 L454 540 C385 537 319 506 277 443 L293 534 Z " />
<glyph glyph-name="s" unicode="s" horiz-adv-x="460" d="M52 155 L25 0 L118 0 L126 44 C154 3 200 -14 254 -14 C354 -14 455 46 474 154 C495 274 398 304 305 326 C268 335 221 346 230 396 C236 433 275 452 308 452 C346 452 370 427 366 389 L484 389 L509 534 L419 534 L413 497 C389 535 348 545 300 545 C205 545 109 486 91 384 C70 267 167 238 256 214 C295 203 343 194 334 141 C327 101 286 75 249 75 C224 75 205 83 193 97 C181 111 175 131 177 155 L52 155 Z " />
<glyph glyph-name="t" unicode="t" horiz-adv-x="340" d="M292 420 L383 420 L403 534 L312 534 L344 714 L222 714 L190 534 L106 534 L86 420 L170 420 L96 0 L315 0 L335 114 L238 114 L292 420 Z " />
<glyph glyph-name="u" unicode="u" horiz-adv-x="640" d="M644 534 L453 534 L433 420 L502 420 L472 248 C465 211 459 175 430 143 C404 116 366 99 332 99 C296 99 265 114 251 145 C236 174 241 211 247 245 L298 534 L107 534 L87 420 L156 420 L119 209 C109 151 108 100 139 54 C168 10 218 -14 275 -14 C337 -14 405 14 450 66 L438 0 L619 0 L639 114 L570 114 L644 534 Z " />
<glyph glyph-name="v" unicode="v" horiz-adv-x="600" d="M606 420 L669 420 L689 534 L443 534 L423 420 L480 420 L327 150 L326 150 L276 420 L330 420 L350 534 L101 534 L81 420 L146 420 L236 0 L364 0 L606 420 Z " />
<glyph glyph-name="w" unicode="w" horiz-adv-x="880" d="M866 420 L937 420 L957 534 L705 534 L685 420 L746 420 L620 169 L619 169 L576 514 L476 514 L303 169 L302 169 L269 420 L328 420 L348 534 L101 534 L81 420 L148 420 L202 0 L316 0 L486 314 L528 0 L646 0 L866 420 Z " />
<glyph glyph-name="x" unicode="x" horiz-adv-x="620" d="M599 420 L659 420 L679 534 L436 534 L420 440 L465 440 L367 347 L302 440 L347 440 L363 534 L117 534 L97 420 L157 420 L269 270 L100 114 L37 114 L17 0 L269 0 L287 100 L245 100 L340 195 L402 100 L360 100 L342 0 L594 0 L614 114 L552 114 L437 270 L599 420 Z " />
<glyph glyph-name="y" unicode="y" horiz-adv-x="600" d="M607 420 L674 420 L694 534 L445 534 L425 420 L477 420 L330 159 L281 420 L333 420 L353 534 L101 534 L81 420 L151 420 L240 7 L189 -81 L122 -81 L102 -195 L362 -195 L382 -81 L312 -81 L607 420 Z " />
<glyph glyph-name="z" unicode="z" horiz-adv-x="460" d="M118 534 L87 357 L194 357 L205 420 L357 420 L29 98 L12 0 L448 0 L479 173 L372 173 L361 114 L197 114 L509 424 L528 534 L118 534 Z " />
<glyph glyph-name="braceleft" unicode="&#x7b;" horiz-adv-x="320" d="M245 169 C257 237 249 278 180 295 C259 311 278 359 290 428 L321 601 C332 661 357 696 419 714 C370 714 309 717 265 680 C231 651 222 604 215 566 L186 402 C180 369 176 340 143 317 C126 306 107 298 88 295 C110 289 128 278 140 261 C157 236 153 217 148 187 L115 2 C108 -39 104 -79 138 -104 C177 -133 219 -129 270 -129 C212 -110 201 -78 212 -16 L245 169 Z " />
<glyph glyph-name="bar" unicode="&#x7c;" horiz-adv-x="434" d="M231 844 L231 -281 L332 -281 L332 844 L231 844 Z " />
<glyph glyph-name="braceright" unicode="&#x7d;" horiz-adv-x="320" d="M189 428 C177 359 181 311 253 295 C178 278 156 237 144 169 L111 -16 C100 -78 79 -110 14 -129 C64 -129 106 -133 155 -104 C197 -79 207 -39 214 2 L247 187 C252 217 256 236 281 261 C299 278 321 289 345 295 C328 298 311 306 298 317 C273 340 279 369 285 402 L314 566 C321 604 328 651 304 680 C272 717 211 714 163 713 C219 696 231 661 220 601 L189 428 Z " />
<glyph glyph-name="asciitilde" unicode="&#x7e;" horiz-adv-x="660" d="M618 448 C591 417 558 372 514 372 C485 372 449 389 410 406 C371 422 329 439 286 439 C204 439 145 376 95 314 L159 267 C191 305 222 351 273 351 C300 351 329 336 354 327 L398 308 C431 295 460 283 498 283 C579 283 629 343 682 402 L618 448 Z " />
<glyph glyph-name="uni00A0" unicode="&#xa0;" horiz-adv-x="300" d="" />
<glyph glyph-name="exclamdown" unicode="&#xa1;" horiz-adv-x="200" d="M106 393 L232 393 L257 534 L131 534 L106 393 Z M5 -181 L131 -181 L219 319 L93 319 L5 -181 Z " />
<glyph glyph-name="cent" unicode="&#xa2;" horiz-adv-x="580" d="M467 687 L367 687 L350 588 C238 566 141 464 122 355 C103 247 165 149 269 130 L251 29 L351 29 L368 126 C456 149 532 203 572 289 L438 289 C411 262 379 245 344 245 C280 245 236 292 248 357 C259 421 318 470 381 470 C418 470 454 452 465 418 L581 418 L609 580 L532 580 L525 541 C507 566 481 582 450 590 L467 687 Z " />
<glyph glyph-name="sterling" unicode="&#xa3;" horiz-adv-x="580" d="M285 400 C265 428 258 457 264 496 C276 564 334 615 396 615 C423 615 447 606 463 588 C479 571 487 547 483 516 L595 516 L630 714 L518 714 L511 673 C483 710 453 729 403 729 C290 729 162 634 139 505 C132 464 135 433 151 400 L84 400 L66 300 L190 300 C213 265 235 234 226 184 C219 141 189 111 149 105 L75 105 L56 0 L344 0 C400 0 456 8 508 46 C557 81 591 132 602 191 C605 210 605 226 601 244 L496 244 C498 231 498 221 496 207 C490 176 472 144 446 126 C419 106 386 105 356 105 L294 105 C327 127 348 158 355 197 C362 240 346 270 327 300 L450 300 L468 400 L285 400 Z " />
<glyph glyph-name="currency" unicode="&#xa4;" horiz-adv-x="580" d="M65 156 L123 89 L185 141 C221 113 262 99 313 99 C360 99 409 115 454 141 L497 89 L578 156 L534 209 C569 254 588 289 597 342 C606 390 602 437 581 477 L643 529 L586 598 L525 546 C488 572 447 586 397 586 C349 586 300 573 255 545 L212 598 L131 529 L176 476 C143 440 119 387 111 343 C104 298 108 246 129 210 L65 156 Z M378 476 C452 476 500 416 487 341 C474 267 403 209 330 209 C256 209 209 270 221 343 C234 416 304 476 378 476 L378 476 Z " />
<glyph glyph-name="yen" unicode="&#xa5;" horiz-adv-x="580" d="M420 0 L440 114 L371 114 L395 248 L403 263 L596 263 L606 320 L441 320 L470 363 L614 363 L624 420 L508 420 L623 601 L686 601 L706 714 L466 714 L446 601 L503 601 L356 363 L292 601 L349 601 L369 714 L126 714 L106 601 L170 601 L223 420 L103 420 L93 363 L241 363 L252 320 L85 320 L75 263 L270 263 L276 248 L252 114 L184 114 L164 0 L420 0 Z " />
<glyph glyph-name="brokenbar" unicode="&#xa6;" horiz-adv-x="435" d="M231 760 L231 366 L332 366 L332 760 L231 760 Z M231 197 L231 -196 L332 -196 L332 197 L231 197 Z " />
<glyph glyph-name="section" unicode="&#xa7;" horiz-adv-x="460" d="M47 56 L44 41 C36 -7 51 -54 83 -85 C115 -117 164 -131 213 -131 C307 -131 411 -68 429 34 C441 100 411 143 355 164 C413 192 457 241 468 303 C477 349 465 393 436 423 C412 449 382 459 348 469 C307 482 246 495 256 552 C264 594 303 620 343 620 C361 620 378 614 390 603 C402 592 408 577 402 557 L504 557 C523 659 444 714 351 714 C264 714 168 655 152 562 C141 498 178 463 229 442 C163 421 113 367 101 301 C82 195 152 149 241 128 C286 117 339 105 328 45 C319 -5 272 -31 226 -31 C172 -31 139 0 154 56 L47 56 Z M271 225 C229 225 194 254 202 299 C209 343 253 374 296 374 C338 374 370 343 363 299 C355 257 312 225 271 225 L271 225 Z " />
<glyph glyph-name="dieresis" unicode="&#xa8;" horiz-adv-x="460" d="M510 714 L388 714 L365 585 L487 585 L510 714 Z M324 714 L202 714 L179 585 L301 585 L324 714 Z " />
<glyph glyph-name="copyright" unicode="&#xa9;" horiz-adv-x="820" d="M847 363 C883 567 744 733 540 733 C333 733 138 566 101 360 C66 156 201 -14 405 -14 C616 -14 810 152 847 363 L847 363 Z M418 38 C240 38 120 182 152 361 C183 537 353 681 529 681 C709 681 827 539 795 357 C764 181 594 38 418 38 L418 38 Z M603 284 C571 221 518 183 451 183 C348 183 313 265 329 360 C346 454 414 543 517 543 C582 543 624 510 624 447 L695 463 C691 546 605 585 527 585 C395 585 285 489 262 356 C240 230 307 139 436 139 C521 139 617 179 660 265 L603 284 Z " />
<glyph glyph-name="ordfeminine" unicode="&#xaa;" horiz-adv-x="420" d="M347 403 L467 403 L480 477 L439 477 L470 650 L511 650 L524 724 L404 724 L397 688 C378 720 347 733 306 733 C214 733 128 652 112 562 C96 471 155 394 247 394 C284 394 324 408 353 438 L347 403 Z M267 472 C218 472 184 513 193 562 C202 613 249 655 301 655 C350 655 384 615 376 565 C366 513 319 472 267 472 L267 472 Z " />
<glyph glyph-name="guillemotleft" unicode="&#xab;" horiz-adv-x="360" d="M173 77 L198 185 L147 263 L225 342 L240 457 L92 315 L75 220 L173 77 Z M333 82 L358 188 L309 262 L384 336 L399 455 L252 311 L236 220 L333 82 Z " />
<glyph glyph-name="logicalnot" unicode="&#xac;" horiz-adv-x="660" d="M559 174 L652 174 L706 482 L124 482 L108 389 L597 389 L559 174 Z " />
<glyph glyph-name="uni00AD" unicode="&#xad;" horiz-adv-x="320" d="M324 202 L345 323 L89 323 L68 202 L324 202 Z " />
<glyph glyph-name="registered" unicode="&#xae;" horiz-adv-x="820" d="M846 359 C883 565 746 733 540 733 C335 733 137 568 101 361 C65 156 200 -14 406 -14 C612 -14 810 152 846 359 L846 359 Z M420 38 C239 38 121 180 153 361 C184 537 352 682 528 682 C706 682 827 540 796 361 C765 186 597 38 420 38 L420 38 Z M543 343 C623 345 685 381 700 465 C707 506 699 545 666 566 C636 585 598 586 563 586 L360 586 L282 142 L345 142 L380 343 L477 343 L562 142 L635 142 L543 343 Z M389 391 L415 541 L539 541 C589 541 649 534 638 469 C625 398 561 391 505 391 L389 391 Z " />
<glyph glyph-name="macron" unicode="&#xaf;" horiz-adv-x="520" d="M585 735 L201 735 L183 637 L567 637 L585 735 Z " />
<glyph glyph-name="degree" unicode="&#xb0;" horiz-adv-x="400" d="M453 583 C467 665 411 733 329 733 C246 733 167 665 153 583 C138 500 193 433 276 433 C358 433 438 500 453 583 L453 583 Z M383 583 C375 538 334 503 289 503 C244 505 215 538 223 583 C231 628 272 663 317 663 C362 663 391 628 383 583 L383 583 Z " />
<glyph glyph-name="plusminus" unicode="&#xb1;" horiz-adv-x="660" d="M163 496 L147 404 L355 404 L334 286 L426 286 L447 404 L655 404 L671 496 L463 496 L484 612 L392 612 L371 496 L163 496 Z M94 102 L602 102 L618 194 L110 194 L94 102 Z " />
<glyph glyph-name="twosuperior" unicode="&#xb2;" horiz-adv-x="348" d="M378 293 L398 407 L322 407 L314 362 L195 362 L320 455 C374 494 422 530 434 593 C447 671 391 733 307 733 C214 733 136 668 122 582 L206 582 C211 621 245 654 288 654 C326 654 355 628 348 592 C342 558 306 533 278 511 L85 362 L73 293 L378 293 Z " />
<glyph glyph-name="threesuperior" unicode="&#xb3;" horiz-adv-x="348" d="M227 496 L249 496 C294 496 327 469 319 425 C312 387 273 356 232 356 C193 356 169 383 169 417 L82 417 C71 333 140 285 224 285 C306 285 395 343 409 422 C418 470 395 516 349 533 C387 549 412 586 419 621 C431 690 373 733 303 733 C232 733 157 687 145 617 L225 617 C231 646 258 666 289 666 C323 666 345 645 339 613 C332 573 295 558 256 558 L238 558 L227 496 Z " />
<glyph glyph-name="acute" unicode="&#xb4;" horiz-adv-x="460" d="M219 600 L518 730 L484 837 L192 687 L219 600 Z " />
<glyph glyph-name="mu" unicode="&#xb5;" horiz-adv-x="640" d="M648 534 L457 534 L437 420 L506 420 L474 238 C451 106 349 99 336 99 C246 99 238 168 251 245 L302 534 L111 534 L91 420 L160 420 L52 -195 L174 -195 L208 0 C229 -10 252 -14 279 -14 C341 -14 409 14 454 66 L442 0 L623 0 L643 114 L574 114 L648 534 Z " />
<glyph glyph-name="paragraph" unicode="&#xb6;" horiz-adv-x="540" d="M347 714 C291 714 245 708 195 670 C150 636 120 587 110 535 C93 434 158 360 257 357 L171 -129 L261 -129 L390 600 L488 600 L359 -129 L449 -129 L578 600 L647 600 L667 714 L347 714 Z " />
<glyph glyph-name="periodcentered" unicode="&#xb7;" horiz-adv-x="300" d="M289 429 L163 429 L138 288 L264 288 L289 429 Z " />
<glyph glyph-name="cedilla" unicode="&#xb8;" horiz-adv-x="360" d="M211 0 L133 0 L63 -122 L119 -147 C130 -137 141 -131 156 -131 C178 -131 190 -149 186 -170 C182 -192 164 -207 142 -207 C123 -207 114 -194 112 -177 L38 -177 C32 -235 69 -280 129 -280 C194 -280 250 -233 261 -168 C271 -115 239 -68 184 -68 L171 -69 L211 0 Z " />
<glyph glyph-name="onesuperior" unicode="&#xb9;" horiz-adv-x="348" d="M347 714 L193 714 L181 646 L249 646 L197 354 L143 354 L131 286 L326 286 L338 354 L283 354 L347 714 Z " />
<glyph glyph-name="ordmasculine" unicode="&#xba;" horiz-adv-x="360" d="M252 399 C346 399 434 476 450 569 C466 659 404 733 313 733 C220 733 132 660 116 567 C100 475 160 399 252 399 L252 399 Z M195 567 C203 615 250 655 299 655 C347 655 379 614 371 566 C362 517 315 477 266 477 C217 477 186 518 195 567 L195 567 Z " />
<glyph glyph-name="guillemotright" unicode="&#xbb;" horiz-adv-x="360" d="M215 77 L364 220 L381 315 L282 457 L256 342 L305 263 L229 185 L215 77 Z M56 82 L202 220 L218 311 L122 455 L95 336 L143 262 L69 188 L56 82 Z " />
<glyph glyph-name="onequarter" unicode="&#xbc;" horiz-adv-x="870" d="M861 176 L791 176 L835 428 L736 428 L492 176 L481 114 L695 114 L687 68 L633 68 L621 0 L814 0 L826 68 L772 68 L780 114 L850 114 L861 176 Z M291 0 L737 714 L639 714 L191 0 L291 0 Z M706 176 L586 176 L733 331 L706 176 Z M336 714 L182 714 L170 646 L238 646 L186 354 L132 354 L120 286 L315 286 L327 354 L272 354 L336 714 Z " />
<glyph glyph-name="onehalf" unicode="&#xbd;" horiz-adv-x="870" d="M301 0 L747 714 L649 714 L201 0 L301 0 Z M347 714 L193 714 L181 646 L249 646 L197 354 L143 354 L131 286 L326 286 L338 354 L283 354 L347 714 Z M828 0 L848 114 L772 114 L764 69 L645 69 L771 162 C824 201 873 237 884 300 C898 378 842 440 758 440 C665 440 586 375 572 289 L656 289 C661 328 696 361 739 361 C777 361 805 335 799 299 C793 265 756 240 728 218 L535 69 L523 0 L828 0 Z " />
<glyph glyph-name="threequarters" unicode="&#xbe;" horiz-adv-x="870" d="M881 176 L811 176 L855 428 L756 428 L512 176 L501 114 L715 114 L707 68 L653 68 L641 0 L834 0 L846 68 L792 68 L800 114 L870 114 L881 176 Z M326 0 L772 714 L674 714 L226 0 L326 0 Z M726 176 L606 176 L753 331 L726 176 Z M229 496 L251 496 C296 496 329 469 321 425 C314 387 275 356 234 356 C195 356 171 383 171 417 L84 417 C73 333 142 285 226 285 C308 285 397 343 411 422 C420 470 397 516 351 533 C389 549 414 586 421 621 C433 690 375 733 305 733 C234 733 159 687 147 617 L227 617 C233 646 260 666 291 666 C325 666 347 645 341 613 C334 573 297 558 258 558 L240 558 L229 496 Z " />
<glyph glyph-name="questiondown" unicode="&#xbf;" horiz-adv-x="540" d="M278 393 L404 393 L429 534 L303 534 L278 393 Z M268 333 C221 194 71 201 42 35 C20 -92 109 -198 236 -198 C372 -198 496 -90 518 46 L390 46 C378 -18 326 -68 260 -68 C202 -68 165 -19 175 37 C184 88 221 115 261 146 C328 200 379 249 394 333 L268 333 Z " />
<glyph glyph-name="Agrave" unicode="&#xc0;" horiz-adv-x="780" d="M476 0 L777 0 L797 114 L721 114 L577 714 L338 714 L318 600 L397 600 L103 114 L27 114 L7 0 L298 0 L316 100 L239 100 L299 207 L550 207 L573 100 L494 100 L476 0 Z M534 312 L352 312 L486 557 L487 557 L534 312 Z M681 869 L439 1013 L371 905 L625 780 L681 869 Z " />
<glyph glyph-name="Aacute" unicode="&#xc1;" horiz-adv-x="780" d="M476 0 L777 0 L797 114 L721 114 L577 714 L338 714 L318 600 L397 600 L103 114 L27 114 L7 0 L298 0 L316 100 L239 100 L299 207 L550 207 L573 100 L494 100 L476 0 Z M534 312 L352 312 L486 557 L487 557 L534 312 Z M391 780 L689 910 L655 1017 L364 867 L391 780 Z " />
<glyph glyph-name="Acircumflex" unicode="&#xc2;" horiz-adv-x="780" d="M476 0 L777 0 L797 114 L721 114 L577 714 L338 714 L318 600 L397 600 L103 114 L27 114 L7 0 L298 0 L316 100 L239 100 L299 207 L550 207 L573 100 L494 100 L476 0 Z M534 312 L352 312 L486 557 L487 557 L534 312 Z M734 811 L591 979 L507 979 L304 811 L442 811 L532 886 L596 811 L734 811 Z " />
<glyph glyph-name="Atilde" unicode="&#xc3;" horiz-adv-x="780" d="M476 0 L777 0 L797 114 L721 114 L577 714 L338 714 L318 600 L397 600 L103 114 L27 114 L7 0 L298 0 L316 100 L239 100 L299 207 L550 207 L573 100 L494 100 L476 0 Z M534 312 L352 312 L486 557 L487 557 L534 312 Z M672 939 C646 919 619 912 590 912 C564 912 542 919 520 927 C499 934 476 941 449 941 C415 941 371 925 341 904 L390 814 C413 832 435 843 462 843 C504 843 541 813 596 813 C639 813 679 830 716 858 L672 939 Z " />
<glyph glyph-name="Adieresis" unicode="&#xc4;" horiz-adv-x="780" d="M476 0 L777 0 L797 114 L721 114 L577 714 L338 714 L318 600 L397 600 L103 114 L27 114 L7 0 L298 0 L316 100 L239 100 L299 207 L550 207 L573 100 L494 100 L476 0 Z M534 312 L352 312 L486 557 L487 557 L534 312 Z M496 894 L374 894 L351 765 L473 765 L496 894 Z M682 894 L560 894 L537 765 L659 765 L682 894 Z " />
<glyph glyph-name="Aring" unicode="&#xc5;" horiz-adv-x="780" d="M476 0 L777 0 L797 114 L721 114 L577 714 L338 714 L318 600 L397 600 L103 114 L27 114 L7 0 L298 0 L316 100 L239 100 L299 207 L550 207 L573 100 L494 100 L476 0 Z M534 312 L352 312 L486 557 L487 557 L534 312 Z M517 778 C581 778 643 831 654 895 C665 959 624 1013 559 1013 C495 1013 432 962 420 897 C409 831 451 778 517 778 L517 778 Z M529 848 C504 848 485 868 490 894 C494 921 518 943 545 943 C570 943 589 922 584 897 C579 870 556 848 529 848 L529 848 Z " />
<glyph glyph-name="AE" unicode="&#xc6;" horiz-adv-x="980" d="M427 0 L957 0 L995 216 L859 216 L842 120 L661 120 L695 310 L904 310 L922 413 L713 413 L745 593 L926 593 L909 499 L1045 499 L1083 714 L469 714 L449 600 L524 600 L106 114 L27 114 L7 0 L296 0 L313 96 L235 96 L330 210 L541 210 L521 96 L444 96 L427 0 Z M559 310 L409 310 L599 542 L600 542 L559 310 Z " />
<glyph glyph-name="Ccedilla" unicode="&#xc7;" horiz-adv-x="760" d="M804 489 L844 717 L732 717 L720 645 C672 705 597 733 514 733 C311 733 119 563 84 363 C66 263 87 167 145 96 C191 40 260 2 337 -10 L273 -122 L329 -147 C340 -137 351 -131 366 -131 C388 -131 400 -149 396 -170 C392 -192 374 -207 352 -207 C333 -207 324 -194 322 -177 L248 -177 C242 -235 279 -280 339 -280 C404 -280 460 -233 471 -168 C481 -115 449 -68 394 -68 L381 -69 L414 -12 C560 -2 710 97 778 235 L631 235 C575 166 493 127 411 127 C282 127 198 234 221 362 C244 496 361 598 496 598 C573 598 646 557 674 489 L804 489 Z " />
<glyph glyph-name="Egrave" unicode="&#xc8;" horiz-adv-x="580" d="M22 0 L551 0 L589 216 L453 216 L436 119 L257 119 L290 308 L498 308 L517 414 L309 414 L340 592 L519 592 L503 499 L639 499 L677 714 L148 714 L128 600 L206 600 L120 114 L42 114 L22 0 Z M601 869 L359 1013 L291 905 L545 780 L601 869 Z " />
<glyph glyph-name="Eacute" unicode="&#xc9;" horiz-adv-x="580" d="M22 0 L551 0 L589 216 L453 216 L436 119 L257 119 L290 308 L498 308 L517 414 L309 414 L340 592 L519 592 L503 499 L639 499 L677 714 L148 714 L128 600 L206 600 L120 114 L42 114 L22 0 Z M311 780 L609 910 L575 1017 L284 867 L311 780 Z " />
<glyph glyph-name="Ecircumflex" unicode="&#xca;" horiz-adv-x="580" d="M22 0 L551 0 L589 216 L453 216 L436 119 L257 119 L290 308 L498 308 L517 414 L309 414 L340 592 L519 592 L503 499 L639 499 L677 714 L148 714 L128 600 L206 600 L120 114 L42 114 L22 0 Z M644 811 L501 979 L417 979 L214 811 L352 811 L442 886 L506 811 L644 811 Z " />
<glyph glyph-name="Edieresis" unicode="&#xcb;" horiz-adv-x="580" d="M22 0 L551 0 L589 216 L453 216 L436 119 L257 119 L290 308 L498 308 L517 414 L309 414 L340 592 L519 592 L503 499 L639 499 L677 714 L148 714 L128 600 L206 600 L120 114 L42 114 L22 0 Z M602 894 L480 894 L457 765 L579 765 L602 894 Z M416 894 L294 894 L271 765 L393 765 L416 894 Z " />
<glyph glyph-name="Igrave" unicode="&#xcc;" horiz-adv-x="340" d="M342 600 L419 600 L439 714 L148 714 L128 600 L206 600 L120 114 L42 114 L22 0 L313 0 L333 114 L256 114 L342 600 Z M481 869 L239 1013 L171 905 L425 780 L481 869 Z " />
<glyph glyph-name="Iacute" unicode="&#xcd;" horiz-adv-x="340" d="M342 600 L419 600 L439 714 L148 714 L128 600 L206 600 L120 114 L42 114 L22 0 L313 0 L333 114 L256 114 L342 600 Z M191 780 L489 910 L455 1017 L164 867 L191 780 Z " />
<glyph glyph-name="Icircumflex" unicode="&#xce;" horiz-adv-x="340" d="M342 600 L419 600 L439 714 L148 714 L128 600 L206 600 L120 114 L42 114 L22 0 L313 0 L333 114 L256 114 L342 600 Z M534 811 L391 979 L307 979 L104 811 L242 811 L332 886 L396 811 L534 811 Z " />
<glyph glyph-name="Idieresis" unicode="&#xcf;" horiz-adv-x="340" d="M342 600 L419 600 L439 714 L148 714 L128 600 L206 600 L120 114 L42 114 L22 0 L313 0 L333 114 L256 114 L342 600 Z M482 894 L360 894 L337 765 L459 765 L482 894 Z M296 894 L174 894 L151 765 L273 765 L296 894 Z " />
<glyph glyph-name="Eth" unicode="&#xd0;" horiz-adv-x="740" d="M445 414 L309 414 L341 593 L450 593 C516 593 567 586 608 536 C643 489 649 419 638 355 C627 297 597 231 550 186 C493 132 433 123 365 123 L258 123 L290 308 L426 308 L445 414 Z M22 0 L359 0 C464 0 553 26 638 106 C711 174 758 264 774 355 C791 454 776 550 719 620 C660 693 587 714 487 714 L148 714 L128 600 L206 600 L173 414 L95 414 L76 308 L154 308 L120 114 L42 114 L22 0 Z " />
<glyph glyph-name="Ntilde" unicode="&#xd1;" horiz-adv-x="800" d="M804 600 L881 600 L901 714 L610 714 L590 600 L668 600 L604 236 L348 714 L148 714 L128 600 L205 600 L119 114 L42 114 L22 0 L313 0 L333 114 L255 114 L318 470 L571 0 L698 0 L804 600 Z M702 939 C676 919 649 912 620 912 C594 912 572 919 550 927 C529 934 506 941 479 941 C445 941 401 925 371 904 L420 814 C443 832 465 843 492 843 C534 843 571 813 626 813 C669 813 709 830 746 858 L702 939 Z " />
<glyph glyph-name="Ograve" unicode="&#xd2;" horiz-adv-x="780" d="M391 -15 C600 -15 796 154 833 363 C869 566 729 732 526 732 C318 732 120 567 83 357 C47 151 185 -15 391 -15 L391 -15 Z M415 121 C283 121 200 229 224 361 C247 492 371 596 501 596 C629 596 715 490 693 362 C670 230 548 121 415 121 L415 121 Z M701 869 L459 1013 L391 905 L645 780 L701 869 Z " />
<glyph glyph-name="Oacute" unicode="&#xd3;" horiz-adv-x="780" d="M391 -15 C600 -15 796 154 833 363 C869 566 729 732 526 732 C318 732 120 567 83 357 C47 151 185 -15 391 -15 L391 -15 Z M415 121 C283 121 200 229 224 361 C247 492 371 596 501 596 C629 596 715 490 693 362 C670 230 548 121 415 121 L415 121 Z M411 780 L709 910 L675 1017 L384 867 L411 780 Z " />
<glyph glyph-name="Ocircumflex" unicode="&#xd4;" horiz-adv-x="780" d="M391 -15 C600 -15 796 154 833 363 C869 566 729 732 526 732 C318 732 120 567 83 357 C47 151 185 -15 391 -15 L391 -15 Z M415 121 C283 121 200 229 224 361 C247 492 371 596 501 596 C629 596 715 490 693 362 C670 230 548 121 415 121 L415 121 Z M744 811 L601 979 L517 979 L314 811 L452 811 L542 886 L606 811 L744 811 Z " />
<glyph glyph-name="Otilde" unicode="&#xd5;" horiz-adv-x="780" d="M391 -15 C600 -15 796 154 833 363 C869 566 729 732 526 732 C318 732 120 567 83 357 C47 151 185 -15 391 -15 L391 -15 Z M415 121 C283 121 200 229 224 361 C247 492 371 596 501 596 C629 596 715 490 693 362 C670 230 548 121 415 121 L415 121 Z M692 939 C666 919 639 912 610 912 C584 912 562 919 540 927 C519 934 496 941 469 941 C435 941 391 925 361 904 L410 814 C433 832 455 843 482 843 C524 843 561 813 616 813 C659 813 699 830 736 858 L692 939 Z " />
<glyph glyph-name="Odieresis" unicode="&#xd6;" horiz-adv-x="780" d="M391 -15 C600 -15 796 154 833 363 C869 566 729 732 526 732 C318 732 120 567 83 357 C47 151 185 -15 391 -15 L391 -15 Z M415 121 C283 121 200 229 224 361 C247 492 371 596 501 596 C629 596 715 490 693 362 C670 230 548 121 415 121 L415 121 Z M702 894 L580 894 L557 765 L679 765 L702 894 Z M516 894 L394 894 L371 765 L493 765 L516 894 Z " />
<glyph glyph-name="multiply" unicode="&#xd7;" horiz-adv-x="660" d="M123 184 L177 119 L382 293 L525 119 L601 184 L458 358 L663 532 L609 597 L405 423 L261 597 L185 532 L328 358 L123 184 Z " />
<glyph glyph-name="Oslash" unicode="&#xd8;" horiz-adv-x="780" d="M202 39 L234 21 C276 -3 332 -14 385 -14 C591 -14 791 146 828 355 C846 457 828 543 773 617 L859 704 L794 764 L707 677 L695 685 C639 718 596 733 525 733 C317 733 121 567 84 358 C66 257 84 174 140 100 L50 9 L114 -51 L202 39 Z M664 506 C690 458 701 422 690 358 C667 227 547 121 414 121 C370 121 346 133 311 150 L664 506 Z M251 213 C225 259 211 297 222 357 C245 485 365 598 494 598 C541 598 564 586 601 567 L251 213 Z " />
<glyph glyph-name="Ugrave" unicode="&#xd9;" horiz-adv-x="700" d="M534 714 L514 600 L579 600 L520 264 C513 227 504 188 475 157 C447 128 411 114 375 114 C336 114 302 131 286 164 C271 194 277 230 283 264 L342 600 L407 600 L427 714 L149 714 L129 600 L206 600 L144 250 C130 172 132 109 180 52 C222 2 284 -14 353 -14 C424 -14 494 5 554 58 C617 113 639 172 652 246 L715 600 L792 600 L812 714 L534 714 Z M661 869 L419 1013 L351 905 L605 780 L661 869 Z " />
<glyph glyph-name="Uacute" unicode="&#xda;" horiz-adv-x="700" d="M534 714 L514 600 L579 600 L520 264 C513 227 504 188 475 157 C447 128 411 114 375 114 C336 114 302 131 286 164 C271 194 277 230 283 264 L342 600 L407 600 L427 714 L149 714 L129 600 L206 600 L144 250 C130 172 132 109 180 52 C222 2 284 -14 353 -14 C424 -14 494 5 554 58 C617 113 639 172 652 246 L715 600 L792 600 L812 714 L534 714 Z M371 780 L669 910 L635 1017 L344 867 L371 780 Z " />
<glyph glyph-name="Ucircumflex" unicode="&#xdb;" horiz-adv-x="700" d="M534 714 L514 600 L579 600 L520 264 C513 227 504 188 475 157 C447 128 411 114 375 114 C336 114 302 131 286 164 C271 194 277 230 283 264 L342 600 L407 600 L427 714 L149 714 L129 600 L206 600 L144 250 C130 172 132 109 180 52 C222 2 284 -14 353 -14 C424 -14 494 5 554 58 C617 113 639 172 652 246 L715 600 L792 600 L812 714 L534 714 Z M714 811 L571 979 L487 979 L284 811 L422 811 L512 886 L576 811 L714 811 Z " />
<glyph glyph-name="Udieresis" unicode="&#xdc;" horiz-adv-x="700" d="M534 714 L514 600 L579 600 L520 264 C513 227 504 188 475 157 C447 128 411 114 375 114 C336 114 302 131 286 164 C271 194 277 230 283 264 L342 600 L407 600 L427 714 L149 714 L129 600 L206 600 L144 250 C130 172 132 109 180 52 C222 2 284 -14 353 -14 C424 -14 494 5 554 58 C617 113 639 172 652 246 L715 600 L792 600 L812 714 L534 714 Z M672 894 L550 894 L527 765 L649 765 L672 894 Z M486 894 L364 894 L341 765 L463 765 L486 894 Z " />
<glyph glyph-name="Yacute" unicode="&#xdd;" horiz-adv-x="680" d="M448 249 L698 600 L769 600 L789 714 L514 714 L494 600 L562 600 L401 364 L323 600 L389 600 L409 714 L133 714 L113 600 L185 600 L312 249 L288 114 L211 114 L191 0 L482 0 L502 114 L424 114 L448 249 Z M361 780 L659 910 L625 1017 L334 867 L361 780 Z " />
<glyph glyph-name="Thorn" unicode="&#xde;" horiz-adv-x="600" d="M129 600 L206 600 L120 114 L43 114 L23 0 L314 0 L334 114 L256 114 L264 158 L362 158 C505 158 622 211 648 358 C678 529 563 561 406 561 L335 561 L342 600 L420 600 L440 714 L149 714 L129 600 Z M283 267 L316 452 L391 452 C466 452 525 437 511 358 C498 281 442 267 364 267 L283 267 Z " />
<glyph glyph-name="germandbls" unicode="&#xdf;" horiz-adv-x="600" d="M102 114 L32 114 L12 0 L204 0 L286 466 C293 502 297 535 325 566 C347 591 380 611 412 611 C460 611 492 573 483 519 C473 463 425 425 370 425 L354 425 L335 317 L362 317 C434 317 510 288 495 202 C484 141 427 96 367 96 C338 96 315 103 293 117 L273 3 C302 -9 336 -16 371 -16 C486 -16 593 69 616 197 C633 293 593 373 498 388 C559 411 598 468 608 527 C629 647 548 733 431 733 C379 733 307 703 251 649 C196 595 177 539 165 471 L102 114 Z " />
<glyph glyph-name="agrave" unicode="&#xe0;" horiz-adv-x="660" d="M458 0 L649 0 L669 114 L602 114 L656 420 L723 420 L743 534 L552 534 L539 458 C512 516 458 548 389 548 C233 548 86 419 59 264 C32 113 131 -14 284 -14 C354 -14 421 13 471 72 L458 0 Z M316 105 C230 105 169 177 185 264 C200 354 284 429 375 429 C463 429 523 358 508 270 C492 179 408 105 316 105 L316 105 Z M609 689 L367 833 L299 725 L553 600 L609 689 Z " />
<glyph glyph-name="aacute" unicode="&#xe1;" horiz-adv-x="660" d="M458 0 L649 0 L669 114 L602 114 L656 420 L723 420 L743 534 L552 534 L539 458 C512 516 458 548 389 548 C233 548 86 419 59 264 C32 113 131 -14 284 -14 C354 -14 421 13 471 72 L458 0 Z M316 105 C230 105 169 177 185 264 C200 354 284 429 375 429 C463 429 523 358 508 270 C492 179 408 105 316 105 L316 105 Z M319 600 L618 730 L584 837 L292 687 L319 600 Z " />
<glyph glyph-name="acircumflex" unicode="&#xe2;" horiz-adv-x="660" d="M458 0 L649 0 L669 114 L602 114 L656 420 L723 420 L743 534 L552 534 L539 458 C512 516 458 548 389 548 C233 548 86 419 59 264 C32 113 131 -14 284 -14 C354 -14 421 13 471 72 L458 0 Z M316 105 C230 105 169 177 185 264 C200 354 284 429 375 429 C463 429 523 358 508 270 C492 179 408 105 316 105 L316 105 Z M651 621 L507 789 L423 789 L221 621 L359 621 L449 696 L513 621 L651 621 Z " />
<glyph glyph-name="atilde" unicode="&#xe3;" horiz-adv-x="660" d="M458 0 L649 0 L669 114 L602 114 L656 420 L723 420 L743 534 L552 534 L539 458 C512 516 458 548 389 548 C233 548 86 419 59 264 C32 113 131 -14 284 -14 C354 -14 421 13 471 72 L458 0 Z M316 105 C230 105 169 177 185 264 C200 354 284 429 375 429 C463 429 523 358 508 270 C492 179 408 105 316 105 L316 105 Z M590 759 C564 739 537 732 508 732 C482 732 460 739 439 747 C417 754 394 761 367 761 C333 761 289 745 260 724 L308 634 C331 652 353 663 380 663 C422 663 460 633 515 633 C558 633 598 650 635 678 L590 759 Z " />
<glyph glyph-name="adieresis" unicode="&#xe4;" horiz-adv-x="660" d="M458 0 L649 0 L669 114 L602 114 L656 420 L723 420 L743 534 L552 534 L539 458 C512 516 458 548 389 548 C233 548 86 419 59 264 C32 113 131 -14 284 -14 C354 -14 421 13 471 72 L458 0 Z M316 105 C230 105 169 177 185 264 C200 354 284 429 375 429 C463 429 523 358 508 270 C492 179 408 105 316 105 L316 105 Z M600 714 L478 714 L455 585 L577 585 L600 714 Z M414 714 L292 714 L269 585 L391 585 L414 714 Z " />
<glyph glyph-name="aring" unicode="&#xe5;" horiz-adv-x="660" d="M458 0 L649 0 L669 114 L602 114 L656 420 L723 420 L743 534 L552 534 L539 458 C512 516 458 548 389 548 C233 548 86 419 59 264 C32 113 131 -14 284 -14 C354 -14 421 13 471 72 L458 0 Z M316 105 C230 105 169 177 185 264 C200 354 284 429 375 429 C463 429 523 358 508 270 C492 179 408 105 316 105 L316 105 Z M415 598 C479 598 541 651 552 715 C563 779 522 833 457 833 C393 833 330 782 318 717 C307 651 349 598 415 598 L415 598 Z M427 668 C402 668 383 688 388 714 C393 741 417 763 444 763 C469 763 487 742 482 717 C478 690 454 668 427 668 L427 668 Z " />
<glyph glyph-name="ae" unicode="&#xe6;" horiz-adv-x="1040" d="M457 0 L579 0 L593 80 C618 23 675 -14 743 -14 C857 -14 971 55 1033 160 L892 160 C851 123 814 105 762 105 C691 105 629 154 628 226 L1062 226 C1063 226 1068 244 1073 272 C1099 421 999 550 848 550 C774 550 712 519 660 459 L673 534 L551 534 L539 466 C508 519 452 550 384 550 C236 550 87 420 61 273 C33 114 137 -14 295 -14 C363 -14 428 23 471 82 L457 0 Z M318 105 C225 105 167 182 183 274 C199 362 293 436 378 436 C464 436 533 363 517 273 C500 176 413 105 318 105 L318 105 Z M643 319 C681 390 745 436 822 436 C893 436 947 386 956 319 L643 319 Z " />
<glyph glyph-name="ccedilla" unicode="&#xe7;" horiz-adv-x="580" d="M455 180 C423 133 366 106 314 106 C225 106 165 176 181 267 C197 356 277 429 368 429 C395 429 419 422 440 409 C460 396 477 378 488 356 L602 356 L633 534 L528 534 L519 483 C487 526 438 550 378 550 C226 550 85 415 59 267 C34 127 116 12 247 -9 L183 -122 L239 -147 C250 -137 261 -131 276 -131 C298 -131 310 -149 306 -170 C302 -192 284 -207 262 -207 C243 -207 234 -194 232 -177 L158 -177 C152 -235 189 -280 249 -280 C314 -280 370 -233 381 -168 C391 -115 359 -68 304 -68 L291 -69 L325 -11 C431 1 543 77 591 180 L455 180 Z " />
<glyph glyph-name="egrave" unicode="&#xe8;" horiz-adv-x="580" d="M447 157 C409 113 359 93 306 93 C230 93 172 147 169 221 L601 221 L613 264 C626 340 616 408 573 464 C530 517 462 550 388 550 C229 550 88 423 60 265 C32 108 136 -14 292 -14 C403 -14 514 55 574 157 L447 157 Z M185 315 C212 385 291 441 363 441 C442 441 501 392 509 315 L185 315 Z M559 689 L317 833 L249 725 L503 600 L559 689 Z " />
<glyph glyph-name="eacute" unicode="&#xe9;" horiz-adv-x="580" d="M447 157 C409 113 359 93 306 93 C230 93 172 147 169 221 L601 221 L613 264 C626 340 616 408 573 464 C530 517 462 550 388 550 C229 550 88 423 60 265 C32 108 136 -14 292 -14 C403 -14 514 55 574 157 L447 157 Z M185 315 C212 385 291 441 363 441 C442 441 501 392 509 315 L185 315 Z M279 600 L578 730 L544 837 L252 687 L279 600 Z " />
<glyph glyph-name="ecircumflex" unicode="&#xea;" horiz-adv-x="580" d="M447 157 C409 113 359 93 306 93 C230 93 172 147 169 221 L601 221 L613 264 C626 340 616 408 573 464 C530 517 462 550 388 550 C229 550 88 423 60 265 C32 108 136 -14 292 -14 C403 -14 514 55 574 157 L447 157 Z M185 315 C212 385 291 441 363 441 C442 441 501 392 509 315 L185 315 Z M611 621 L467 789 L383 789 L181 621 L319 621 L409 696 L473 621 L611 621 Z " />
<glyph glyph-name="edieresis" unicode="&#xeb;" horiz-adv-x="580" d="M447 157 C409 113 359 93 306 93 C230 93 172 147 169 221 L601 221 L613 264 C626 340 616 408 573 464 C530 517 462 550 388 550 C229 550 88 423 60 265 C32 108 136 -14 292 -14 C403 -14 514 55 574 157 L447 157 Z M185 315 C212 385 291 441 363 441 C442 441 501 392 509 315 L185 315 Z M560 714 L438 714 L415 585 L537 585 L560 714 Z M374 714 L252 714 L229 585 L351 585 L374 714 Z " />
<glyph glyph-name="igrave" unicode="&#xec;" horiz-adv-x="300" d="M305 534 L114 534 L94 420 L163 420 L109 114 L39 114 L19 0 L280 0 L300 114 L231 114 L305 534 Z M429 689 L187 833 L119 725 L373 600 L429 689 Z " />
<glyph glyph-name="iacute" unicode="&#xed;" horiz-adv-x="300" d="M305 534 L114 534 L94 420 L163 420 L109 114 L39 114 L19 0 L280 0 L300 114 L231 114 L305 534 Z M139 600 L438 730 L404 837 L112 687 L139 600 Z " />
<glyph glyph-name="icircumflex" unicode="&#xee;" horiz-adv-x="300" d="M305 534 L114 534 L94 420 L163 420 L109 114 L39 114 L19 0 L280 0 L300 114 L231 114 L305 534 Z M471 621 L327 789 L243 789 L41 621 L179 621 L269 696 L333 621 L471 621 Z " />
<glyph glyph-name="idieresis" unicode="&#xef;" horiz-adv-x="300" d="M305 534 L114 534 L94 420 L163 420 L109 114 L39 114 L19 0 L280 0 L300 114 L231 114 L305 534 Z M430 714 L308 714 L285 585 L407 585 L430 714 Z M244 714 L122 714 L99 585 L221 585 L244 714 Z " />
<glyph glyph-name="eth" unicode="&#xf0;" horiz-adv-x="580" d="M386 590 C405 576 419 562 433 546 C420 549 405 550 391 550 C236 550 87 425 59 269 C32 115 133 -14 289 -14 C446 -14 592 114 620 270 C650 442 588 552 512 626 L645 663 L573 720 L442 682 C412 701 385 713 362 720 L212 681 C247 670 280 656 306 642 L162 600 L234 547 L386 590 Z M310 106 C219 106 164 182 180 270 C195 359 282 430 370 430 C459 430 514 354 499 267 C483 178 399 106 310 106 L310 106 Z " />
<glyph glyph-name="ntilde" unicode="&#xf1;" horiz-adv-x="640" d="M106 114 L37 114 L17 0 L277 0 L297 114 L228 114 L255 269 C262 305 270 351 298 381 C325 411 366 426 403 426 C439 426 473 412 490 383 C505 354 499 320 494 287 L463 114 L394 114 L374 0 L634 0 L654 114 L585 114 L622 323 C633 384 640 431 605 480 C573 522 520 546 462 546 C396 546 331 517 289 458 L302 534 L111 534 L91 420 L160 420 L106 114 Z M590 759 C564 739 537 732 508 732 C482 732 460 739 439 747 C417 754 394 761 367 761 C333 761 289 745 260 724 L308 634 C331 652 353 663 380 663 C422 663 460 633 515 633 C558 633 598 650 635 678 L590 759 Z " />
<glyph glyph-name="ograve" unicode="&#xf2;" horiz-adv-x="580" d="M289 -14 C446 -14 592 114 620 270 C646 422 545 550 391 550 C236 550 87 425 59 269 C32 115 133 -14 289 -14 L289 -14 Z M310 106 C219 106 164 182 180 270 C195 359 282 430 370 430 C459 430 514 354 499 267 C483 178 399 106 310 106 L310 106 Z M569 689 L327 833 L259 725 L513 600 L569 689 Z " />
<glyph glyph-name="oacute" unicode="&#xf3;" horiz-adv-x="580" d="M289 -14 C446 -14 592 114 620 270 C646 422 545 550 391 550 C236 550 87 425 59 269 C32 115 133 -14 289 -14 L289 -14 Z M310 106 C219 106 164 182 180 270 C195 359 282 430 370 430 C459 430 514 354 499 267 C483 178 399 106 310 106 L310 106 Z M279 600 L578 730 L544 837 L252 687 L279 600 Z " />
<glyph glyph-name="ocircumflex" unicode="&#xf4;" horiz-adv-x="580" d="M289 -14 C446 -14 592 114 620 270 C646 422 545 550 391 550 C236 550 87 425 59 269 C32 115 133 -14 289 -14 L289 -14 Z M310 106 C219 106 164 182 180 270 C195 359 282 430 370 430 C459 430 514 354 499 267 C483 178 399 106 310 106 L310 106 Z M621 621 L477 789 L393 789 L191 621 L329 621 L419 696 L483 621 L621 621 Z " />
<glyph glyph-name="otilde" unicode="&#xf5;" horiz-adv-x="580" d="M289 -14 C446 -14 592 114 620 270 C646 422 545 550 391 550 C236 550 87 425 59 269 C32 115 133 -14 289 -14 L289 -14 Z M310 106 C219 106 164 182 180 270 C195 359 282 430 370 430 C459 430 514 354 499 267 C483 178 399 106 310 106 L310 106 Z M560 759 C534 739 507 732 478 732 C452 732 430 739 409 747 C387 754 364 761 337 761 C303 761 259 745 230 724 L278 634 C301 652 323 663 350 663 C392 663 430 633 485 633 C528 633 568 650 605 678 L560 759 Z " />
<glyph glyph-name="odieresis" unicode="&#xf6;" horiz-adv-x="580" d="M289 -14 C446 -14 592 114 620 270 C646 422 545 550 391 550 C236 550 87 425 59 269 C32 115 133 -14 289 -14 L289 -14 Z M310 106 C219 106 164 182 180 270 C195 359 282 430 370 430 C459 430 514 354 499 267 C483 178 399 106 310 106 L310 106 Z M560 714 L438 714 L415 585 L537 585 L560 714 Z M374 714 L252 714 L229 585 L351 585 L374 714 Z " />
<glyph glyph-name="divide" unicode="&#xf7;" horiz-adv-x="660" d="M131 312 L639 312 L655 404 L147 404 L131 312 Z M386 576 L366 467 L458 467 L478 576 L386 576 Z M328 249 L309 140 L401 140 L420 249 L328 249 Z " />
<glyph glyph-name="oslash" unicode="&#xf8;" horiz-adv-x="600" d="M168 16 C210 -3 245 -14 296 -14 C459 -14 602 117 630 277 C643 350 623 415 583 467 L645 533 L584 587 L522 519 C485 541 441 550 396 550 C238 550 87 424 59 266 C52 227 54 184 64 148 C72 119 86 100 101 76 L107 69 L43 -2 L102 -55 L168 16 Z M489 363 C505 336 514 302 508 267 C492 173 407 104 314 104 C295 104 279 110 262 116 L489 363 Z M201 168 C182 197 174 232 180 269 C196 360 279 432 371 432 C394 432 410 426 430 418 L201 168 Z " />
<glyph glyph-name="ugrave" unicode="&#xf9;" horiz-adv-x="640" d="M644 534 L453 534 L433 420 L502 420 L472 248 C465 211 459 175 430 143 C404 116 366 99 332 99 C296 99 265 114 251 145 C236 174 241 211 247 245 L298 534 L107 534 L87 420 L156 420 L119 209 C109 151 108 100 139 54 C168 10 218 -14 275 -14 C337 -14 405 14 450 66 L438 0 L619 0 L639 114 L570 114 L644 534 Z M589 689 L347 833 L279 725 L533 600 L589 689 Z " />
<glyph glyph-name="uacute" unicode="&#xfa;" horiz-adv-x="640" d="M644 534 L453 534 L433 420 L502 420 L472 248 C465 211 459 175 430 143 C404 116 366 99 332 99 C296 99 265 114 251 145 C236 174 241 211 247 245 L298 534 L107 534 L87 420 L156 420 L119 209 C109 151 108 100 139 54 C168 10 218 -14 275 -14 C337 -14 405 14 450 66 L438 0 L619 0 L639 114 L570 114 L644 534 Z M299 600 L598 730 L564 837 L272 687 L299 600 Z " />
<glyph glyph-name="ucircumflex" unicode="&#xfb;" horiz-adv-x="640" d="M644 534 L453 534 L433 420 L502 420 L472 248 C465 211 459 175 430 143 C404 116 366 99 332 99 C296 99 265 114 251 145 C236 174 241 211 247 245 L298 534 L107 534 L87 420 L156 420 L119 209 C109 151 108 100 139 54 C168 10 218 -14 275 -14 C337 -14 405 14 450 66 L438 0 L619 0 L639 114 L570 114 L644 534 Z M631 621 L487 789 L403 789 L201 621 L339 621 L429 696 L493 621 L631 621 Z " />
<glyph glyph-name="udieresis" unicode="&#xfc;" horiz-adv-x="640" d="M644 534 L453 534 L433 420 L502 420 L472 248 C465 211 459 175 430 143 C404 116 366 99 332 99 C296 99 265 114 251 145 C236 174 241 211 247 245 L298 534 L107 534 L87 420 L156 420 L119 209 C109 151 108 100 139 54 C168 10 218 -14 275 -14 C337 -14 405 14 450 66 L438 0 L619 0 L639 114 L570 114 L644 534 Z M590 714 L468 714 L445 585 L567 585 L590 714 Z M404 714 L282 714 L259 585 L381 585 L404 714 Z " />
<glyph glyph-name="yacute" unicode="&#xfd;" horiz-adv-x="600" d="M607 420 L674 420 L694 534 L445 534 L425 420 L477 420 L330 159 L281 420 L333 420 L353 534 L101 534 L81 420 L151 420 L240 7 L189 -81 L122 -81 L102 -195 L362 -195 L382 -81 L312 -81 L607 420 Z M289 600 L588 730 L554 837 L262 687 L289 600 Z " />
<glyph glyph-name="thorn" unicode="&#xfe;" horiz-adv-x="660" d="M71 -81 L3 -81 L-17 -195 L243 -195 L263 -81 L194 -81 L221 75 C254 19 318 -8 388 -8 C536 -8 676 119 702 265 C728 416 629 540 478 540 C406 540 337 511 287 450 L334 714 L143 714 L123 600 L191 600 L71 -81 Z M387 105 C298 105 238 177 254 266 C270 358 356 428 446 428 C535 428 591 352 576 265 C560 177 475 105 387 105 L387 105 Z " />
<glyph glyph-name="ydieresis" unicode="&#xff;" horiz-adv-x="600" d="M607 420 L674 420 L694 534 L445 534 L425 420 L477 420 L330 159 L281 420 L333 420 L353 534 L101 534 L81 420 L151 420 L240 7 L189 -81 L122 -81 L102 -195 L362 -195 L382 -81 L312 -81 L607 420 Z M580 714 L458 714 L435 585 L557 585 L580 714 Z M394 714 L272 714 L249 585 L371 585 L394 714 Z " />
<glyph glyph-name="dotlessi" unicode="&#x131;" horiz-adv-x="300" d="M305 534 L114 534 L94 420 L163 420 L109 114 L39 114 L19 0 L280 0 L300 114 L231 114 L305 534 Z " />
<glyph glyph-name="Lslash" unicode="&#x141;" horiz-adv-x="580" d="M34 0 L554 0 L592 216 L457 216 L440 121 L269 121 L312 363 L460 447 L475 535 L328 455 L354 600 L431 600 L451 714 L160 714 L140 600 L218 600 L180 387 L80 328 L64 236 L164 296 L132 114 L54 114 L34 0 Z " />
<glyph glyph-name="lslash" unicode="&#x142;" horiz-adv-x="320" d="M292 0 L312 114 L243 114 L292 394 L392 462 L409 555 L309 487 L349 714 L162 714 L142 600 L207 600 L172 405 L75 338 L59 247 L157 315 L121 114 L52 114 L32 0 L292 0 Z " />
<glyph glyph-name="OE" unicode="&#x152;" horiz-adv-x="1100" d="M626 0 L1077 0 L1115 215 L979 215 L962 120 L782 120 L815 308 L1018 308 L1037 415 L834 415 L866 595 L1046 595 L1030 503 L1166 503 L1203 714 L752 714 L734 611 C688 693 617 733 516 733 C314 733 119 562 83 360 C47 151 178 -14 388 -14 C488 -14 573 24 645 106 L626 0 Z M219 356 C242 488 362 598 495 598 C626 598 704 484 682 357 C660 230 538 122 410 122 C282 122 196 228 219 356 L219 356 Z " />
<glyph glyph-name="oe" unicode="&#x153;" horiz-adv-x="1040" d="M902 163 C860 124 816 106 763 106 C688 106 631 153 628 226 L1067 226 L1079 272 C1106 425 997 548 845 548 C755 548 661 510 599 433 L596 441 C579 474 567 489 534 510 C495 536 449 550 397 550 C240 550 88 426 60 269 C33 111 139 -14 299 -14 C386 -14 481 25 541 100 C577 24 654 -14 744 -14 C862 -14 978 55 1041 163 L902 163 Z M647 317 C676 381 747 431 816 431 C893 431 941 388 955 317 L647 317 Z M316 105 C225 105 161 178 177 268 C193 358 281 432 372 432 C463 432 527 360 511 269 C496 179 408 105 316 105 L316 105 Z " />
<glyph glyph-name="Scaron" unicode="&#x160;" horiz-adv-x="520" d="M62 212 L25 0 L133 0 L141 47 C168 5 213 -14 268 -14 C398 -14 510 81 533 210 C544 270 528 323 488 360 C449 395 399 410 347 425 C295 441 235 456 248 526 C258 582 307 615 360 615 C413 615 445 575 437 522 L559 522 L593 714 L489 714 L482 674 C459 713 414 729 365 729 C250 729 133 641 112 523 C101 459 118 405 163 367 C201 334 243 321 292 306 C344 290 408 272 395 201 C385 140 332 103 273 103 C240 103 216 116 201 135 C186 155 181 183 186 212 L62 212 Z M648 969 L510 969 L423 894 L357 969 L212 969 L353 801 L444 801 L648 969 Z " />
<glyph glyph-name="scaron" unicode="&#x161;" horiz-adv-x="460" d="M52 155 L25 0 L118 0 L126 44 C154 3 200 -14 254 -14 C354 -14 455 46 474 154 C495 274 398 304 305 326 C268 335 221 346 230 396 C236 433 275 452 308 452 C346 452 370 427 366 389 L484 389 L509 534 L419 534 L413 497 C389 535 348 545 300 545 C205 545 109 486 91 384 C70 267 167 238 256 214 C295 203 343 194 334 141 C327 101 286 75 249 75 C224 75 205 83 193 97 C181 111 175 131 177 155 L52 155 Z M586 789 L448 789 L361 714 L295 789 L150 789 L292 621 L383 621 L586 789 Z " />
<glyph glyph-name="Ydieresis" unicode="&#x178;" horiz-adv-x="680" d="M448 249 L698 600 L769 600 L789 714 L514 714 L494 600 L562 600 L401 364 L323 600 L389 600 L409 714 L133 714 L113 600 L185 600 L312 249 L288 114 L211 114 L191 0 L482 0 L502 114 L424 114 L448 249 Z M642 894 L520 894 L497 765 L619 765 L642 894 Z M456 894 L334 894 L311 765 L433 765 L456 894 Z " />
<glyph glyph-name="Zcaron" unicode="&#x17d;" horiz-adv-x="560" d="M577 217 L452 217 L435 119 L203 119 L632 611 L650 714 L163 714 L125 497 L246 497 L263 595 L465 595 L39 107 L20 0 L539 0 L577 217 Z M668 969 L530 969 L443 894 L377 969 L232 969 L373 801 L464 801 L668 969 Z " />
<glyph glyph-name="zcaron" unicode="&#x17e;" horiz-adv-x="460" d="M118 534 L87 357 L194 357 L205 420 L357 420 L29 98 L12 0 L448 0 L479 173 L372 173 L361 114 L197 114 L509 424 L528 534 L118 534 Z M586 789 L448 789 L361 714 L295 789 L150 789 L292 621 L383 621 L586 789 Z " />
<glyph glyph-name="florin" unicode="&#x192;" horiz-adv-x="580" d="M426 358 L496 358 L535 463 L465 463 C496 535 499 635 612 633 L648 732 C575 732 507 717 448 665 C386 609 369 532 343 464 L274 464 L234 358 L304 358 L193 55 C170 -6 151 -41 73 -42 L36 -142 C185 -141 266 -78 315 55 L426 358 Z " />
<glyph glyph-name="circumflex" unicode="&#x2c6;" horiz-adv-x="580" d="M612 631 L469 799 L385 799 L182 631 L320 631 L410 706 L474 631 L612 631 Z " />
<glyph glyph-name="caron" unicode="&#x2c7;" horiz-adv-x="580" d="M648 799 L510 799 L423 724 L357 799 L212 799 L353 631 L444 631 L648 799 Z " />
<glyph glyph-name="uni02C9" unicode="&#x2c9;" horiz-adv-x="520" d="M585 735 L201 735 L183 637 L567 637 L585 735 Z " />
<glyph glyph-name="breve" unicode="&#x2d8;" horiz-adv-x="520" d="M214 797 C194 688 275 633 377 633 C479 633 578 688 597 797 L515 797 C501 746 436 727 393 727 C349 727 293 746 297 797 L214 797 Z " />
<glyph glyph-name="dotaccent" unicode="&#x2d9;" horiz-adv-x="260" d="M317 714 L195 714 L172 585 L294 585 L317 714 Z " />
<glyph glyph-name="ring" unicode="&#x2da;" horiz-adv-x="380" d="M295 598 C359 598 421 651 432 715 C443 779 402 833 337 833 C273 833 210 782 198 717 C187 651 229 598 295 598 L295 598 Z M307 668 C282 668 263 688 268 714 C273 741 297 763 324 763 C349 763 367 742 362 717 C358 690 334 668 307 668 L307 668 Z " />
<glyph glyph-name="ogonek" unicode="&#x2db;" horiz-adv-x="340" d="M138 0 C107 -28 93 -58 86 -95 C75 -160 106 -206 172 -206 C193 -206 211 -201 231 -195 L244 -121 C234 -125 226 -129 216 -129 C179 -129 171 -88 177 -57 C182 -31 191 -16 215 0 L138 0 Z " />
<glyph glyph-name="tilde" unicode="&#x2dc;" horiz-adv-x="520" d="M530 759 C504 739 477 732 448 732 C422 732 400 739 379 747 C357 754 334 761 307 761 C273 761 229 745 200 724 L248 634 C271 652 293 663 320 663 C362 663 400 633 455 633 C498 633 538 650 575 678 L530 759 Z " />
<glyph glyph-name="hungarumlaut" unicode="&#x2dd;" horiz-adv-x="480" d="M247 589 L397 807 L313 840 L180 618 L247 589 Z M404 589 L553 807 L469 840 L337 617 L404 589 Z " />
<glyph glyph-name="uni03A9" unicode="&#x3a9;" horiz-adv-x="738" d="M202 99 L58 99 L41 0 L312 0 L325 73 C263 115 219 223 246 373 C272 520 366 629 482 629 C603 629 645 506 622 377 C594 214 513 117 437 73 L424 0 L695 0 L712 99 L566 99 L567 102 C643 160 727 267 751 403 C779 561 699 731 500 731 C314 731 158 582 125 397 C101 263 148 162 203 102 L202 99 Z " />
<glyph glyph-name="uni03BC" unicode="&#x3bc;" horiz-adv-x="640" d="M648 534 L457 534 L437 420 L506 420 L474 238 C451 106 349 99 336 99 C246 99 238 168 251 245 L302 534 L111 534 L91 420 L160 420 L52 -195 L174 -195 L208 0 C229 -10 252 -14 279 -14 C341 -14 409 14 454 66 L442 0 L623 0 L643 114 L574 114 L648 534 Z " />
<glyph glyph-name="pi" unicode="&#x3c0;" horiz-adv-x="619" d="M671 436 L699 540 L267 540 C179 540 125 526 94 506 L95 425 C118 432 149 436 201 436 C178 318 114 118 58 0 L177 0 C233 105 296 320 322 436 L473 436 L422 147 C409 72 406 21 414 0 L533 0 C530 31 532 76 546 154 L596 436 L671 436 Z " />
<glyph glyph-name="endash" unicode="&#x2013;" horiz-adv-x="500" d="M542 202 L563 323 L51 323 L30 202 L542 202 Z " />
<glyph glyph-name="emdash" unicode="&#x2014;" horiz-adv-x="1000" d="M1042 202 L1063 323 L51 323 L30 202 L1042 202 Z " />
<glyph glyph-name="quoteleft" unicode="&#x2018;" horiz-adv-x="200" d="M112 429 L238 429 L263 570 L209 570 L211 584 C216 614 223 647 264 647 L276 646 L288 714 L269 714 C235 714 210 713 181 684 C152 655 146 625 140 590 L112 429 Z " />
<glyph glyph-name="quoteright" unicode="&#x2019;" horiz-adv-x="200" d="M288 714 L161 714 L136 573 L191 573 L189 560 C183 529 176 496 135 496 L124 497 L112 429 L131 429 C165 429 190 431 218 460 C246 488 253 518 260 553 L288 714 Z " />
<glyph glyph-name="quotesinglbase" unicode="&#x201a;" horiz-adv-x="200" d="M187 141 L61 141 L36 0 L90 0 L88 -13 C82 -44 76 -76 36 -76 L23 -76 L11 -144 L30 -144 C64 -144 89 -142 118 -113 C146 -85 152 -55 159 -19 L187 141 Z " />
<glyph glyph-name="quotedblleft" unicode="&#x201c;" horiz-adv-x="380" d="M296 429 L423 429 L448 570 L394 570 L396 584 C401 614 408 647 448 647 L461 646 L473 714 L454 714 C419 714 395 713 366 684 C337 655 330 625 324 590 L296 429 Z M111 429 L238 429 L263 570 L209 570 L211 583 C216 614 223 647 263 647 L276 646 L288 714 L269 714 C235 714 210 712 181 684 C150 655 145 625 139 590 L111 429 Z " />
<glyph glyph-name="quotedblright" unicode="&#x201d;" horiz-adv-x="380" d="M473 714 L346 714 L321 573 L376 573 L374 560 C368 529 361 496 320 496 L309 497 L297 429 L316 429 C350 429 375 431 403 460 C431 488 438 518 445 553 L473 714 Z M288 714 L161 714 L136 573 L191 573 L189 560 C183 529 176 496 135 496 L124 497 L112 429 L131 429 C165 429 190 431 218 460 C246 488 253 518 260 553 L288 714 Z " />
<glyph glyph-name="quotedblbase" unicode="&#x201e;" horiz-adv-x="380" d="M371 141 L245 141 L220 0 L275 0 L273 -13 C267 -44 261 -76 220 -76 L208 -76 L196 -144 L215 -144 C249 -144 274 -142 302 -113 C331 -85 336 -55 343 -19 L371 141 Z M186 141 L60 141 L35 0 L90 0 L88 -13 C82 -44 75 -77 34 -77 L23 -76 L11 -144 L30 -144 C64 -144 89 -142 117 -114 C146 -85 151 -55 157 -20 L186 141 Z " />
<glyph glyph-name="dagger" unicode="&#x2020;" horiz-adv-x="580" d="M428 412 L621 412 L637 507 L444 507 L481 714 L350 714 L313 507 L121 507 L105 412 L297 412 L201 -131 L332 -131 L428 412 Z " />
<glyph glyph-name="daggerdbl" unicode="&#x2021;" horiz-adv-x="580" d="M430 425 L622 425 L639 520 L447 520 L481 714 L349 714 L315 520 L125 520 L108 425 L298 425 L280 321 L90 321 L73 226 L263 226 L200 -131 L332 -131 L395 226 L587 226 L604 321 L412 321 L430 425 Z " />
<glyph glyph-name="bullet" unicode="&#x2022;" horiz-adv-x="600" d="M554 536 L236 536 L173 179 L491 179 L554 536 Z " />
<glyph glyph-name="ellipsis" unicode="&#x2026;" horiz-adv-x="1000" d="M255 141 L129 141 L104 0 L230 0 L255 141 Z M588 141 L462 141 L437 0 L563 0 L588 141 Z M921 141 L795 141 L770 0 L896 0 L921 141 Z " />
<glyph glyph-name="perthousand" unicode="&#x2030;" horiz-adv-x="1280" d="M657 -11 C755 -11 848 70 866 168 C883 266 816 344 718 344 C622 344 528 266 511 169 C493 70 557 -11 657 -11 L657 -11 Z M675 93 C633 93 606 127 614 168 C621 209 660 241 700 241 C740 241 768 207 760 167 C753 127 715 93 675 93 L675 93 Z M284 374 C383 374 475 454 492 552 C510 650 443 729 345 729 C250 729 155 650 138 554 C120 455 184 374 284 374 L284 374 Z M302 478 C260 478 234 511 242 553 C249 593 287 625 327 625 C368 625 395 592 388 551 C381 511 342 478 302 478 L302 478 Z M1061 -11 C1160 -11 1252 70 1270 168 C1287 266 1220 344 1123 344 C1027 344 932 266 915 169 C897 70 961 -11 1061 -11 L1061 -11 Z M1079 93 C1037 93 1011 127 1019 168 C1026 209 1065 241 1105 241 C1145 241 1173 207 1165 167 C1158 127 1120 93 1079 93 L1079 93 Z M326 0 L773 714 L675 714 L227 0 L326 0 Z " />
<glyph glyph-name="guilsinglleft" unicode="&#x2039;" horiz-adv-x="200" d="M173 77 L198 185 L147 263 L225 342 L240 457 L92 315 L75 220 L173 77 Z " />
<glyph glyph-name="guilsinglright" unicode="&#x203a;" horiz-adv-x="200" d="M55 77 L204 220 L221 315 L122 457 L96 342 L145 263 L69 185 L55 77 Z " />
<glyph glyph-name="fraction" unicode="&#x2044;" horiz-adv-x="80" d="M-69 0 L377 714 L279 714 L-169 0 L-69 0 Z " />
<glyph glyph-name="Euro" unicode="&#x20ac;" horiz-adv-x="580" d="M433 282 L443 339 L256 339 L260 362 C262 372 263 382 266 392 L452 392 L462 449 L280 449 C308 540 355 611 430 611 C480 611 521 584 518 485 L633 485 L673 717 L581 717 L569 645 C555 705 509 733 449 733 C302 733 198 609 149 449 L79 449 L69 392 L135 392 C132 382 131 373 129 363 L125 339 L60 339 L50 282 L119 282 C114 210 122 142 149 90 C188 15 258 -14 323 -14 C443 -14 547 49 602 235 L487 235 C464 158 418 108 345 108 C260 108 242 187 250 282 L433 282 Z " />
<glyph glyph-name="afii61289" unicode="&#x2113;" horiz-adv-x="528" d="M490 183 C453 136 398 88 340 88 C288 88 252 127 265 208 L272 249 C419 370 520 487 542 610 C559 710 529 791 430 791 C333 791 236 715 204 531 L157 268 C127 243 94 222 60 197 L80 131 C101 145 122 161 142 174 C142 170 141 166 141 163 C134 70 171 -10 294 -10 C376 -10 460 29 531 132 L490 183 Z M322 534 C345 665 388 703 420 703 C464 703 474 669 464 614 C451 536 381 446 292 362 L322 534 Z " />
<glyph glyph-name="trademark" unicode="&#x2122;" horiz-adv-x="980" d="M972 714 L870 714 L697 427 L632 714 L528 714 L456 307 L520 307 L582 657 L658 307 L696 307 L899 657 L837 307 L900 307 L972 714 Z M456 714 L126 714 L116 657 L246 657 L184 307 L255 307 L317 657 L446 657 L456 714 Z " />
<glyph glyph-name="Omega" unicode="&#x2126;" horiz-adv-x="738" d="M202 99 L58 99 L41 0 L312 0 L325 73 C263 115 219 223 246 373 C272 520 366 629 482 629 C603 629 645 506 622 377 C594 214 513 117 437 73 L424 0 L695 0 L712 99 L566 99 L567 102 C643 160 727 267 751 403 C779 561 699 731 500 731 C314 731 158 582 125 397 C101 263 148 162 203 102 L202 99 Z " />
<glyph glyph-name="estimated" unicode="&#x212e;" horiz-adv-x="1029" d="M994 349 L994 359 C994 566 808 733 579 733 C350 733 164 566 164 359 C164 153 350 -13 579 -13 C712 -13 833 44 907 131 L847 131 C782 56 687 8 580 8 C480 8 391 51 325 118 C320 125 317 132 317 141 L317 345 C317 348 319 349 322 349 L994 349 Z M842 376 C842 373 840 369 837 369 L322 369 C319 369 317 373 317 376 L317 576 C317 586 320 594 327 601 C392 667 481 710 580 710 C678 710 766 668 832 604 C838 598 842 589 842 580 L842 376 Z " />
<glyph glyph-name="partialdiff" unicode="&#x2202;" horiz-adv-x="591" d="M224 661 C254 683 304 710 368 710 C474 710 525 592 501 453 L495 417 L493 417 C482 444 439 503 352 503 C230 503 110 399 81 234 C62 122 106 -9 251 -9 C434 -9 570 165 615 418 C661 679 551 811 402 811 C307 811 241 776 203 751 L224 661 Z M280 92 C218 92 188 153 202 230 C218 323 285 405 358 405 C425 405 459 348 464 313 C434 208 363 92 281 92 L280 92 Z " />
<glyph glyph-name="Delta" unicode="&#x2206;" horiz-adv-x="680" d="M28 0 L651 0 L664 74 L545 736 L400 736 L41 73 L28 0 Z M171 99 L357 433 C383 490 427 567 442 603 L445 603 C449 558 466 473 473 417 L536 99 L171 99 Z " />
<glyph glyph-name="product" unicode="&#x220f;" horiz-adv-x="870" d="M845 608 L845 720 L152 720 L152 608 L259 608 L259 -99 L381 -99 L381 608 L616 608 L616 -99 L738 -99 L738 608 L845 608 Z " />
<glyph glyph-name="summation" unicode="&#x2211;" horiz-adv-x="704" d="M685 -100 L685 14 L304 14 L304 18 L544 330 L327 612 L327 615 L668 615 L668 720 L161 720 L161 634 L406 310 L151 -20 L151 -100 L685 -100 Z " />
<glyph glyph-name="minus" unicode="&#x2212;" horiz-adv-x="660" d="M131 312 L639 312 L655 404 L147 404 L131 312 Z " />
<glyph glyph-name="uni2215" unicode="&#x2215;" horiz-adv-x="80" d="M-69 0 L377 714 L279 714 L-169 0 L-69 0 Z " />
<glyph glyph-name="uni2219" unicode="&#x2219;" horiz-adv-x="300" d="M289 429 L163 429 L138 288 L264 288 L289 429 Z " />
<glyph glyph-name="radical" unicode="&#x221a;" horiz-adv-x="739" d="M748 862 L662 862 L483 85 C476 50 471 14 467 -7 L465 -6 C460 16 452 49 445 80 L333 417 L162 348 L183 279 L260 309 L416 -146 L516 -146 L748 862 Z " />
<glyph glyph-name="infinity" unicode="&#x221e;" horiz-adv-x="887" d="M837 298 C837 400 768 467 678 467 C587 468 535 402 490 351 C436 419 380 467 303 467 C206 467 132 395 132 292 C132 191 209 120 294 120 C378 120 432 173 486 238 C556 149 611 120 672 120 C756 120 837 187 837 297 L837 298 Z M303 188 C245 188 203 235 203 291 C203 353 239 401 299 401 C367 401 405 346 448 289 C408 243 363 188 304 188 L303 188 Z M671 401 C728 401 766 356 766 292 C766 245 733 188 674 188 C622 188 588 218 524 296 C558 333 606 401 670 401 L671 401 Z " />
<glyph glyph-name="integral" unicode="&#x222b;" horiz-adv-x="532" d="M511 876 C499 882 474 888 448 888 C405 888 360 874 331 842 C287 796 270 731 270 612 C270 438 285 286 285 101 C285 6 274 -37 256 -62 C244 -77 227 -83 210 -83 C190 -83 174 -76 165 -72 L149 -159 C163 -167 195 -176 227 -176 C276 -176 328 -156 355 -105 C378 -65 394 1 394 102 C394 284 379 433 379 600 C379 688 385 746 408 775 C421 793 440 801 460 801 C474 801 487 797 497 792 L511 876 Z " />
<glyph glyph-name="approxequal" unicode="&#x2248;" horiz-adv-x="653" d="M568 463 C539 417 514 388 473 388 C441 388 419 403 382 425 C355 440 321 464 271 464 C208 464 153 419 122 359 L167 319 C193 356 219 393 265 393 C299 393 325 377 355 359 C403 331 431 317 473 317 C532 317 580 361 612 422 L568 463 Z M568 272 C538 227 514 198 473 198 C439 198 415 217 382 236 C355 250 322 274 271 274 C209 274 153 229 122 169 L167 128 C193 166 218 204 265 204 C298 204 324 188 355 169 C402 142 430 127 472 127 C533 127 580 172 612 232 L568 272 Z " />
<glyph glyph-name="notequal" unicode="&#x2260;" horiz-adv-x="669" d="M516 528 L459 551 L407 435 L147 435 L147 363 L380 363 L318 221 L147 221 L147 150 L290 150 L247 55 L304 31 L356 150 L619 150 L619 221 L384 221 L447 363 L619 363 L619 435 L474 435 L516 528 Z " />
<glyph glyph-name="lessequal" unicode="&#x2264;" horiz-adv-x="685" d="M632 102 L632 186 L241 371 L241 373 L632 557 L632 641 L169 410 L169 333 L632 102 Z M636 -10 L636 63 L164 63 L164 -10 L636 -10 Z " />
<glyph glyph-name="greaterequal" unicode="&#x2265;" horiz-adv-x="684" d="M170 641 L170 557 L561 373 L561 371 L171 186 L171 102 L634 332 L634 410 L170 641 Z M634 -10 L634 63 L165 63 L165 -10 L634 -10 Z " />
<glyph glyph-name="lozenge" unicode="&#x25ca;" horiz-adv-x="739" d="M688 359 L486 769 L388 769 L182 359 L383 -50 L481 -50 L688 359 Z M579 356 L454 104 C449 92 440 63 436 48 L432 48 C429 62 422 85 414 105 L290 362 L414 609 C422 629 429 651 434 669 L437 669 C440 652 449 628 456 609 L579 356 Z " />
<glyph glyph-name="fi" unicode="&#xfb01;" horiz-adv-x="540" d="M488 114 L562 534 L302 534 C309 593 341 628 403 626 L422 733 C287 734 202 671 180 534 L111 534 L91 420 L160 420 L106 114 L37 114 L17 0 L537 0 L557 114 L488 114 Z M594 714 L472 714 L449 585 L571 585 L594 714 Z M366 114 L228 114 L282 420 L420 420 L366 114 Z " />
<glyph glyph-name="fl" unicode="&#xfb02;" horiz-adv-x="540" d="M596 733 L434 733 C293 733 208 685 180 534 L111 534 L91 420 L160 420 L106 114 L37 114 L17 0 L536 0 L556 114 L487 114 L596 733 Z M282 420 L352 420 L372 534 L302 534 C314 619 358 626 429 626 L455 626 L365 114 L228 114 L282 420 Z " />
</font>
</svg>
