<svg xmlns="http://www.w3.org/2000/svg" viewBox="0 0 679.442 260.406"><defs><style>.cls-1 { fill: #f9f697; fill-rule: evenodd; }</style></defs><path id="Title" class="cls-1" d="M130.152 45.1c-1.02.245-.58-.014-1.6.232-2.8-6.081-4.59-9.949-7.35-16.035.56-.137.49-.045 1.05-.182l-.66-1.681c-3.27.851-6.52 1.72-9.78 2.608.08.647.16 1.294.25 1.941.47-.123.93-.317 1.41-.439a61.423 61.423 0 0 1 .73 10.064c-.01 1.928-.03 3.785-.12 5.661-.1 1.567-.15 8.679-.27 10.718a10.519 10.519 0 0 0-.53 2.069c.81.226 1.61.453 2.41.681.04-2.637 1.84-5.572 3.42-7.132q-1.065-.461-2.13-.916c-.14.112-.28.224-.41.337.06-2.638-.11-4.908-.09-8.073 1.53-.546 3.04-1.16 4.48-1.75.67 1.679.91 2.311 1.54 4.155-.7.3-1.4.607-2.09.911.38.981.77 1.961 1.15 2.942a16.552 16.552 0 0 1 9.37-4.226l-.78-1.885zm-13.7-2.221c-.08-3.6-.14-7.129-.39-10.144a77.93 77.93 0 0 1 4.14 8.427q-1.875.855-3.75 1.717zm50.81-7.693c-4.26-3.882-9.84-9.916-5.81-14.377a4.221 4.221 0 0 1 4.53-1.118c1 .415 3.34 2.629 1.44 3.144-1.25.394-1.45 2.335-.73 2.651a2.579 2.579 0 0 0 3.44-.2c1.9-1.725.95-7.783-3.95-8.444-2.31-.314-4.66.528-6.86 1.273-2.92.957-8.46 6.464-6.56 11.867 1.77 5.2 5.95 9.049 9.76 12.165 7.34 6.2 16.65 16.982 11.48 25.882a15.136 15.136 0 0 1-6.06 5.165c-7.44 3.628-17.84 4.113-22.98-3.2-4.6-6.36-2.8-16.93 5.12-20.733 3.68-1.8 8.44-1.653 10.85 1.816a7.687 7.687 0 0 1-2.4 10.8 4.61 4.61 0 0 1-1.09.536c-1.33-3.235-6.97-1.777-6.16 1.872a3.047 3.047 0 0 0 3.77 2.232 11.258 11.258 0 0 0 3.62-1.313 11.086 11.086 0 0 0 6.64-11.285c-1.16-9.527-13.02-11-19.93-5.225a17.5 17.5 0 0 0-3.94 21.657c4.25 7.438 12.83 9.512 20.93 7.807 7.29-1.539 12.65-5.171 16.33-11.948 7.49-13.468-6.05-26.232-11.44-31.025zm37.67-21.4c-1.9-1.68-4.73-2.31-7.54-2.247a32.306 32.306 0 0 0-8.04 1.6 5.866 5.866 0 0 0-1.11.336c-.01-.074-.04-.221-.06-.368-3.94.81-7.96 1.586-11.97 2.464a17.208 17.208 0 0 0 .31 2.145c1.53-.277 3.07-.477 4.6-.746 1.88 9.751 3.44 19.559 4.69 29.346a2.67 2.67 0 0 0-2.65.926 2.316 2.316 0 0 0-.08 2.67q5.91-1.181 11.84-2.28a146.512 146.512 0 0 1-4.13-16.037c1.56-.414 3.21-.762 4.87-1.032a31.077 31.077 0 0 0 6.62-1.878 9.619 9.619 0 0 0 5.14-4.176c1.43-2.474.9-5.565-.44-8.009a9.067 9.067 0 0 0-2.05-2.712zm-5.73 7.218a8.836 8.836 0 0 1-.21 3.886 7.287 7.287 0 0 1-4.33 4.022 17.4 17.4 0 0 1-4.24 1c-.92-4.993-1.6-10.026-2.03-15.027a19.412 19.412 0 0 1 4.68-.315 6.913 6.913 0 0 1 4.85 2.475 7.861 7.861 0 0 1 1.28 3.961zm30.17 2.418c.1 1.065.21 2.13.31 3.2a11.415 11.415 0 0 0-6.04 1.969c-.28-2.749-.79-5.468-1.16-8.281 1.66-.366 1.8.068 3.44-.442a3.068 3.068 0 0 0 1.3-.69c.28-.336.55-2.1.18-2.43-2.18.8-2.93.669-5.2 1.415a1.922 1.922 0 0 0-.01-.677c-.13-2.241-.6-3.987-.81-6.218-.17-1.333.4-1.333 1.28-1.521a4.363 4.363 0 0 1 2.63-.034c.97.481 2.27 2.351 1.7 3.7-.27.484 1.34.21 2.46 0-.18-2.085-.35-4.17-.6-6.245-3.48.5-6.96 1.016-10.45 1.48q-4.35.805-8.7 1.653c.07.493.14.985.22 1.478q1.7-.243 3.39-.479c1 5.364 2.6 15.694 3.86 23.057a16.316 16.316 0 0 0-2.38 5.309c.67.383 1.33.766 2 1.151 1.4-5.781 8.65-11.968 15.74-11.985-.3-2.245-.59-4.49-.89-6.735-.76.44-1.51.883-2.27 1.328zm34.57 3.766c.05-.453.17-.838.22-1.291-2.87.241-5.72.57-8.58.839a.891.891 0 0 0 .45 1.308 2.658 2.658 0 0 0 1.52.009c.03.371.06.669.09 1.041a8.634 8.634 0 0 1-.05 2.029c-.28 3.025-1.66 6.074-4.43 6.87a4.809 4.809 0 0 1-4.5-1.424 11.532 11.532 0 0 1-2.27-4.193 39.589 39.589 0 0 1-1.44-18.39c.17-1.37 1.59-6.622 3.77-7.063a2.587 2.587 0 0 1 2.54.8 4.394 4.394 0 0 1 1.41 2.789c.18 1.033.45 2.207-.29 2.953-.39.113-.71.218-1.1.332a.916.916 0 0 0 .76 1.126 3.025 3.025 0 0 0 1.6-.228q3.075-.967 6.16-1.912c-.04-.447 0-.9-.03-1.272-.56.124-1.04.241-1.6.366a11.738 11.738 0 0 0-4.95-6.742 6.187 6.187 0 0 0-3.93-.746c-7.92.854-13.4 9.16-13.72 18.742-.2 5.285 1.2 8.877 4.25 13.265a14.656 14.656 0 0 0 3.76 3.113 11.727 11.727 0 0 0 8.32.933c3.24-.773 6.34-2.186 8.34-4.688a10.568 10.568 0 0 0 2.2-8.363 9.654 9.654 0 0 1 1.5-.201zm2.33-23.862c.25 1.029.41 2.064.66 3.168.68-.8 2.17-.47 2.89.374a4.7 4.7 0 0 1 .63 2.947c-.12 6.972 1.13 24.323.65 25.184a2.116 2.116 0 0 1-2.71.737c-.53.268-.2 2.488.38 2.741a2.658 2.658 0 0 0 1.74.162c4.6-.656 7.4-.032 12-.632-.02-.372-.14-2.16-.16-2.533-1.18.076-2.36.155-3.46.23 0-9.279-.87-20.968-.84-30.248.9.088 3.01 1.148 3.62.438.37-.473-.33-2.6-.37-3.12-5.22.185-9.8.362-15.03.551zm45.39 30.153c-2.11-9.72-4.08-20.26-6.15-30.046.9.042 1.72.088 2.61.057-.19-.889-.38-1.779-.58-2.669-4.73.236-10.12.54-14.84.856-.12.977-.15 1.951-.26 2.928 1.3-.141 2.27-.263 3.4-.392a96.242 96.242 0 0 1-1.77 14.962c-.59 2.72-1.25 5.445-1.9 8.171-.59 2.349-1.1 4.694-1.68 7.044-.86.047-1.65.092-2.51.142l.15 2.683c2.59-.15 5.18-.289 7.84-.419a7.156 7.156 0 0 0-.04-2.54 7.7 7.7 0 0 0-2.53-.022c.71-3.1 1.34-6.273 1.99-9.369 2.29-.337 4.59-.739 6.88-1.133.63 3.561 1.17 7.126 1.62 10.619-1.01.19-2.11.385-3.2.657.19.814.39 1.7.58 2.516a44.765 44.765 0 0 1 14.8-1.184c-.18-1.04-.37-2.007-.63-2.97-1.42.04-2.28.065-3.78.111zm-15.7-11.632c.81-4.822 1.63-9.644 2.23-14.453a132.918 132.918 0 0 1 3.39 13.231c-1.9.378-3.8.837-5.62 1.224zm43.26 3.892c-3.65.3-1.1 4.032-2.68 5.08-3.23 2.251-5.58 2.341-9.53 2.094.31-6.2.55-12.4.87-18.678.13-2.988.25-5.976.38-9.038a2.508 2.508 0 0 1 .47-1.5c.8-.98 2.27-1.219 3.65-1.3.08-.8.16-1.594.23-2.391-4.57.245-12.9.756-17.46 1.11.02.6.03 1.269.05 1.94 1.55-.04 3.1-.076 4.56-.033-.28 9.789.27 20.082 0 29.87a2.756 2.756 0 0 0-3.05.744 2.269 2.269 0 0 0-.08 2.99c4.31-.108 7.52-.765 11.91-.82 4.71-.127 7.77-.44 12.56-.507-.23-2.762 1.7-9.853-1.88-9.559zm47.04 7.69a4.58 4.58 0 0 1-.7-3.1 155 155 0 0 1 1.02-19.384 15.656 15.656 0 0 1 1.62-6.044 1.317 1.317 0 0 1 1.55.011.963.963 0 0 0 .09-1.64 3.58 3.58 0 0 0-1.93-.555c-3.75-.2-5.62-.364-9.37-.529a2.732 2.732 0 0 0-1.56.232.814.814 0 0 0-.13 1.265c.65.1 1.21.275 1.86.378-2.24 6.4-4.78 11.307-7.07 17.275-1.94-5.973-3.6-12.152-4.96-18.243a2.25 2.25 0 0 0 1.03-1.686c-5.22-.313-9.78-.643-15.01-.872.15 1.047.22 2.093.36 3.141.75-.661 2.21-.188 2.84.72a4.7 4.7 0 0 1 .35 2.994c-.78 6.93-1.18 24.32-1.74 25.057a2.141 2.141 0 0 1-2.77.553c-.55.216-.42 2.458.12 2.764a2.674 2.674 0 0 0 1.72.326c4.64-.218 7.37.668 12 .431.01-.3.07-2.089.08-2.462-1.18-.036-2.36-.069-3.46-.1.78-8.717 1.08-19.762 1.89-28.7 2.37 8.654 4.83 16.95 7.12 25.625.94.034 2.54-.278 3.49-.24a.567.567 0 0 0-.15-.379c2.8-6.686 5.68-13.658 8.72-19.489-.34 3.5-.64 6.471-.79 11.248-.09 3.359 0 12.931-.63 12.9-2.2-.256-3.06 1.352-2.85 1.884 2.75.119 8.49.119 11.32.215-.2-.684-.44-1.969-.56-2.649-1.07.758-2.77.14-3.5-.945zm10.33-27.782c-.75 6.593-.96 13.471-1.7 20.064a1.876 1.876 0 0 0-2.11.272 1.517 1.517 0 0 0-.23 2c2.93.178 5.14-.081 8.12.126 3.2.174 5.3.128 8.55.334-.02-1.864 1.65-6.517-.78-6.506-2.49.059-.96 2.645-2.09 3.313-2.3 1.287-3.99 1.717-6.55.836.36-2.994.78-5.985 1.16-9.028 1.57-.043 3.15-.181 4.69-.369a3.616 3.616 0 0 0 1.27-.357 2.779 2.779 0 0 0 .6-2.12c-2.09.294-4.23.591-6.32.9.09-.5.12-1 .21-1.5.25-2 .5-3.992.75-6.037a1.676 1.676 0 0 1 .4-.979 3.369 3.369 0 0 1 2.52-.676 3.971 3.971 0 0 1 2.27.471c.78.562 1.57 2.435.82 3.536-.3.38 1.18.392 2.15.47.21-1.9.41-3.745.62-5.643-3.13-.2-6.31-.331-9.43-.5-3.07-.109-4.83-.071-7.9-.157-.02.451-.05.852-.08 1.3 1.04.076 2.08.19 3.06.252zm29.38 12.585c-1.45-2.615-2.38-4.876-1.71-7.662a3.93 3.93 0 0 1 2.17-3.018 4.2 4.2 0 0 1 4.65.235c.83.684 2.42 3.476.46 3.424-1.3.017-2.06 1.818-1.46 2.328a2.564 2.564 0 0 0 3.34.794c2.31-1.1 3.15-7.179-1.33-9.22-2.12-.968-4.6-.838-6.91-.756-3.04.011-6.43.235-8.48 2.234a7.456 7.456 0 0 0-1.91 6.206c.9 7.171 10.96 16.272 10.5 20.6-.43 4.308-3.16 5.616-5.39 5.786-1.91.2-4.04-1.564-4.6-3.336-.37-1.231 1.75-.971 2.22-2.727-.2-2.118-2.3-3.651-3.58-2.635-1.19.873-1.54 3.093-1.44 4.823a6.089 6.089 0 0 0 2.29 4.616c1.41 1.022 3.2 1.182 5 1.348a23.257 23.257 0 0 0 6.76.128c2.23-.306 7.37-3.213 7.54-8.373.21-4.718-6.73-12.268-8.12-14.793zm21.14 5.462c-1.18-2.267-1.92-4.22-1.29-6.59a3.356 3.356 0 0 1 1.91-2.538 3.559 3.559 0 0 1 3.95.293c.7.6 1.99 3.021.33 2.939-1.12-.012-1.79 1.514-1.29 1.963a2.174 2.174 0 0 0 2.83.744c1.99-.9 2.82-6.081-.95-7.913-1.79-.87-3.9-.808-5.87-.785-2.59-.052-5.47.068-7.27 1.734a6.381 6.381 0 0 0-1.76 5.267c.6 6.157 8.99 14.154 8.52 17.843s-2.82 4.74-4.73 4.839a4.247 4.247 0 0 1-3.87-2.953c-.29-1.062 1.52-.793 1.96-2.285-.13-1.817-1.89-3.174-3.01-2.333-1.03.721-1.38 2.612-1.33 4.1a5.216 5.216 0 0 0 1.85 4 8.435 8.435 0 0 0 4.26 1.26 19.875 19.875 0 0 0 5.79.25c1.91-.216 6.36-2.6 6.61-7.015.27-4.034-5.51-10.629-6.64-12.818zm30.72 7.523c-1.03-.161-.53-.234-1.56-.395-.26-6.688-.42-10.944-.65-17.622.57.085.48.147 1.04.233l.03-1.808c-3.32-.457-6.65-.895-9.97-1.315-.18.629-.35 1.258-.52 1.888.49.068.98.063 1.47.132a60.716 60.716 0 0 1-3.17 9.581c-.74 1.78-1.46 3.488-2.27 5.185-.68 1.412-3.44 7.966-4.32 9.806a10.141 10.141 0 0 0-1.27 1.712c.65.514 1.3 1.029 1.94 1.544 1.05-2.419 3.81-4.448 5.87-5.286l-1.62-1.661c-.17.051-.34.1-.5.155 1.06-2.414 1.77-4.576 3-7.494 1.61.079 3.23.088 4.78.09-.03 1.808-.05 2.484-.17 4.428-.76.013-1.52.028-2.27.043l-.06 3.161a16.366 16.366 0 0 1 10.22-.336v-2.041zm-11.74-7.272c1.29-3.36 2.59-6.643 3.5-9.528a78.108 78.108 0 0 1 .59 9.368c-1.36.052-2.73.105-4.09.162zm14.62 4.479c-1.7 5.022-1.33 8.858.49 13.92a13.211 13.211 0 0 0 2.71 4 11.967 11.967 0 0 0 7.85 3.168c2.7.1 5.55.238 7.94-.913a10.16 10.16 0 0 0 4.87-5.769 26.9 26.9 0 0 0 1.27-7.511c.95.18 1.81.346 2.76.528.23-.791.45-1.508.61-2.315-4.27-1.207-8.64-2.4-13.01-3.554-.12 1.117-.24 2.233-.28 3.364 1.35.239 2.62.849 4.04 1.109-.39 2.129-.77 4.186-1.14 6.242a12.764 12.764 0 0 1-1.37 4.38 4.784 4.784 0 0 1-3.81 2.422 4.891 4.891 0 0 1-4.04-2.605 11.619 11.619 0 0 1-1.05-4.65 39.657 39.657 0 0 1 3.6-18.093 8.762 8.762 0 0 1 2.41-3.448 6.487 6.487 0 0 1 6.23-1.019c2.03.746 2.16 1.379 2.54 3.347a2.742 2.742 0 0 1-1.52 2.908 8.4 8.4 0 0 1-1.53.252 2.419 2.419 0 0 0-1.57.476.9.9 0 0 0-.08 1.351 28.489 28.489 0 0 0 7.38 1.055c.98.032 2.16-.122 2.49-.971a1.669 1.669 0 0 0-.98-1.783 5.424 5.424 0 0 0-2.17-.332c1.05-1.624 2.66-7.486-2.47-8.655a17.682 17.682 0 0 0-12.22 1.036c-4.67 2.094-8.48 7.461-9.95 12.061zm59.65 41.463a9.21 9.21 0 0 1-2.5.4c-.68-.161-.57-.288-.86-1.122-.29-1.142-.59-2.285-.88-3.427a42.576 42.576 0 0 1-.92-6.5 53.749 53.749 0 0 1-.09-7.066c.16-1.418 1.38-4.97-.2-5.941-1.23-.736-2.02.235-2.46 1.821-.65 1.46-.63 3.531-1.69 3.907-3.66 1.481-6.2 1.691-9.8-.062q1.785-6.528 3.59-13.055c2.32.265 4.68.392 6.98.44a5.51 5.51 0 0 0 1.95-.256c.57-.333 1.61-2.4 1.33-2.994q-4.755-.029-9.5 0c.21-.72.41-1.439.62-2.158.79-2.912 1.57-5.823 2.36-8.734a2.553 2.553 0 0 1 .79-1.358c1-.779 2.49-.688 3.87-.464a5.9 5.9 0 0 1 3.26 1.176c1.04 1 1.81 3.921.49 5.31-.54.566 1.64.9 3.06 1.226.71-2.724 1.41-5.448 2.12-8.171q-6.915-1.46-13.85-2.811-5.835-.93-11.69-1.784c-.12.635-.25 1.27-.38 1.9q2.25.445 4.5.9c-2.45 9.561-4.18 19.721-6.59 29.212a2.784 2.784 0 0 0-3.16.052 2.263 2.263 0 0 0-.74 2.9c4.25.846 7.54.912 11.86 1.83 3.87.75 6.62 1.124 10.1 1.83l-.03.146a49.9 49.9 0 0 0 2.51 13.976c-7.08 1.575-14.37 4.111-20.27 7.986a3.318 3.318 0 0 0-.63.4 2.9 2.9 0 0 0-1.7 2.162c-.8 3.869 5.29 5.156 6.12 1.3a2.829 2.829 0 0 0-.44-2.31 68.054 68.054 0 0 1 9.44-4.274c1.72-.609 3.42-1.14 5.12-1.593a11.142 11.142 0 0 1 2.53-.64c1.3-.081.96-.006 1.48 1.188a37.515 37.515 0 0 0 4.66 7.716 27.574 27.574 0 0 0 14.43 9.58 19.432 19.432 0 0 0 11.04-.212 11.522 11.522 0 0 0 4.47-2.751 9.777 9.777 0 0 0 1.59-2.15 8.978 8.978 0 0 0 .59-1.283q.135-.339.24-.7c.07-.238.14-.482.2-.732 3.59-15.455-23.51-16.243-32.92-14.808zm28.88 16.558c-3.53 5.438-11.78 4.269-16.89 1.96-6.61-2.942-11.18-8.811-13.9-15.212 8.07-1.389 17.28-1.618 25.11 1.563 5.05 2.046 8.98 6.563 5.68 11.689zm-248.34-37.42c-.02-1.183-.03-2.335-.05-3.518-1.92.11-3.88.268-5.8.408-1.88.17-2.95.331-4.84.522.02.28.04.528.06.807.64-.044 1.28-.055 1.88-.094.07 4.113.48 8.359.55 12.471a1.139 1.139 0 0 0-1.26.333.953.953 0 0 0 .03 1.247c1.78-.121 3.09-.452 4.9-.553a.618.618 0 0 0 .51-.246.651.651 0 0 0 .05-.345.8.8 0 0 0-.12-.461.826.826 0 0 0-.51-.222 4.027 4.027 0 0 0-.61.1c-.01-1.87.02-3.741.01-5.643.95-.146 1.9-.351 2.82-.583a2.327 2.327 0 0 0 .75-.315 1.735 1.735 0 0 0 .2-1.35c-1.25.338-2.53.683-3.77 1.033.01-.313 0-.623.01-.936v-3.771a1.03 1.03 0 0 1 .16-.633 2.086 2.086 0 0 1 1.49-.608 2.4 2.4 0 0 1 1.42.118 1.891 1.891 0 0 1 .77 2.115c-.16.255.74.152 1.35.124zm19.12 15.533c-3.68-.249-5.4-3.836-5.56-6.795-.03-.685 0-1.587-.07-2.272a3.334 3.334 0 0 0-.71-2.08 2.054 2.054 0 0 0-1-.614 4.025 4.025 0 0 0 2.28-1.386 3.554 3.554 0 0 0 .29-3.362 3.482 3.482 0 0 0-.68-1.211 4.431 4.431 0 0 0-2.94-1.405 14.908 14.908 0 0 0-3.38.183 2.467 2.467 0 0 0-.47.073v-.155c-1.68.09-3.35.192-5.02.3a5.445 5.445 0 0 0 0 .9c.64-.023 1.28-.013 1.91-.033.2 4.135.26 8.275.2 12.387a1.17 1.17 0 0 0-1.14.225.969.969 0 0 0-.18 1.1c1.65-.09 3.3-.168 4.96-.236a60.578 60.578 0 0 1-.75-6.863c.66-.078 1.35-.092 2.05-.105a1.406 1.406 0 0 1 .16-.034 1.529 1.529 0 0 1 1.18 1.6c.02.81.06 1.618.04 2.428a8.882 8.882 0 0 0 1.5 5.4c1.44 1.95 3.2 3.353 7.47 3.389a8.473 8.473 0 0 0 6.96-3.134l-.75-.706c-.78 1.229-2.67 2.633-6.35 2.409zm-12.31-11.956c-.08-2.115-.07-4.2.05-6.321a6.685 6.685 0 0 1 1.93.178 2.8 2.8 0 0 1 1.83 1.279 3.217 3.217 0 0 1 .29 1.708 3.833 3.833 0 0 1-.31 1.591 3.018 3.018 0 0 1-2 1.4 7.141 7.141 0 0 1-1.79.168zm17.46-7.417a6.13 6.13 0 0 0-4.58 1.264 6.422 6.422 0 0 0-1.9 3.315 11.025 11.025 0 0 0 .13 6.132 6.563 6.563 0 0 0 1.93 3.16 4.689 4.689 0 0 0 4.02.939c1.47-.528 2.4-2.088 3.16-3.4a10.524 10.524 0 0 0 1.26-5.316c.05-3.332-2.16-5.954-4.02-6.091zm-.96 13.428a1.629 1.629 0 0 1-1.61-.808 3.341 3.341 0 0 1-.43-1.781 26.327 26.327 0 0 1 .61-7.554 4.312 4.312 0 0 1 .63-1.515 1.719 1.719 0 0 1 1.53-.716c.98.113 2.82 1.876 2.7 5.517-.09 3.114-1.73 6.583-3.43 6.86zm21.1 1.1a1.869 1.869 0 0 1-.26-1.3 64.085 64.085 0 0 1 .62-8.068 6.532 6.532 0 0 1 .73-2.5.539.539 0 0 1 .64.02.405.405 0 0 0 .06-.683 1.512 1.512 0 0 0-.8-.25c-1.54-.119-2.32-.207-3.86-.313a1.108 1.108 0 0 0-.65.082.34.34 0 0 0-.07.525c.27.049.5.127.76.176-.99 2.647-2.09 4.665-3.1 7.129-.74-2.508-1.36-5.1-1.86-7.652a.974.974 0 0 0 .45-.692c-2.16-.183-4.04-.366-6.2-.515.05.438.07.875.12 1.313a.87.87 0 0 1 1.16.329 1.975 1.975 0 0 1 .12 1.251c-.4 2.88-.74 10.124-.98 10.425a.88.88 0 0 1-1.15.2 1.07 1.07 0 0 0 .02 1.153 1.106 1.106 0 0 0 .71.153c1.92-.044 3.04.353 4.95.3.01-.125.05-.871.06-1.026l-1.43-.076c.42-3.625.65-8.225 1.08-11.942.89 3.63 1.82 7.112 2.68 10.75.39.023 1.05-.091 1.44-.065a.208.208 0 0 0-.05-.16c1.22-2.759 2.48-5.636 3.8-8.036-.17 1.454-.33 2.691-.44 4.68-.07 1.4-.14 5.389-.4 5.37a.9.9 0 0 0-1.19.757c1.13.077 3.51.133 4.67.2-.07-.287-.16-.825-.2-1.11a1.1 1.1 0 0 1-1.43-.421zM-.004 129.84c.905.3 1.809.478 2.6.745 2.478-2.563 4.956-5.159 7.435-7.673 2.261.383 4.295.7 6.217 1.1-.525 14.367-.144 29.321-.782 43.557a3.4 3.4 0 0 0-4.731 4.774c6.33 1.046 10.961.784 17.286 1.509a1.9 1.9 0 0 0 1.81-.591 2.257 2.257 0 0 0 .22-1.218 3.55 3.55 0 0 0-.45-1.855 3.065 3.065 0 0 0-1.59-.965 14.289 14.289 0 0 0-2.15-.022c.54-9.3.97-18.622 1.51-28.041.21-4.491.42-8.981.64-13.585a3.559 3.559 0 0 1 .22-1.329c2.37.377 4.86.63 7.68.882.35 1.727 2.96 6.8 2.96 6.8a20.312 20.312 0 0 0 2.6.991c1.46-3.393 1.79-8.339 2.34-11.123a335.172 335.172 0 0 1-41.366-6.555c-.778 4.248-1.67 8.358-2.449 12.599zm47.906 40.6c-.9 1.079-2.82 1.639-3.95.545-.79.285-.56 3.688.24 4.193a3.79 3.79 0 0 0 2.48.609c6.67-.07 10.63 1.318 17.29 1 0-.565-.01-3.275-.01-3.839-1.69-.03-3.39-.07-4.97-.117.32-6.538.53-13.871.73-21.316a.663.663 0 0 0 .45-.1 113.838 113.838 0 0 0 14.35-1.659 11.912 11.912 0 0 0 1.92-.466c-.32 7.794-.52 15.586-.5 23.037-1.7-.1-1.7-.1-3.39-.21-.91.9-.45 2.71.68 3.385a3.893 3.893 0 0 0 2.94.775c3.28-.135 8.25-.234 11.53-.339-.12-1.351-.12-2.593-.24-3.832-1.24.377-2.94.646-3.84-.237s.36-32.864 1-44.285c1.7-.042 3.51.017 5.2.072 0-1.694-.12-3.383-.13-4.964-4.52.162-10.73.289-15.14.305-.22 1.808-.32 3.5-.55 5.309.91-.229 1.92-.462 2.83-.7.01 5.419-.08 11.065-.29 16.713-5.09 1.064-10.28 2.048-15.36 2.829a3.741 3.741 0 0 0-1.36.417c.1-7.11.3-14.1.74-20.415 1.24.26 4.07 2.12 4.97 1.113.56-.669-.24-3.954-.24-4.745-7.23-.337-13.56-.8-20.79-1.6.23 1.595.35 3.183.58 4.891 1.01-1.062 3.05-.266 3.95 1.135a7.856 7.856 0 0 1 .58 4.546c-.87 10.452-.91 36.752-1.7 37.95zm68.97-24.854c-.04 1.621-.07 3.242-.1 4.863-2.94.213-4.75.117-8.81 2.406.1-4.185-.14-8.348-.15-12.638 2.37-.376 2.49.294 4.86-.318a4.427 4.427 0 0 0 1.92-.924c.45-.484 1.12-3.129.66-3.661-3.16 1.014-4.17.744-7.45 1.628a3.265 3.265 0 0 0 .11-1.023c.22-3.4-.13-6.089-.02-9.484-.01-2.032.78-1.968 2.02-2.161s2.6-.4 3.62.208c1.24.817 2.72 3.758 1.71 5.751-.45.71 1.81.435 3.39.2.1-3.17.21-6.34.2-9.5-4.86.482-9.71.923-14.57 1.2q-6.1.688-12.2 1.263c0 .752 0 1.5.01 2.258q2.37-.092 4.74-.2c.36 8.226.63 24.022 1 35.3a27.037 27.037 0 0 0-4.38 7.645c.87.68 1.73 1.359 2.6 2.035 3.14-8.476 14.42-16.862 24.36-16.418-.05-3.422-.09-6.843-.14-10.265-1.13.616-2.26 1.229-3.38 1.839zm41.28-24.246c.9-.208.15 14.44.05 19.419-.09 8.367.15 13.085.62 19.586a95.776 95.776 0 0 1-7.96-20.294c-1.6-5.823-3.42-10.609-4.23-17.079 1.36-.247 3.73-.487 5.08-.739-.34-1.207-1.59-2.435-1.93-3.756-8.36 1.069-14.79 1.8-23.15 2.735.11 1.8.23 3.706.24 5.513a16.21 16.21 0 0 0 2.82-.807c-.43 8.168-.52 15.968-.38 25.1.13 5.07.84 19.463.05 19.532-3.27.057-4.39 2.629-4.05 3.393 4.06-.328 12.31-1.527 16.37-2.041-.34-.983-.8-2.859-1.02-3.854a3.587 3.587 0 0 1-5.09-.651c-1.13-1.364-1.14-2.606-1.26-4.515a212.97 212.97 0 0 1-.08-29.355 48.41 48.41 0 0 1 .55-5.583 68.41 68.41 0 0 1 4.21 11.352c2.52 9.7 5.46 13.366 8.43 22.9.34 1.322 3.97 5.7 2.62 10.125 4.07-1.087 11.19-1.156 15.93-1.665-.12-1.794-.24-3.7-.35-5.609a3.674 3.674 0 0 1-1.13.233 30.543 30.543 0 0 1-1.27-8 252.38 252.38 0 0 1-.08-29.242c.11-1.931.1-3.173 1.23-4.874s3.61-2.644 5.08-1.56c.33-1.052.78-3.02 1-4.06-4.06.325-12.31.751-16.26 1.156-.34.832.8 3.201 3.96 2.644zm18.64-2.554c-.64 14.976-.14 30.395-.78 45.371a4.046 4.046 0 0 0-4.4 1.377 3.614 3.614 0 0 0-.22 4.54c6.22-.667 10.84-2.071 17.17-2.738 6.78-.825 11.18-1.731 18.07-2.514-.35-4.143 2.33-15.135-2.75-14.187-5.2 1.08-1.57 6.254-3.82 8.173-4.62 3.741-8.12 5.346-13.66 4.351.32-6.81.75-13.632 1.07-20.554a100.186 100.186 0 0 0 9.71-2.592 8.164 8.164 0 0 0 2.6-1.279c.67-.633 1.45-4.212.89-4.946-4.29 1.447-8.69 2.92-12.98 4.389.11-1.14.1-2.27.21-3.41.22-4.54.43-9.08.64-13.733a4.427 4.427 0 0 1 .67-2.329c1.13-1.587 3.16-2.139 5.08-2.45 1.58-.276 3.39-.574 4.75.193 1.69.957 3.63 4.831 2.28 7.563-.56.959 2.49.429 4.52.232.1-4.3.2-8.49.3-12.791-6.44.737-12.99 1.64-19.42 2.434-6.33.9-9.94 1.627-16.27 2.532.01 1.016.01 1.919.01 2.935 2.15-.228 4.29-.344 6.33-.563zm171.44-22.914a11.791 11.791 0 0 0 .46-1.942 12.14 12.14 0 0 0 .14-2 14.314 14.314 0 0 0-.64-4.061 18.025 18.025 0 0 0-4.52-7.446c-6.23-6.274-15.16-6.978-22.73-7.143a55.615 55.615 0 0 0-23.15 4.327 41.492 41.492 0 0 0-5.3 2.592c-.91.529-3.39 2.822-4.4 2.91-1.24.077-4.3-2.58-5.43-3.382q-2.775-1.675-5.55-3.317c-7.64-4.361-15.81-8.363-24.32-10.743a59.787 59.787 0 0 0-12.99-2.206c-1.1-.058-2.2-.08-3.31-.066-.55.007-1.11.024-1.66.05s-1.11.062-1.67.107a47.062 47.062 0 0 0-6.7 1.039c-11.07 2.563-22.79 11.534-21.17 24.134a13.965 13.965 0 0 0 6.01 9.928c2.49 1.573 7.02 3.2 10.18 1.918l.11-.009a4.8 4.8 0 0 0 4.39-4.878c-.01-5.769-8.71-5.15-9.26.33a8.861 8.861 0 0 1-6-5.211c-6.26-13.644 12.14-21.848 22.42-22.65 18.86-1.693 35.72 8.276 51.23 17.923-11.84 10.778-17.22 26.113-20.45 41.635-1.45 6.7-2.9 13.4-4.46 20.114-1.96-11.791-3.68-24.034-5.64-35.582q1.755.039 3.51.088c-.12-1.351-.35-2.7-.58-4.044-6.55.371-9.6-.149-16.16.358.35 1.334.69 2.668 1.03 4-3.03 8.537-7.14 32.306-9.59 43.329-2.53-13.7-4.6-28.337-6.9-41.929 1.21-.022 2.41-.042 3.62-.059-.23-1.338-.46-2.675-.58-4.021q-10.335.969-20.67 2.147c-.19 1.485-.37 2.971-.55 4.457q3.27-.6 6.55-1.181a267.833 267.833 0 0 1 7.92 45.6c-1.58.36-3.16.723-4.63 1.192.12 1.232.35 2.454.58 3.789a59.447 59.447 0 0 1 21.46-2.675c-.31-1.486-.61-2.972-.92-4.457q-.735.048-1.47.1c3.92-11.554 4.8-22.784 7.92-35.049a316.4 316.4 0 0 1 5.64 35.16c-1.47.3-3.05.605-4.63 1.031l.69 3.8a56.458 56.458 0 0 1 21.35-1.809l-.81-4.5q-2.37.046-4.74.115c1.46-3.2 2.01-8.748 2.34-10.224 2.12-9.535 3.79-19.278 6.36-28.681 2.46-8.5 6.17-16.662 11.69-23.482 1.01-1.342 2.25-2.676 3.38-3.895.56-.554 2.13-2.549 2.93-2.64.33-.1 2.6 1.545 2.6 1.547 4.87 3.1 9.73 6.052 14.94 8.794 12.56 6.121 36.64 12.405 42.13-3.228zm-55.84-10.034c8.34-5.686 18.51-8.078 28.67-8.031 7.35.048 21.47 1.179 23.2 11.753 1.61 10.415-11.38 11.86-18.95 11.333-11.87-1.176-23.07-8.826-32.92-15.055zm188.28 126.637c-.85 7.306 6.38 10.618 11.54 8.751 1.01 5.466-.92 11.412-3.75 16.225-7.31 11.49-20.86 16.491-34.2 14.318-26.48-4.118-39.74-31.584-50.62-53.013l-3.19-6.131c13.32-8.32 23.14-20.133 24.87-34.948 1.9-16.235-6.04-25.8-12.97-29.9a23.188 23.188 0 0 0-6.06-2.764c5.06-1.055 9.63-3.2 12.98-7.126 4.97-5.59 5.97-14.114 4.36-21.5a25.635 25.635 0 0 0-3.11-8.592c-3.45-5.75-9.82-9.373-16.6-11.193-6.59-1.8-13.61-1.588-20.41-1.558a13.885 13.885 0 0 0-2.89.074l.12-1.014-28.75-2.327a55.558 55.558 0 0 0-.89 5.862c3.86.45 7.69 1.1 11.55 1.553-1.88 17.883-4.49 40.206-7.34 61.062-21.07-8.218-45-.725-55.25 20.09-11.1 22.772 4.74 43.957 33.02 46.845 18.89 2.2 41.76-1.505 60.1-10.473 14.2 28.193 29.06 59.549 62.17 63.411 13.2 1.54 26.9-3.032 35.9-13.09 8.98-9.856 13.06-25.424 5.36-37.02-2.95-6.514-14.89-6.467-15.94 2.462zm-132.68-11.366c-5.19.422-15.6-.38-25.69-3.821a35.392 35.392 0 0 1-7.39-3.741c-6.86-4.709-11.29-12.631-10.29-21.155 1.86-14.182 15.18-26 29.32-27.229a38.29 38.29 0 0 1 20.19 3.385c-1.12 7.891-2.18 15.173-3.39 22.025a6.368 6.368 0 0 0-9.48 7.123c10.38 1 16.58 2.551 26.96 3.557-.03-6.792.04-14.395.53-22.155a78.725 78.725 0 0 1 10.97 13.622c2.46 3.579 4.67 7.54 7.09 11.525-9.51 9.18-22.42 15.696-38.82 16.868zm24.36-76.355a103.894 103.894 0 0 1 13.91.8c2.23.26 4.46.521 6.72.579 6.47 2.811 11.54 12.248 10.14 24.222a56.932 56.932 0 0 1-10.58 27.152c-6.15-10.8-13.36-21.306-22.96-29.009.7-7.731 1.64-15.849 2.77-23.74zm18.85-43.262c4.5 1.965 8.64 5.328 10.15 10.03 1.22 3.639.97 7.519.32 11.351-.61 3.426-1.24 7.055-3.24 10.113-2.98 4.383-8.21 6.859-13.43 7.484a47.44 47.44 0 0 1-12.08-.586c2.09-14.362 4.56-28.473 6.85-40.96a43.443 43.443 0 0 1 11.43 2.572zm88.27 80.49c-7.36-.364-3.39 8.229-6.85 10.008-7.13 3.852-11.9 3.36-19.72 1.645 2.59-13.006 5.02-26.033 7.63-39.2 1.19-6.277 2.37-12.554 3.58-18.989a5.678 5.678 0 0 1 1.38-3.03c1.86-1.837 4.77-1.921 7.48-1.711l1.17-4.991c-8.92-.739-25.16-2.159-34.07-2.9-.18 1.264-.37 2.686-.57 4.108 3.01.412 6.01.824 8.83 1.371-3.78 20.569-6.14 42.46-9.93 63.028a5.4 5.4 0 0 0-6.36.577 5.053 5.053 0 0 0-1.19 6.277c8.7 1.192 15.36.816 24.21 2.029 9.51 1.141 15.76 1.354 25.43 2.518.33-5.903 6.18-20.397-1.02-20.736zm53.83 21.114c-1.77-21.138-2.91-43.979-4.35-65.247 1.73.317 3.31.62 5.06.778-.15-1.935-.29-3.87-.44-5.8-9.23-.675-19.74-1.464-28.97-2.139-.51 2.036-.85 4.087-1.36 6.123 2.56.071 4.48.084 6.72.127a211.916 211.916 0 0 1-7.79 31.162c-1.94 5.589-4.05 11.163-6.16 16.737-1.87 4.795-3.59 9.6-5.47 14.4l-5.08-.46q-.27 2.859-.52 5.718l15.89 1.437c.77-1.372.65-5.386.65-5.386s-3.58-1.125-5.06-.777c2.34-6.355 4.53-12.882 6.71-19.25 4.66-.06 9.32-.279 13.99-.5.26 7.71.37 15.4.33 22.928-2.1.131-4.35.247-6.62.523.16 1.776.31 3.71.47 5.486a91.3 91.3 0 0 1 30.17 1.286c-.12-2.252-.25-4.346-.54-6.454zm-28.16-28.807c2.99-9.979 5.97-19.957 8.48-29.979 1.39 9.414 2.44 19.116 2.99 28.934-3.87.295-7.76.744-11.47 1.049zm82.89-41.547c1.24-.359 3.39 20.131 4.35 27.085 1.71 11.678 3.08 18.242 5.18 27.274-6.11-8.874-11.1-16.8-15.76-27.68-3.54-7.993-7.17-14.518-9.74-23.475 1.87-.46 5.17-.99 7.04-1.45-.75-1.657-2.79-3.269-3.56-5.083-11.61 2.183-20.57 3.779-32.18 5.961.56 2.5 1.15 5.147 1.55 7.666a22.361 22.361 0 0 0 3.82-1.418c1.18 11.439 2.77 22.329 4.97 35.059 1.3 7.061 5.47 27.066 4.37 27.243-4.62.417-5.64 4.133-4.99 5.16 5.67-.909 17.08-3.381 22.72-4.447-.7-1.341-1.76-3.917-2.3-5.284-1.77 2.06-5.41 1.513-7.34-.439-1.91-1.795-2.18-3.527-2.77-6.179a299.783 299.783 0 0 1-6.57-40.942 65.906 65.906 0 0 1-.45-7.843c3.1 4.189 6.72 11.684 8.46 15.444 5.69 13.3 10.67 18.157 16.96 31.2.78 1.814 6.88 7.62 5.95 13.907 5.52-1.854 15.6-2.5 22.22-3.559-.56-2.494-1.15-5.146-1.73-7.8a4.919 4.919 0 0 1-1.55.41 45.19 45.19 0 0 1-3.56-11.06 357.932 357.932 0 0 1-6.54-40.785c-.27-2.7-.55-4.434.67-6.891s4.54-3.957 6.87-2.553c.24-1.493.45-4.271.53-5.739-5.7.751-17.3 1.964-22.82 2.847-.29 1.185 1.84 4.397 6.2 3.375zm84.27 48.092a14.718 14.718 0 0 1-2.73-6.533l-2.46-10.279c-1.03-3.718-1.92-7.618-4.86-10.091a12.484 12.484 0 0 0-9.6-2.794c-3 .436-6.67.649-9.63 1.4q2.22-6.366 3.89-13.137c.72-2.843 2.11-5.463 2.96-8.488 1.48-5.372 4.1-10.588 7.08-10.055s4.17 6.485 1.36 8.184c-1.65.884-2.62.864-3 2.691a3.552 3.552 0 0 0 2.41 4.324 6.8 6.8 0 0 0 3.92-.732c1.83-.749 3.63-1.655 4.35-3.371a7.565 7.565 0 0 0 .33-4.4c-.38-3.653-.97-7.756-3.73-10.1-2.58-2.2-6.46-2.283-9.48-.877a15.364 15.364 0 0 0-6.73 6.942 56.406 56.406 0 0 0-3.32 9.346 209.358 209.358 0 0 1-7.26 19.911c-1.34-10.281-2.49-20.427-3.19-29.672 1.78.063 6.1 2.013 7.13.252.67-.9-1.1-5.32-1.26-6.425-10.15 1.154-19.07 1.967-29.22 3.121.64 2.164 1.12 4.35 1.76 6.514 1.21-1.627 4.19-1.094 5.73.616 1.38 1.733 1.55 3.966 1.71 6.2.87 14.861 6.07 51.655 5.19 53.394-1.01 1.92-3.58 3.1-5.34 2.067-1.04.634-.03 5.323 1.17 5.793 1.06.651 2.3.31 3.56.126 9.23-1.986 15.01-1.054 24.21-3.2-.09-.632-.64-4.419-.76-5.208l-6.94 1.01c-.65-6.674-1.42-14.137-2.34-21.578 1.39-2.62 2.6-5.374 3.82-8.129a6.786 6.786 0 0 1 2.11-.953c5.78-1.323 7.6 3.408 7.94 5.776.6 4.1 1.2 8.206 1.77 12.152.51 3.472 1.04 7.1 3.34 9.667 2.16 2.588 5.39 3.729 8.82 4.036a40.8 40.8 0 0 0 9.83-1.108c1.25-.342 2.82-.571 3.79-1.679.99-.95 1.19-2.913-.03-3.541-1.89 1.419-4.76.542-6.3-1.168z"/></svg>