<svg xmlns="http://www.w3.org/2000/svg" viewBox="0 0 739.504 97.59"><defs><style>.cls-1 { fill: #f9f697; fill-rule: evenodd; }</style></defs><path id="thank_you_for_making_our_year_a_great_one" data-name="thank you for making our year a great one" class="cls-1" d="M.011 34.89c.68-.01 1.35-.1 1.947-.1 1.549-2.4 3.1-4.81 4.671-7.13 1.679-.22 3.19-.42 4.628-.53.929 10.27 2.571 20.77 3.412 30.96a2.928 2.928 0 0 0-3.139 1.15 2.6 2.6 0 0 0 .177 3.23c4.638-.62 7.951-1.71 12.593-2.3a1.6 1.6 0 0 0 1.254-.73 1.677 1.677 0 0 0 .053-.9 2.311 2.311 0 0 0-.5-1.24 2.062 2.062 0 0 0-1.233-.41 10.624 10.624 0 0 0-1.556.37c-.442-6.68-.964-13.35-1.409-20.11-.245-3.21-.488-6.43-.741-9.72a2.488 2.488 0 0 1 .045-.98c1.773-.15 3.62-.38 5.719-.65a30.321 30.321 0 0 0 2.765 4.36 16.071 16.071 0 0 0 2 .32c.781-2.62.6-6.16.769-8.21-10.3.95-20.582 2.05-30.875 3.12-.162 3.19-.42 6.31-.58 9.5zm41.76 19.44c-.568.88-1.92 1.53-2.838.91-.552.31-.091 2.69.529 2.94a2.8 2.8 0 0 0 1.863.1c4.854-.92 7.862-.39 12.718-1.28-.047-.4-.271-2.32-.318-2.72-1.246.15-2.491.29-3.654.43-.3-4.66-.748-9.88-1.2-15.17a.523.523 0 0 0 .324-.12c3.563-.67 7.016-1.55 10.462-2.51a10.33 10.33 0 0 0 1.385-.48c.375 5.54.836 11.08 1.435 16.36l-2.51.12a1.623 1.623 0 0 0 .773 2.34 2.962 2.962 0 0 0 2.221.32c2.4-.36 6.05-.77 8.457-1.03-.189-.95-.286-1.83-.466-2.7-.887.34-2.116.64-2.852.07s-2.262-23.31-2.652-31.45c1.262-.14 2.616-.21 3.887-.26-.132-1.2-.348-2.39-.47-3.51-3.369.36-8 .88-11.284 1.26-.022 1.3.03 2.5.008 3.8.655-.23 1.393-.48 2.048-.72.435 3.84.8 7.85 1.09 11.87-3.686 1.14-7.451 2.31-11.138 3.39a2.932 2.932 0 0 0-.966.44c-.511-5.05-.929-10.02-1.121-14.54.944.05 3.194 1.09 3.783.29.364-.53-.494-2.78-.56-3.34-5.4.47-10.136.88-15.55 1.29.306 1.1.527 2.21.842 3.39.658-.89 2.23-.6 3.018.28a5.291 5.291 0 0 1 .807 3.14c.225 7.52 2.402 26.14 1.929 27.09zm58.925-5.76c-2.95-10.31-5.759-21.51-8.592-31.9.934-.02 1.784-.02 2.71-.11-.264-.95-.529-1.89-.793-2.83-4.881.56-10.435 1.22-15.313 1.81-.058 1.06-.032 2.11-.09 3.17 1.338-.22 2.339-.41 3.509-.61a103.773 103.773 0 0 1-.926 16.2c-.449 2.96-.978 5.93-1.5 8.9-.485 2.56-.886 5.11-1.368 7.67l-2.659.29.312 2.88c2.74-.3 5.48-.59 8.3-.89a7.753 7.753 0 0 0-.2-2.73 8.036 8.036 0 0 0-2.677.12c.566-3.38 1.044-6.82 1.533-10.19 2.4-.5 4.782-1.07 7.171-1.64.894 3.79 1.7 7.59 2.419 11.32-1.064.27-2.211.55-3.35.91.257.87.522 1.81.779 2.67a48.676 48.676 0 0 1 15.625-2.29c-.275-1.1-.542-2.13-.893-3.15-1.502.15-2.417.24-3.997.4zm-17.344-11.5c.548-5.24 1.1-10.48 1.413-15.69 1.659 4.52 3.159 9.22 4.413 14.03-1.974.52-3.934 1.13-5.826 1.66zm46.864-23.56c.667-.14.968 10.25 1.19 13.79.427 5.94.886 9.29 1.62 13.91a75.068 75.068 0 0 1-7.161-14.48c-1.549-4.14-3.209-7.55-4.215-12.15 1-.17 2.773-.32 3.777-.49-.33-.86-1.343-1.74-1.681-2.68-6.227.71-11.026 1.23-17.248 1.99.206 1.27.42 2.62.542 3.91a12.737 12.737 0 0 0 2.066-.6c.208 5.8.648 11.33 1.344 17.82.425 3.59 1.892 13.8 1.31 13.86-2.428.06-3.09 1.91-2.787 2.44 2.991-.28 9.028-1.17 12.014-1.52-.315-.7-.772-2.03-1-2.74-1 .98-2.882.59-3.819-.46a4.951 4.951 0 0 1-1.221-3.2 144.78 144.78 0 0 1-1.94-20.83 31.179 31.179 0 0 1 .056-3.97 50.677 50.677 0 0 1 3.877 8.05c2.491 6.89 4.92 9.49 7.712 16.27.337.94 3.3 4.07 2.57 7.21 2.95-.75 8.23-.72 11.722-1.01-.191-1.28-.389-2.64-.587-3.99a2.769 2.769 0 0 1-.826.15 22.241 22.241 0 0 1-1.406-5.7 172.388 172.388 0 0 1-1.761-20.77 5.259 5.259 0 0 1 .64-3.44 2.843 2.843 0 0 1 3.731-1.04c.192-.75.417-2.14.526-2.87-3.043.17-9.228.37-12.179.63-.208.58.789 2.27 3.134 1.91zm44.06 28.59a7.1 7.1 0 0 1-1.16-3.38c-.292-1.76-.584-3.51-.876-5.27-.388-1.9-.7-3.9-2.141-5.25a6.679 6.679 0 0 0-4.928-1.74c-1.593.12-3.533.1-5.114.38q1.409-3.135 2.554-6.48c.487-1.41 1.323-2.69 1.891-4.18.989-2.65 2.586-5.19 4.138-4.82s1.937 3.41.384 4.17c-.9.39-1.414.34-1.687 1.25a1.759 1.759 0 0 0 1.093 2.26 3.773 3.773 0 0 0 2.1-.23 3.861 3.861 0 0 0 2.427-1.54 3.641 3.641 0 0 0 .353-2.2c-.045-1.86-.191-3.94-1.552-5.22a4.917 4.917 0 0 0-4.974-.77 8.061 8.061 0 0 0-3.831 3.26 28.347 28.347 0 0 0-2.114 4.6q-2.039 5-4.58 9.79c-.317-5.23-.543-10.37-.562-15.05.94.09 3.144 1.21 3.758.36.392-.44-.373-2.72-.416-3.28-5.414.25-10.159.37-15.573.65.26 1.11.435 2.23.695 3.34.7-.79 2.257-.43 3.007.48a5.226 5.226 0 0 1 .677 3.18c-.079 7.51 1.333 26.21.815 27.06a2.238 2.238 0 0 1-2.864.87c-.563.29-.2 2.69.408 2.96a2.767 2.767 0 0 0 1.856.17c4.882-.71 7.863-.06 12.74-.83-.025-.32-.17-2.25-.2-2.65-1.249.1-2.5.19-3.664.28-.093-3.38-.216-7.17-.422-10.94.827-1.28 1.566-2.63 2.306-3.97a3.415 3.415 0 0 1 1.148-.41 3.214 3.214 0 0 1 3.941 3.17c.155 2.09.309 4.18.458 6.18.13 1.77.267 3.61 1.373 4.98a6.543 6.543 0 0 0 4.439 2.34 21.984 21.984 0 0 0 5.172-.2 3.921 3.921 0 0 0 2.041-.71 1.132 1.132 0 0 0 .128-1.78 2.657 2.657 0 0 1-3.239-.83zm49.206-37.24c-2.024.19-5.251.03-7.19.22-.055.56-.105 1.21-.155 1.86.6.05 1.275.09 1.87.14-2.843 3.86-4.907 7.84-7.386 11.77-1.79-3.37-4.063-7.67-5.577-10.41 1.022.1 1.96.21 2.981.32.639-.69 1.09-3.21.156-3.24-2.98-.24-12.413.81-15.368 1 .145.96.289 1.91.349 2.88 1.072-.47 3.226.12 3.226.12a35.651 35.651 0 0 1 2.88 4.26c1.5 3.78 4.4 8.69 5.964 12.47a13.193 13.193 0 0 0-.069 3.15q.218 5.91.437 11.82a2.14 2.14 0 0 0-2.221.61 1.812 1.812 0 0 0-.293 2.12c3.658-.3 8.729-.75 12.472-1.03-.127-.8-.167-1.53-.294-2.33-.667.04-1.333.08-2 .11-.42-4.57-.837-9.06-1.259-13.63a13.4 13.4 0 0 1 .108-4.12 13.693 13.693 0 0 1 1.511-3.14c1.929-3.25 3.945-6.58 5.886-9.91a8.234 8.234 0 0 1 1.422-1.92 2.531 2.531 0 0 1 2.343-.53c.039-.89.083-1.69.207-2.59zm19.965-2.38c-5 .05-8.917 1.44-11.251 3.97a16.848 16.848 0 0 0-4.3 8.83 29.054 29.054 0 0 0 1.2 15.81 16.793 16.793 0 0 0 5.4 7.88c2.681 1.89 7.329 3.21 10.44 1.78 3.686-1.6 5.77-5.8 7.472-9.33 2.238-4.76 2.423-8.71 2.218-13.94-.502-8.6-6.512-14.97-11.182-15zm-.17 34.8a4.148 4.148 0 0 1-4.264-1.82 8.784 8.784 0 0 1-1.379-4.53 69.271 69.271 0 0 1 .368-19.59 11.239 11.239 0 0 1 1.341-4.01 4.255 4.255 0 0 1 3.715-2.1c2.463.13 7.375 4.36 7.752 13.77.321 8.04-3.236 17.29-7.533 18.28zm46.546-35.35a2.826 2.826 0 0 0-1.615-.28c-2.2.14-5.07.3-7.266.44a1.93 1.93 0 0 0 .743 2.31c.777.54 1.9 1.48 2.644.81a130.763 130.763 0 0 1 0 24.32 11.871 11.871 0 0 1-1.118 4.86 4.962 4.962 0 0 1-3.839 3.01c-8.818.92-8.422-7.14-8.746-22.03a103.014 103.014 0 0 1 .655-10.89l3.725.12c-.027-.88-.053-1.69-.078-2.49a92.69 92.69 0 0 1-17.4 1.08c.043 1.13 0 2.34.05 3.55 1.173-.29 2.43-.58 3.6-.94-.15 7.49-.374 15.07.487 22.53a21.253 21.253 0 0 0 1.223 5.99 9.168 9.168 0 0 0 3.927 4.69c2.043 1.14 4.465 1.22 6.807 1.39a34.517 34.517 0 0 0 5.75-.18 9.971 9.971 0 0 0 5.107-2.32 14.632 14.632 0 0 0 4-9.93c-.128-8.05-.478-14.89-.523-23.02.756-.18.836-.34 1.592-.52.417-.25.704-2.27.275-2.5zm46.33 7.5c.059-3.05.119-6.03.179-9.09-4.822.12-9.727.33-14.548.48-4.735.22-7.437.51-12.17.75.013.73.025 1.37.038 2.1 1.605-.03 3.212.02 4.733-.01-.331 10.63.187 21.65-.139 32.28a2.876 2.876 0 0 0-3.244.7 2.479 2.479 0 0 0-.109 3.22c4.584-.08 7.992-.77 12.661-.84a1.551 1.551 0 0 0 1.327-.58 1.515 1.515 0 0 0 .156-.88 1.99 1.99 0 0 0-.266-1.21 2.045 2.045 0 0 0-1.26-.62 9.478 9.478 0 0 0-1.584.18c.184-4.83.454-9.67.64-14.58a71.017 71.017 0 0 0 7.206-1.21 5.63 5.63 0 0 0 1.925-.75c.5-.4 1.064-2.9.638-3.46-3.189.75-6.459 1.51-9.643 2.28.073-.81.062-1.61.136-2.42.125-3.22.251-6.44.377-9.74a2.807 2.807 0 0 1 .486-1.62c.831-1.05 2.35-1.31 3.786-1.41a5.961 5.961 0 0 1 3.555.44c1.276.8 2.737 3.68 1.742 5.54-.415.65 1.86.47 3.378.45zM356.384.01c-4.993-.16-8.968 1.07-11.406 3.49a16.88 16.88 0 0 0-4.675 8.64 29.078 29.078 0 0 0 .523 15.85 16.808 16.808 0 0 0 5.061 8.1c2.6 2 7.183 3.52 10.351 2.23 3.751-1.45 6.01-5.55 7.86-9.01 2.439-4.66 2.792-8.6 2.809-13.83-.131-8.62-5.863-15.23-10.523-15.47zm-1.652 34.77a4.162 4.162 0 0 1-4.18-2.01 8.738 8.738 0 0 1-1.185-4.58 69.3 69.3 0 0 1 1.2-19.56 11.312 11.312 0 0 1 1.51-3.95 4.245 4.245 0 0 1 3.8-1.93c2.455.23 7.181 4.67 7.157 14.08-.021 8.05-3.967 17.14-8.302 17.95zm45.582 1.23a7.272 7.272 0 0 1-.87-3.48c-.14-1.77-.28-3.54-.42-5.32-.13-1.93-.35-3.95-1.67-5.42a4.793 4.793 0 0 0-2.5-1.64 10.233 10.233 0 0 0 5.86-3.53c1.88-2.39 1.86-5.77.89-8.6a9.84 9.84 0 0 0-1.63-3.25 11.321 11.321 0 0 0-7.3-3.73 32.451 32.451 0 0 0-8.464.23 5.35 5.35 0 0 0-1.185.15v-.4c-4.146.12-8.376.17-12.6.31a21.36 21.36 0 0 0-.1 2.33c1.606.01 3.211.1 4.816.11.1 10.7-.142 21.41-.711 32.02a2.8 2.8 0 0 0-2.924.47 2.533 2.533 0 0 0-.6 2.81q6.378-.075 12.757-.14a159.325 159.325 0 0 1-1.334-17.8c1.68-.15 3.444-.21 5.207-.19.167 0 .335 0 .5.01 2.346.43 2.816 3.09 2.8 4.22-.027 2.09-.053 4.18-.078 6.19-.023 1.77-.045 3.62.937 5.08a6.811 6.811 0 0 0 4.219 2.72 22.66 22.66 0 0 0 5.16.24 3.72 3.72 0 0 0 2.1-.53 1.128 1.128 0 0 0 .28-1.76 2.656 2.656 0 0 1-3.15-1.1zm-18.047-16.73c-.033-5.48.185-10.95.659-16.33a19.219 19.219 0 0 1 4.812.53 7.189 7.189 0 0 1 4.516 3.51 8.806 8.806 0 0 1 .62 4.44 9.927 9.927 0 0 1-.9 4.09 7.553 7.553 0 0 1-5.168 3.48 17.352 17.352 0 0 1-4.539.28zm77.817 17.66a5.018 5.018 0 0 1-.79-3.34 175.731 175.731 0 0 1 .81-20.9 17.537 17.537 0 0 1 1.61-6.55 1.335 1.335 0 0 1 1.61-.01 1.064 1.064 0 0 0 .07-1.77 3.52 3.52 0 0 0-2.01-.56c-3.89-.16-5.83-.31-9.72-.45a2.7 2.7 0 0 0-1.61.27.9.9 0 0 0-.14 1.36c.68.11 1.26.29 1.94.39-2.28 6.93-4.9 12.23-7.3 18.68-2.05-6.43-3.78-13.09-5.19-19.66a2.418 2.418 0 0 0 1.07-1.81c-5.4-.33-10.13-.71-15.54-1.01.14 1.13.2 2.26.34 3.39.78-.7 2.29-.18 2.94.8a5.223 5.223 0 0 1 .33 3.23c-.87 7.47-1.45 26.21-2.06 27a2.231 2.231 0 0 1-2.93.57c-.59.22-.49 2.64.09 2.98a2.838 2.838 0 0 0 1.82.37c4.93-.2 7.82.77 12.75.52.01-.32.07-2.25.08-2.66-1.25-.03-2.5-.07-3.67-.11.86-9.39 1.21-21.3 2.09-30.93 2.43 9.33 5.01 18.27 7.46 27.61 1 .03 2.68-.31 3.69-.28a.662.662 0 0 0-.16-.41c2.93-7.23 5.89-14.77 8.99-21.1-.31 3.78-.6 6.99-.71 12.14-.05 3.62.15 13.94-.52 13.91-2.32-.25-3.22 1.49-2.99 2.07 2.91.1 9.01.01 12.01.06-.22-.74-.5-2.12-.63-2.85-1.12.84-2.94.21-3.73-.95zm32.49 2.44c-1.37-10.63-2.47-22.13-3.72-32.83.92.13 1.76.25 2.69.3-.12-.97-.24-1.95-.36-2.92-4.9-.17-10.49-.35-15.39-.49-.22 1.04-.35 2.08-.56 3.12 1.35-.02 2.37-.06 3.55-.08a104.436 104.436 0 0 1-3.33 15.88c-.88 2.86-1.85 5.72-2.81 8.57-.87 2.46-1.64 4.93-2.5 7.39-.92-.04-1.75-.08-2.67-.12-.04.97-.08 1.93-.12 2.9 2.75.11 5.5.23 8.33.36a7.688 7.688 0 0 0 .21-2.73 7.977 7.977 0 0 0-2.66-.28c1.06-3.26 2.05-6.59 3.03-9.85 2.44-.13 4.88-.34 7.33-.55.31 3.88.55 7.76.7 11.56-1.09.11-2.27.21-3.45.4.13.89.25 1.86.37 2.75a48.581 48.581 0 0 1 15.78.07c-.11-1.13-.22-2.19-.41-3.24-1.51-.08-2.42-.13-4.01-.21zm-15.41-13.96c1.32-5.1 2.66-10.19 3.74-15.3.96 4.72 1.74 9.59 2.26 14.53-2.03.22-4.06.53-6 .77zm52.27 15.88a7.236 7.236 0 0 1-.69-3.52c-.05-1.77-.1-3.55-.15-5.33-.13-1.94-.17-3.96-1.41-5.49a6.7 6.7 0 0 0-4.65-2.4c-1.59-.1-3.51-.38-5.11-.31q1.815-2.91 3.4-6.08c.68-1.33 1.68-2.48 2.44-3.88 1.34-2.5 3.26-4.8 4.75-4.22s1.46 3.65-.18 4.19c-.95.26-1.45.15-1.84 1.01a1.766 1.766 0 0 0 .77 2.39 5.531 5.531 0 0 0 4.72-1.15 3.591 3.591 0 0 0 .65-2.13c.21-1.85.35-3.93-.83-5.38a4.918 4.918 0 0 0-4.82-1.44 8.118 8.118 0 0 0-4.24 2.71 29.08 29.08 0 0 0-2.71 4.27q-2.7 4.68-5.86 9.08c.39-5.22.86-10.35 1.48-14.99.92.22 2.95 1.63 3.67.87.45-.38 0-2.74.03-3.31-5.39-.48-10.11-1-15.51-1.46.11 1.14.13 2.27.24 3.4.8-.68 2.29-.11 2.91.89a5.178 5.178 0 0 1 .24 3.24c-1.09 7.43-2.23 26.15-2.86 26.92a2.237 2.237 0 0 1-2.95.48c-.6.21-.56 2.63 0 2.98a2.766 2.766 0 0 0 1.82.42c4.93-.04 7.79 1.01 12.73.9.02-.32.13-2.25.16-2.65-1.25-.07-2.5-.15-3.67-.22.37-3.36.76-7.13 1.06-10.9 1-1.15 1.91-2.38 2.82-3.62a3.9 3.9 0 0 1 1.2-.25 3.218 3.218 0 0 1 3.47 3.68c-.13 2.09-.26 4.18-.38 6.19-.11 1.76-.23 3.61.68 5.12a6.625 6.625 0 0 0 4.08 2.92 21.957 21.957 0 0 0 5.15.49 3.84 3.84 0 0 0 2.12-.42 1.139 1.139 0 0 0 .37-1.75 2.662 2.662 0 0 1-3.1-1.25zm10.15-34.33c.09 1.14.1 2.27.18 3.48.82-.75 2.3-.16 2.91.85a5.287 5.287 0 0 1 .19 3.24c-1.19 7.42-2.58 26.12-3.23 26.96-.72.76-2.17 1.14-2.95.36-.6.21-.6 2.63-.04 2.99a2.789 2.789 0 0 0 1.81.44c4.93.02 7.78 1.12 12.71 1.16.03-.4.17-2.33.2-2.73-1.25-.09-2.5-.19-3.66-.27 1.39-9.9 2.23-22.51 3.63-32.42.92.23 2.93 1.67 3.66 1 .45-.45.04-2.82.08-3.38-5.39-.56-10.11-1.06-15.49-1.68zm43.71 6.36c.68-.02-.79 10.27-1.18 13.79-.59 5.93-.71 9.31-.77 13.99a75.354 75.354 0 0 1-4.59-15.49c-.82-4.35-1.87-7.99-2.08-12.69 1.02 0 2.79.15 3.81.15-.18-.9-1.03-1.94-1.2-2.92-6.26-.36-11.07-.66-17.33-.98-.01 1.29-.03 2.66-.13 3.94a11.316 11.316 0 0 0 2.14-.24c-.79 5.76-1.3 11.29-1.72 17.79-.19 3.62-.49 13.93-1.07 13.88-2.4-.34-3.37 1.36-3.16 1.94 2.99.23 9.09.38 12.09.54-.19-.74-.41-2.13-.52-2.86-1.15.79-2.94.08-3.68-1.1a4.916 4.916 0 0 1-.66-3.37 144.237 144.237 0 0 1 1.64-20.86 29.244 29.244 0 0 1 .73-3.89 50.533 50.533 0 0 1 2.45 8.59c1.28 7.2 3.22 10.19 4.82 17.34.17.99 2.56 4.58 1.3 7.54 3.04-.23 8.23.69 11.72 1 .03-1.29.07-2.66.1-4.03a2.584 2.584 0 0 1-.84.01 22.292 22.292 0 0 1-.41-5.85 171.861 171.861 0 0 1 1.8-20.77 5.329 5.329 0 0 1 1.22-3.29 2.864 2.864 0 0 1 3.86-.39c.31-.69.77-2.03 1-2.73-3.02-.36-9.15-1.21-12.1-1.46-.3.54.39 2.38 2.76 2.42zm8.52 15.85c-1.42 5.53-.77 9.63 1.53 14.92a13.823 13.823 0 0 0 3.15 4.09 12.475 12.475 0 0 0 8.55 2.74c2.86-.14 5.89-.25 8.3-1.71a10.946 10.946 0 0 0 4.61-6.66 29.549 29.549 0 0 0 .64-8.18c1.01.1 1.93.19 2.93.29.17-.87.34-1.67.43-2.55-4.57-.86-9.22-1.72-13.87-2.57-.03 1.21-.06 2.42-.01 3.64 1.42.13 2.81.67 4.31.82-.22 2.32-.44 4.56-.66 6.81a13.994 13.994 0 0 1-1.06 4.83 5.064 5.064 0 0 1-3.81 2.94 5.115 5.115 0 0 1-4.47-2.44 12.586 12.586 0 0 1-1.47-4.91 44.016 44.016 0 0 1 2.35-19.74 9.637 9.637 0 0 1 2.23-3.92 6.609 6.609 0 0 1 6.36-1.65c2.15.61 2.34 1.27 2.9 3.35a3.043 3.043 0 0 1-1.34 3.27 8.888 8.888 0 0 1-1.56.41 2.52 2.52 0 0 0-1.59.65 1 1 0 0 0 .03 1.46 28.1 28.1 0 0 0 7.75.44c1.02-.06 2.23-.35 2.5-1.29a1.824 1.824 0 0 0-1.18-1.82 5.5 5.5 0 0 0-2.27-.14c.94-1.85 2.09-8.29-3.28-9.06a17.975 17.975 0 0 0-12.53 2.21c-4.67 2.64-8.26 8.71-9.47 13.77zm67.66-11.96c-4.95-.73-9.05.03-11.75 2.17a16.854 16.854 0 0 0-5.64 8.04 29.089 29.089 0 0 0-1.29 15.81 16.87 16.87 0 0 0 4.11 8.63c2.36 2.28 6.75 4.31 10.04 3.39 3.9-1.01 6.62-4.82 8.85-8.04 2.96-4.36 3.76-8.23 4.38-13.43.85-8.57-4.09-15.8-8.7-16.57zm-5.62 34.35a4.163 4.163 0 0 1-3.93-2.46 8.755 8.755 0 0 1-.65-4.69 69.125 69.125 0 0 1 3.43-19.3 11.3 11.3 0 0 1 1.95-3.75 4.285 4.285 0 0 1 4-1.49c2.42.52 6.61 5.47 5.51 14.82-.94 7.99-5.9 16.57-10.31 16.87zm51.58-27.62a2.814 2.814 0 0 0-1.56-.53c-2.19-.21-5.06-.5-7.26-.7a1.937 1.937 0 0 0 .38 2.4c.68.65 1.65 1.75 2.49 1.21a130.366 130.366 0 0 1-3.8 24.02 12.047 12.047 0 0 1-1.87 4.62 4.979 4.979 0 0 1-4.27 2.38c-8.87-.48-7.22-8.37-5.2-23.13a100.945 100.945 0 0 1 2.35-10.66c1.25.24 2.41.47 3.66.71.11-.88.22-1.68.32-2.48a93.344 93.344 0 0 1-17.38-1.65c-.14 1.12-.37 2.31-.51 3.5 1.2-.09 2.49-.18 3.71-.36-1.32 7.38-2.73 14.83-3.05 22.33a20.886 20.886 0 0 0 .28 6.11 9.149 9.149 0 0 0 3.15 5.25c1.84 1.45 4.22 1.9 6.51 2.43a34.43 34.43 0 0 0 5.72.73 9.967 9.967 0 0 0 5.41-1.49 14.563 14.563 0 0 0 5.51-9.19c1.14-7.96 1.86-14.77 3.09-22.81.77-.06.88-.2 1.65-.26.46-.19 1.06-2.14.67-2.43zm28.94 38.95a7.165 7.165 0 0 1-.42-3.55c.09-1.78.18-3.56.27-5.33.11-1.94.15-3.97-.98-5.59a4.8 4.8 0 0 0-2.27-1.95 10.224 10.224 0 0 0 6.27-2.76c2.19-2.12 2.59-5.48 2-8.41a10.016 10.016 0 0 0-1.22-3.43c-1.37-2.31-3.98-3.83-6.78-4.63a32.242 32.242 0 0 0-8.44-.86 5.91 5.91 0 0 0-1.19-.01l.05-.4c-4.14-.41-8.35-.9-12.57-1.3a22.079 22.079 0 0 0-.39 2.3c1.59.21 3.18.51 4.77.72-1.27 10.63-2.87 21.22-4.8 31.68a2.778 2.778 0 0 0-2.96.08 2.561 2.561 0 0 0-.96 2.72q6.36.72 12.7 1.49a158.837 158.837 0 0 1 .95-17.83c1.69.07 3.45.24 5.2.48.17.03.33.05.5.07 2.28.73 2.4 3.43 2.24 4.55-.29 2.07-.58 4.14-.86 6.13-.25 1.76-.51 3.59.28 5.16a6.822 6.822 0 0 0 3.84 3.24 23.159 23.159 0 0 0 5.11.9 3.643 3.643 0 0 0 2.15-.26 1.132 1.132 0 0 0 .5-1.71 2.658 2.658 0 0 1-2.99-1.5zm-15.8-18.9c.67-5.43 1.58-10.83 2.74-16.12a20.085 20.085 0 0 1 4.72 1.15 7.246 7.246 0 0 1 4.04 4.07 8.681 8.681 0 0 1 .04 4.47 9.83 9.83 0 0 1-1.41 3.95 7.6 7.6 0 0 1-5.58 2.79 17.706 17.706 0 0 1-4.55-.31zM158.505 56.04c-1.983.24-5.158.16-7.059.39-.038.57-.07 1.22-.1 1.87.586.03 1.255.06 1.841.09-2.69 3.93-4.611 7.96-6.941 11.95-1.848-3.32-4.2-7.57-5.758-10.27 1.006.08 1.93.17 2.937.24.609-.69.984-3.23.066-3.23-2.935-.17-12.175 1.11-15.073 1.37.168.95.336 1.91.421 2.87 1.04-.5 3.172.04 3.172.04a35.765 35.765 0 0 1 2.945 4.19c1.572 3.74 4.557 8.58 6.2 12.32a13.347 13.347 0 0 0 .017 3.14q.374 5.91.748 11.81a2.07 2.07 0 0 0-2.166.67 1.828 1.828 0 0 0-.23 2.12c3.585-.39 8.554-.96 12.223-1.34-.146-.79-.205-1.51-.351-2.31-.654.05-1.308.11-1.962.16-.536-4.56-1.066-9.04-1.6-13.6a13.55 13.55 0 0 1 0-4.11 13.8 13.8 0 0 1 1.4-3.19c1.808-3.29 3.7-6.67 5.516-10.04a7.985 7.985 0 0 1 1.346-1.96 2.416 2.416 0 0 1 2.288-.58c.015-.89.036-1.7.134-2.6zm7.68 1.28c.287 10.63 1.43 21.6 1.722 32.23a2.8 2.8 0 0 0-3.142.88 2.522 2.522 0 0 0 .078 3.23c4.493-.34 7.8-1.23 12.374-1.55 4.9-.43 8.065-.97 13.047-1.37-.441-2.96 1.031-10.72-2.642-10.15-3.749.65-.86 4.41-2.419 5.72-3.2 2.56-5.673 3.62-9.762 2.78-.1-4.84-.111-9.68-.211-14.59a70.05 70.05 0 0 0 7-1.62 5.351 5.351 0 0 0 1.845-.85c.467-.43.877-2.96.427-3.49-3.085.93-6.251 1.87-9.331 2.82.026-.81-.031-1.61 0-2.42-.062-3.23-.124-6.45-.19-9.75a2.823 2.823 0 0 1 .384-1.64c.755-1.1 2.23-1.45 3.634-1.63a5.679 5.679 0 0 1 3.513.25c1.3.72 2.9 3.51 2.029 5.43-.371.67 1.851.36 3.339.26-.117-3.06-.229-6.03-.346-9.09-4.725.39-9.526.88-14.248 1.29-4.634.5-7.27.93-11.9 1.44.055.72.1 1.37.158 2.09 1.57-.12 3.15-.16 4.641-.27zm51.757 29.34c-2.458-10.43-4.74-21.74-7.081-32.25.916.03 1.75.06 2.662.01-.219-.95-.439-1.91-.659-2.86-4.81.34-10.283.75-15.09 1.12-.1 1.06-.121 2.11-.222 3.16 1.321-.16 2.311-.3 3.466-.45a105.556 105.556 0 0 1-1.588 16.14c-.564 2.94-1.208 5.88-1.849 8.82-.583 2.54-1.083 5.07-1.663 7.6-.9.06-1.719.11-2.619.17.062.96.124 1.93.186 2.89 2.7-.17 5.4-.34 8.176-.51a1.929 1.929 0 0 0-2.714-2.74c.7-3.34 1.31-6.77 1.931-10.11 2.368-.39 4.733-.85 7.1-1.31.717 3.83 1.35 7.66 1.9 11.42-1.055.22-2.192.45-3.323.75.216.88.436 1.83.651 2.71a46.875 46.875 0 0 1 15.414-1.59c-.223-1.11-.442-2.15-.743-3.18-1.479.08-2.379.12-3.933.21zm-16.52-12.27c.758-5.21 1.523-10.41 2.045-15.6 1.436 4.59 2.71 9.35 3.737 14.21-1.96.43-3.908.95-5.782 1.39zm53.86 10.26a7.2 7.2 0 0 1-1.04-3.42l-.708-5.28c-.242-1.93-.57-3.93-1.948-5.32a4.725 4.725 0 0 0-2.539-1.51 9.958 9.958 0 0 0 5.544-3.85c1.72-2.48 1.508-5.86.4-8.63a9.807 9.807 0 0 0-1.786-3.15 11.017 11.017 0 0 0-7.37-3.32 31.718 31.718 0 0 0-8.289.69 5.813 5.813 0 0 0-1.154.22c0-.08-.012-.25-.019-.41-4.061.35-8.208.64-12.349 1.01a21.752 21.752 0 0 0 .037 2.34c1.575-.08 3.155-.08 4.731-.16.7 10.68 1.059 21.38 1.1 32.01a2.708 2.708 0 0 0-2.842.63 2.566 2.566 0 0 0-.429 2.84q6.252-.435 12.5-.85a161.749 161.749 0 0 1-2.3-17.7c1.64-.23 3.366-.39 5.1-.47.164-.01.329-.02.494-.02 2.326.3 2.935 2.93 2.984 4.05.091 2.09.182 4.19.27 6.2.077 1.76.158 3.61 1.2 5.02a6.613 6.613 0 0 0 4.287 2.47 21.084 21.084 0 0 0 5.08-.04 3.606 3.606 0 0 0 2.024-.64 1.149 1.149 0 0 0 .177-1.78 2.582 2.582 0 0 1-3.155-.93zm-18.633-15.7c-.338-5.46-.43-10.94-.267-16.34a18.556 18.556 0 0 1 4.751.26 7.112 7.112 0 0 1 4.628 3.26 8.934 8.934 0 0 1 .853 4.4 10.1 10.1 0 0 1-.65 4.13 7.417 7.417 0 0 1-4.877 3.76 16.75 16.75 0 0 1-4.438.53zm70.187 14.41c-2.094-10.51-3.983-21.9-5.958-32.48.914.06 1.746.12 2.659.1q-.279-1.44-.559-2.88c-4.817.18-10.3.39-15.115.6-.138 1.05-.192 2.1-.33 3.15 1.325-.12 2.319-.22 3.479-.33a105.426 105.426 0 0 1-2.146 16.07c-.665 2.92-1.41 5.84-2.152 8.76-.671 2.51-1.257 5.02-1.924 7.54-.9.02-1.721.05-2.622.07.028.97.056 1.93.085 2.9 2.7-.08 5.4-.16 8.186-.23a7.93 7.93 0 0 0 .01-2.74 7.8 7.8 0 0 0-2.627-.09c.812-3.32 1.543-6.72 2.279-10.04 2.379-.3 4.758-.69 7.137-1.06.584 3.85 1.084 7.7 1.5 11.47-1.062.19-2.205.38-3.346.65.186.88.373 1.84.558 2.72a46.7 46.7 0 0 1 15.453-1.05c-.184-1.12-.367-2.17-.632-3.21-1.476.03-2.378.04-3.935.08zm-16.078-12.84c.937-5.17 1.881-10.35 2.582-15.52 1.276 4.64 2.384 9.44 3.242 14.33-1.971.37-3.938.82-5.824 1.19zm44.618-4.71c-.859 5.64.171 9.65 2.917 14.7a13.851 13.851 0 0 0 3.47 3.76 12.029 12.029 0 0 0 8.608 1.89c2.782-.41 5.728-.82 7.941-2.51a10.979 10.979 0 0 0 3.864-7.07 30.509 30.509 0 0 0-.151-8.21h2.885c.085-.88.17-1.69.172-2.57-4.537-.42-9.159-.82-13.783-1.21.085 1.21.171 2.41.339 3.62 1.4 0 2.8.4 4.287.4v6.84a14.391 14.391 0 0 1-.571 4.91 5 5 0 0 1-3.439 3.3 4.95 4.95 0 0 1-4.6-2 12.581 12.581 0 0 1-1.909-4.74 44.931 44.931 0 0 1 .4-19.88 9.644 9.644 0 0 1 1.806-4.11 6.418 6.418 0 0 1 6.05-2.27c2.158.4 2.408 1.05 3.155 3.06a3.068 3.068 0 0 1-.992 3.38 8.129 8.129 0 0 1-1.49.56 2.464 2.464 0 0 0-1.488.81 1.011 1.011 0 0 0 .168 1.45 26.883 26.883 0 0 0 7.609-.33c.993-.16 2.151-.56 2.319-1.52a1.784 1.784 0 0 0-1.322-1.69 5.155 5.155 0 0 0-2.236.07c.746-1.93 1.254-8.45-4.066-8.69a17.43 17.43 0 0 0-12.029 3.42c-4.291 3.08-7.218 9.47-7.914 14.63zm61.708 17.1a7.359 7.359 0 0 1-.85-3.47c-.13-1.78-.27-3.55-.41-5.32-.14-1.94-.35-3.95-1.65-5.42a4.733 4.733 0 0 0-2.453-1.64 10.008 10.008 0 0 0 5.743-3.54c1.86-2.39 1.83-5.77.88-8.6a9.981 9.981 0 0 0-1.61-3.25 11.03 11.03 0 0 0-7.173-3.71 31.3 31.3 0 0 0-8.311.23 5.82 5.82 0 0 0-1.165.15v-.4c-4.073.12-8.227.18-12.381.32a21.8 21.8 0 0 0-.092 2.34c1.577 0 3.153.09 4.73.1.106 10.7-.122 21.41-.671 32.03a2.668 2.668 0 0 0-2.871.47 2.559 2.559 0 0 0-.585 2.81q6.262-.09 12.528-.16a162.222 162.222 0 0 1-1.325-17.8c1.65-.14 3.382-.21 5.114-.19h.5c2.3.43 2.767 3.09 2.754 4.22-.024 2.09-.048 4.18-.072 6.2-.021 1.77-.041 3.62.925 5.08a6.662 6.662 0 0 0 4.146 2.71 21.343 21.343 0 0 0 5.07.23 3.609 3.609 0 0 0 2.06-.53 1.148 1.148 0 0 0 .27-1.77 2.578 2.578 0 0 1-3.101-1.09zM379.355 66.2c-.037-5.47.173-10.94.634-16.33a18.568 18.568 0 0 1 4.728.53 7.1 7.1 0 0 1 4.44 3.51 8.88 8.88 0 0 1 .609 4.43 10.129 10.129 0 0 1-.877 4.09 7.432 7.432 0 0 1-5.076 3.49 16.744 16.744 0 0 1-4.458.28zm29.679-15.44c-.7 10.61-.59 21.64-1.29 32.25a2.8 2.8 0 0 0-3.21.59 2.512 2.512 0 0 0-.22 3.21c4.5.09 7.87-.49 12.46-.38 4.91.03 8.11-.21 13.11-.15-.17-2.99 2.02-10.57-1.69-10.35-3.79.3-1.26 4.31-2.94 5.47-3.42 2.25-5.98 3.07-9.97 1.85.35-4.82.79-9.64 1.15-14.54a69.271 69.271 0 0 0 7.12-.96 5.446 5.446 0 0 0 1.91-.67c.51-.39 1.15-2.87.75-3.45-3.15.65-6.39 1.29-9.54 1.94.1-.8.12-1.6.22-2.41.24-3.21.48-6.43.72-9.72a2.861 2.861 0 0 1 .53-1.6c.86-1.02 2.36-1.23 3.77-1.28a5.784 5.784 0 0 1 3.47.57c1.23.84 2.56 3.78 1.51 5.6-.43.63 1.81.53 3.3.57.17-3.05.34-6.03.51-9.08-4.74-.05-9.56-.01-14.3-.04-4.66.06-7.32.25-11.98.32-.01.73-.02 1.37-.03 2.09 1.57.03 3.15.14 4.64.17zm48.77 34.04c-1.47-10.61-2.69-22.09-4.04-32.77.91.11 1.74.22 2.65.26-.13-.97-.26-1.95-.39-2.92-4.82-.1-10.3-.21-15.12-.28-.2 1.04-.32 2.08-.52 3.12 1.33-.04 2.33-.08 3.49-.13a105.709 105.709 0 0 1-3.08 15.93c-.84 2.87-1.75 5.74-2.66 8.61-.82 2.47-1.55 4.94-2.37 7.41-.9-.02-1.72-.05-2.62-.07-.03.96-.06 1.93-.09 2.89 2.71.08 5.41.16 8.19.25a7.906 7.906 0 0 0 .17-2.73 7.74 7.74 0 0 0-2.62-.24c1.01-3.27 1.94-6.62 2.87-9.9 2.39-.16 4.79-.4 7.19-.64.35 3.88.63 7.76.82 11.55-1.07.12-2.23.24-3.38.44.13.89.26 1.86.4 2.75a47.091 47.091 0 0 1 15.49-.14c-.12-1.13-.24-2.18-.45-3.24-1.47-.06-2.37-.09-3.93-.15zm-15.3-13.76c1.24-5.11 2.49-10.22 3.49-15.34 1 4.7 1.83 9.56 2.4 14.49-1.99.26-3.98.59-5.89.85zm20.26-11.42c.66.11 1.32.14 1.9.24 1.9-2.09 3.82-4.19 5.73-6.2 1.66.07 3.15.14 4.56.28-.88 10.28-1.11 20.9-2.06 31.09a2.8 2.8 0 0 0-3.22.58 2.623 2.623 0 0 0-.39 3.2c4.58.2 7.96-.28 12.54-.06a1.542 1.542 0 0 0 1.34-.5 1.679 1.679 0 0 0 .21-.88 2.317 2.317 0 0 0-.27-1.3 1.947 1.947 0 0 0-1.12-.62 10.279 10.279 0 0 0-1.56.09c.73-6.66 1.38-13.31 2.12-20.04.32-3.21.64-6.42.96-9.71a2.737 2.737 0 0 1 .21-.95c1.74.16 3.56.25 5.64.36a31.265 31.265 0 0 0 1.91 4.77 14.608 14.608 0 0 0 1.87.66c1.21-2.44 1.65-5.96 2.17-7.95-10.11-.85-20.22-1.57-30.34-2.31-.71 3.11-1.49 6.14-2.2 9.25zm73.15-6.57c-4.89-.49-8.87.46-11.42 2.71a16.943 16.943 0 0 0-5.18 8.3 29.54 29.54 0 0 0-.58 15.85 16.856 16.856 0 0 0 4.4 8.43c2.41 2.17 6.8 3.99 10 2.92 3.77-1.19 6.27-5.13 8.32-8.45 2.71-4.49 3.33-8.4 3.71-13.61.47-8.61-4.7-15.59-9.25-16.15zm-4.02 34.58a4.078 4.078 0 0 1-3.96-2.29 8.91 8.91 0 0 1-.84-4.65 70.621 70.621 0 0 1 2.52-19.43 11.634 11.634 0 0 1 1.76-3.84 4.137 4.137 0 0 1 3.85-1.67c2.39.4 6.72 5.15 6.05 14.54-.58 8.03-5.07 16.82-9.38 17.34zm41.69-28.01c.67-.02-.77 10.28-1.15 13.8-.57 5.93-.69 9.31-.75 13.99a76.367 76.367 0 0 1-4.51-15.47c-.81-4.35-1.85-7.98-2.06-12.68 1 0 2.74.14 3.74.14-.17-.91-1.01-1.94-1.18-2.93-6.14-.33-10.87-.62-17.02-.91-.01 1.29-.03 2.66-.13 3.94a12.573 12.573 0 0 0 2.1-.24c-.76 5.75-1.26 11.28-1.67 17.79-.18 3.61-.46 13.92-1.04 13.88-2.36-.34-3.3 1.37-3.1 1.95 2.94.21 8.93.35 11.88.5-.19-.74-.41-2.13-.52-2.87-1.13.8-2.89.1-3.62-1.08a5.054 5.054 0 0 1-.65-3.36 148.827 148.827 0 0 1 1.6-20.87 33.3 33.3 0 0 1 .71-3.9 51.559 51.559 0 0 1 2.41 8.58c1.27 7.21 3.18 10.18 4.75 17.33.17.98 2.52 4.57 1.29 7.53 2.98-.24 8.08.67 11.51.96.03-1.29.06-2.66.1-4.03a2.529 2.529 0 0 1-.83.01 22.7 22.7 0 0 1-.41-5.85 176.136 176.136 0 0 1 1.76-20.77 5.332 5.332 0 0 1 1.2-3.29 2.755 2.755 0 0 1 3.78-.4c.31-.7.76-2.04.99-2.74-2.98-.34-9-1.17-11.9-1.41-.29.54.39 2.37 2.72 2.4zm17.01 1.07c-1.45 10.54-2.11 21.55-3.55 32.09a2.783 2.783 0 0 0-3.24.35 2.517 2.517 0 0 0-.45 3.2c4.49.39 7.9.05 12.47.48 4.9.38 8.11.36 13.1.77.04-2.99 2.76-10.41-.96-10.45-3.81.04-1.57 4.22-3.32 5.26-3.58 2-6.19 2.64-10.09 1.15.69-4.79 1.47-9.56 2.17-14.43a70.941 70.941 0 0 0 7.17-.45 5.617 5.617 0 0 0 1.96-.54c.53-.36 1.35-2.78.99-3.38-3.2.41-6.47.83-9.67 1.26.16-.79.23-1.59.39-2.39.46-3.19.93-6.38 1.4-9.65a2.838 2.838 0 0 1 .64-1.55c.93-.97 2.44-1.07 3.85-1.02a5.694 5.694 0 0 1 3.43.82c1.17.92 2.29 3.94 1.12 5.68-.47.61 1.77.66 3.26.81.38-3.04.75-5.99 1.13-9.03-4.72-.38-9.54-.68-14.27-1.04-4.65-.27-7.33-.27-11.98-.51-.06.72-.12 1.36-.18 2.08 1.57.14 3.14.36 4.63.49z"/></svg>