<svg xmlns="http://www.w3.org/2000/svg" viewBox="0 0 304.94 57.94"><defs><style>.cls-1 { fill: #fff; fill-rule: evenodd; }</style></defs><path id="From_your_friends_at_Blank" data-name="From your friends at Blank" class="cls-1" d="M62.25 2.93c.03-.99.06-1.95.09-2.93-1.48.01-2.98.06-4.46.08-1.45.04-2.28.11-3.73.16-.01.23-.01.44-.01.67.49 0 .99.03 1.45.04-.17 3.42-.09 6.97-.26 10.39a.865.865 0 0 0-1.01.2.83.83 0 0 0-.06 1.04c1.43.01 2.49-.19 3.94-.19a.489.489 0 0 0 .42-.18.5.5 0 0 0 .05-.28.719.719 0 0 0-.07-.39.687.687 0 0 0-.39-.21 2.626 2.626 0 0 0-.49.05c.08-1.56.19-3.11.28-4.69.75-.08 1.5-.2 2.23-.35a1.627 1.627 0 0 0 .6-.23 1.566 1.566 0 0 0 .21-1.12c-.98.23-2 .46-2.98.69.02-.26.03-.52.05-.78.06-1.04.12-2.07.18-3.14a.848.848 0 0 1 .15-.51 1.538 1.538 0 0 1 1.17-.44 1.756 1.756 0 0 1 1.09.16 1.652 1.652 0 0 1 .51 1.79c-.13.21.57.16 1.04.17zm10.81 8.53a2.534 2.534 0 0 1-.28-1.11c-.04-.58-.09-1.15-.14-1.72a2.922 2.922 0 0 0-.54-1.74 1.5 1.5 0 0 0-.77-.52 3.1 3.1 0 0 0 1.79-1.16 3.036 3.036 0 0 0 .25-2.77 3.249 3.249 0 0 0-.51-1.04A3.453 3.453 0 0 0 70.61.22a9.768 9.768 0 0 0-2.59.09 2.348 2.348 0 0 0-.37.05V.23c-1.27.05-2.56.07-3.86.11a6.271 6.271 0 0 0-.03.75c.49.01.98.03 1.48.04q.045 5.175-.21 10.31a.83.83 0 0 0-.91.16.816.816 0 0 0-.19.9c1.32-.02 2.65-.04 3.97-.05a52.417 52.417 0 0 1-.44-5.74c.52-.05 1.07-.07 1.61-.07h.16A1.319 1.319 0 0 1 70.1 8c0 .67-.01 1.35-.01 1.99a2.929 2.929 0 0 0 .3 1.64 2.067 2.067 0 0 0 1.32.86 6.627 6.627 0 0 0 1.61.06 1.069 1.069 0 0 0 .65-.18.375.375 0 0 0 .08-.57.817.817 0 0 1-.99-.34zm-5.62-5.34c-.02-1.77.04-3.53.18-5.27a6.169 6.169 0 0 1 1.48.17 2.2 2.2 0 0 1 1.39 1.12 2.887 2.887 0 0 1 .2 1.43 3.206 3.206 0 0 1-.26 1.32 2.342 2.342 0 0 1-1.59 1.13 5.088 5.088 0 0 1-1.4.1zM81.01.02a4.526 4.526 0 0 0-3.51 1.1 5.514 5.514 0 0 0-1.47 2.76 9.738 9.738 0 0 0 .11 5.11 5.375 5.375 0 0 0 1.54 2.63 3.564 3.564 0 0 0 3.21.74c1.17-.46 1.87-1.78 2.45-2.89a9.061 9.061 0 0 0 .88-4.46C84.18 2.24 82.43.1 81.01.02zm-.58 11.2a1.3 1.3 0 0 1-1.3-.66 2.891 2.891 0 0 1-.35-1.48 23.831 23.831 0 0 1 .42-6.3 3.578 3.578 0 0 1 .48-1.26A1.291 1.291 0 0 1 80.85.9c.75.08 2.19 1.52 2.18 4.55-.02 2.59-1.25 5.51-2.6 5.77zm16.8.14a1.631 1.631 0 0 1-.28-1.07 58.3 58.3 0 0 1 .03-6.74 5.854 5.854 0 0 1 .43-2.12.392.392 0 0 1 .49-.02.351.351 0 0 0 .01-.57 1.028 1.028 0 0 0-.63-.16C96.09.67 95.5.64 94.3.63a.773.773 0 0 0-.49.11.3.3 0 0 0-.03.44c.21.02.39.08.6.1-.64 2.26-1.4 3.99-2.08 6.08-.69-2.05-1.28-4.18-1.76-6.28a.839.839 0 0 0 .32-.59C89.2.43 87.74.34 86.09.28c.05.36.07.73.12 1.09a.655.655 0 0 1 .91.24 1.712 1.712 0 0 1 .12 1.03c-.22 2.41-.28 8.46-.46 8.71a.685.685 0 0 1-.91.21.927.927 0 0 0 .05.96.831.831 0 0 0 .57.1c1.53-.09 2.43.2 3.96.08 0-.11.01-.73.01-.86-.39 0-.78 0-1.14-.01.19-3.03.21-6.87.41-9.98.82 2.99 1.68 5.85 2.52 8.83.31 0 .83-.12 1.14-.12a.19.19 0 0 0-.05-.13c.84-2.36 1.69-4.81 2.58-6.88-.06 1.22-.12 2.25-.1 3.91.02 1.17.18 4.49-.02 4.49a.722.722 0 0 0-.91.69c.9.01 2.8-.09 3.73-.11a9.318 9.318 0 0 1-.23-.91.842.842 0 0 1-1.16-.26zM113.95.66c-.62.02-1.6-.08-2.2-.06-.03.18-.05.39-.08.59.18.03.39.06.57.09-.94 1.18-1.65 2.42-2.48 3.64-.49-1.12-1.1-2.55-1.51-3.46.31.05.59.11.9.16.21-.2.4-1.01.11-1.03-.9-.14-3.81 0-4.72 0 .03.31.05.62.05.93a1.9 1.9 0 0 1 .99.11 11.3 11.3 0 0 1 .79 1.43c.38 1.25 1.18 2.88 1.59 4.13a4.929 4.929 0 0 0-.09 1.01l-.09 3.81a.671.671 0 0 0-.71.15.612.612 0 0 0-.13.68c1.14-.02 2.72-.07 3.89-.09-.02-.26-.02-.49-.05-.75h-.62c-.04-1.48-.09-2.93-.13-4.41a4.453 4.453 0 0 1 .11-1.32 4.377 4.377 0 0 1 .52-.98c.66-1.01 1.34-2.05 1.99-3.08a2.493 2.493 0 0 1 .47-.59.75.75 0 0 1 .73-.13 8.153 8.153 0 0 1 .1-.83zm6.67-.43a4.526 4.526 0 0 0-3.51 1.1 5.5 5.5 0 0 0-1.46 2.76 9.735 9.735 0 0 0 .1 5.11 5.451 5.451 0 0 0 1.54 2.63 3.564 3.564 0 0 0 3.21.74c1.17-.46 1.88-1.78 2.45-2.89a9.044 9.044 0 0 0 .88-4.45c-.03-2.78-1.78-4.91-3.21-5zm-.58 11.2a1.265 1.265 0 0 1-1.29-.66 3 3 0 0 1-.36-1.48 23.323 23.323 0 0 1 .43-6.29 3.683 3.683 0 0 1 .47-1.27 1.291 1.291 0 0 1 1.17-.62c.75.08 2.2 1.52 2.18 4.55-.02 2.59-1.25 5.52-2.6 5.77zM135.34.65a.788.788 0 0 0-.49-.11c-.67.02-1.55.04-2.23.07a.647.647 0 0 0 .2.75c.24.18.57.5.81.29a44.519 44.519 0 0 1-.25 7.83 4.037 4.037 0 0 1-.4 1.55 1.564 1.564 0 0 1-1.22.93c-2.75.19-2.53-2.4-2.45-7.2a32.386 32.386 0 0 1 .33-3.5l1.14.09V.54a25.731 25.731 0 0 1-5.34.13c0 .36-.03.75-.03 1.14.36-.07.75-.15 1.11-.25a56.765 56.765 0 0 0-.14 7.26 7.074 7.074 0 0 0 .3 1.94 2.932 2.932 0 0 0 1.16 1.57 4.979 4.979 0 0 0 2.1.53 10.7 10.7 0 0 0 1.79 0 2.994 2.994 0 0 0 1.61-.69 4.848 4.848 0 0 0 1.34-3.15c.04-2.59 0-4.8.06-7.42.24-.05.26-.1.5-.15a.888.888 0 0 0 .1-.8zm10.94 11.2a2.233 2.233 0 0 1-.28-1.11l-.15-1.71a2.872 2.872 0 0 0-.53-1.74 1.54 1.54 0 0 0-.78-.53 2.791 2.791 0 0 0 2.04-3.93 3.354 3.354 0 0 0-.51-1.04 3.474 3.474 0 0 0-2.25-1.18 10.223 10.223 0 0 0-2.59.09 2.082 2.082 0 0 0-.36.05V.62c-1.27.05-2.57.07-3.87.11a6.438 6.438 0 0 0-.03.76c.49 0 .99.03 1.48.03.03 3.45-.04 6.9-.21 10.32a.816.816 0 0 0-1.1 1.05c1.33-.02 2.65-.03 3.97-.05a52.409 52.409 0 0 1-.43-5.73 13.967 13.967 0 0 1 1.6-.07h.16a1.3 1.3 0 0 1 .87 1.35c0 .67 0 1.35-.01 2a2.982 2.982 0 0 0 .3 1.63 2.093 2.093 0 0 0 1.32.86 6.161 6.161 0 0 0 1.61.06 1.113 1.113 0 0 0 .65-.17.376.376 0 0 0 .08-.57.794.794 0 0 1-.98-.35zm-5.63-5.34c-.01-1.76.05-3.53.19-5.26a5.663 5.663 0 0 1 1.47.16 2.244 2.244 0 0 1 1.4 1.12 3 3 0 0 1 .2 1.43 3.352 3.352 0 0 1-.27 1.32 2.312 2.312 0 0 1-1.59 1.13 5.061 5.061 0 0 1-1.4.1zm20.86-3.05c.03-.99.07-1.95.1-2.93-1.48.02-2.98.06-4.46.08-1.45.04-2.28.12-3.74.16v.67c.49.01.98.03 1.45.04-.17 3.42-.09 6.97-.26 10.39a.865.865 0 0 0-1.01.2.83.83 0 0 0-.06 1.04c1.42.01 2.49-.19 3.94-.19a.482.482 0 0 0 .42-.17.557.557 0 0 0 .05-.29.657.657 0 0 0-.08-.39.634.634 0 0 0-.38-.21 4.233 4.233 0 0 0-.5.05c.09-1.55.2-3.11.29-4.69a20.7 20.7 0 0 0 2.23-.35 1.7 1.7 0 0 0 .6-.23 1.549 1.549 0 0 0 .21-1.11c-.99.22-2 .45-2.99.68.03-.26.03-.52.06-.78.06-1.04.12-2.07.17-3.13a.965.965 0 0 1 .16-.52 1.538 1.538 0 0 1 1.17-.44 1.841 1.841 0 0 1 1.09.16 1.668 1.668 0 0 1 .51 1.8c-.13.2.57.16 1.03.16zm10.82 8.53a2.467 2.467 0 0 1-.28-1.11c-.05-.57-.1-1.14-.14-1.71a2.879 2.879 0 0 0-.54-1.74 1.456 1.456 0 0 0-.77-.53 2.8 2.8 0 0 0 2.04-3.93 3.354 3.354 0 0 0-.51-1.04 3.5 3.5 0 0 0-2.25-1.18 9.858 9.858 0 0 0-2.6.09 2.226 2.226 0 0 0-.36.05V.76c-1.27.05-2.57.07-3.86.11a6.354 6.354 0 0 0-.03.75c.49.01.98.04 1.47.04q.06 5.175-.21 10.32a.8.8 0 0 0-.9.15.816.816 0 0 0-.19.9c1.32-.02 2.64-.03 3.97-.05a52.417 52.417 0 0 1-.44-5.74c.52-.04 1.06-.07 1.61-.06h.15a1.3 1.3 0 0 1 .88 1.35c-.01.67-.01 1.35-.01 2a2.813 2.813 0 0 0 .3 1.63 2.067 2.067 0 0 0 1.32.86 6.1 6.1 0 0 0 1.6.06 1.093 1.093 0 0 0 .65-.17.369.369 0 0 0 .08-.57.8.8 0 0 1-.98-.35zm-5.62-5.34c-.02-1.76.04-3.53.18-5.26a5.739 5.739 0 0 1 1.48.16 2.2 2.2 0 0 1 1.39 1.12 2.887 2.887 0 0 1 .2 1.43 3.342 3.342 0 0 1-.26 1.32 2.342 2.342 0 0 1-1.59 1.13 5.116 5.116 0 0 1-1.4.1zm8.61-5.89c.05.36.07.72.12 1.11a.616.616 0 0 1 .91.22 1.739 1.739 0 0 1 .12 1.03c-.22 2.41-.27 8.45-.46 8.74a.664.664 0 0 1-.91.17.926.926 0 0 0 .05.96.844.844 0 0 0 .57.11c1.53-.1 2.44.19 3.97.1v-.88c-.39 0-.78-.01-1.14-.01.23-3.21.22-7.28.45-10.5.28.06.93.48 1.14.24a3.121 3.121 0 0 0-.05-1.09c-1.66-.06-3.11-.12-4.77-.2zm7.88.87c-.18 3.42-.09 6.97-.27 10.39a.874.874 0 0 0-1.01.21.815.815 0 0 0-.06 1.03c1.43.01 2.49-.19 3.95-.18 1.55-.02 2.56-.12 4.15-.14-.08-.96.56-3.42-.61-3.32-1.19.12-.37 1.4-.89 1.79a3.251 3.251 0 0 1-3.14.65c.09-1.55.2-3.11.28-4.69a20.492 20.492 0 0 0 2.24-.35 1.649 1.649 0 0 0 .59-.23 1.554 1.554 0 0 0 .22-1.11c-.99.22-2 .45-2.99.68.03-.26.03-.52.06-.78.05-1.03.11-2.07.17-3.13a.965.965 0 0 1 .16-.52 1.5 1.5 0 0 1 1.17-.43 1.669 1.669 0 0 1 1.08.16 1.63 1.63 0 0 1 .51 1.79c-.13.2.57.16 1.04.16.03-.99.06-1.94.09-2.93-1.47.02-2.98.06-4.46.08-1.45.04-2.28.12-3.73.16v.68c.49 0 .98.03 1.45.03zm16.07.21c.21-.02.01 3.32-.02 4.46-.04 1.92.01 3.01.1 4.52a24.923 24.923 0 0 1-1.79-4.86 27.9 27.9 0 0 1-.93-4.03c.31-.02.85-.02 1.16-.04-.07-.29-.36-.6-.43-.91-1.92.04-3.4.06-5.32.1.03.42.05.86.05 1.27a2.763 2.763 0 0 0 .65-.13c-.12 1.87-.15 3.66-.14 5.76a31.365 31.365 0 0 1-.02 4.48.75.75 0 0 0-.94.7c.93 0 2.83-.09 3.76-.11a9.318 9.318 0 0 1-.23-.91.851.851 0 0 1-1.16-.26 1.631 1.631 0 0 1-.28-1.07 47.388 47.388 0 0 1 .03-6.74 11.2 11.2 0 0 1 .14-1.27 16.8 16.8 0 0 1 .94 2.7c.56 2.29 1.23 3.2 1.89 5.46.08.31.9 1.4.59 2.39a26.262 26.262 0 0 1 3.65.02c-.02-.42-.05-.86-.07-1.3a1.017 1.017 0 0 1-.26.02 7.158 7.158 0 0 1-.27-1.87 57.774 57.774 0 0 1 .03-6.71 1.792 1.792 0 0 1 .29-1.09.847.847 0 0 1 1.17-.22c.08-.24.19-.68.24-.91-.93-.03-2.83-.15-3.73-.15a.722.722 0 0 0 .9.7zm5.65 10.35a.848.848 0 0 0-.91.15.874.874 0 0 0-.19.91c1.04-.02 2.05-.01 3.09-.03 0 0 0 .02-.03.02a.127.127 0 0 0 .06-.02 8.048 8.048 0 0 0 .85-.03v-.02a7.242 7.242 0 0 0 2.23-.04 3.609 3.609 0 0 0 2.47-1.52 4.832 4.832 0 0 0 .58-1.91 15.366 15.366 0 0 0 .06-5.89C212.6 1.53 209.39.47 206.9 1c-1.07.02-2.15.07-3.22.09a6.271 6.271 0 0 0-.03.75c.49.01.99.03 1.48.04.03 3.44-.04 6.89-.21 10.31zm4.8-9.85a3.784 3.784 0 0 1 1.1 2.68 18.185 18.185 0 0 1-.19 5.05 3.628 3.628 0 0 1-.58 1.66 2.834 2.834 0 0 1-1.4.85c-.31.05-.62.1-.91.12a55.3 55.3 0 0 1-.25-10.91 3.485 3.485 0 0 1 2.23.55zm9.16 3.37a3.734 3.734 0 0 1-.77-2.6 1.422 1.422 0 0 1 .6-1.11 1.263 1.263 0 0 1 1.48-.07c.29.21.88 1.12.26 1.17a.6.6 0 0 0-.4.85.773.773 0 0 0 1.09.16 2.018 2.018 0 0 0-.71-3.14 4.547 4.547 0 0 0-2.2-.03 3.7 3.7 0 0 0-2.63 1.02 2.772 2.772 0 0 0-.45 2.2c.45 2.47 3.97 5.31 3.96 6.81a1.942 1.942 0 0 1-1.6 2.17 1.608 1.608 0 0 1-1.6-1.02c-.15-.41.55-.38.66-1-.13-.73-.85-1.2-1.24-.82a2.507 2.507 0 0 0 .52 3.25 3.093 3.093 0 0 0 1.69.32 7.265 7.265 0 0 0 2.23-.17 3.284 3.284 0 0 0 2.19-3.15c-.09-1.64-2.57-4.01-3.08-4.84zm16.76 6.7c-.58-3.4-1.08-7.08-1.6-10.51a7.538 7.538 0 0 0 .83.06c-.05-.31-.1-.62-.15-.94l-4.72.06c-.06.33-.08.67-.14 1.01.42-.03.73-.05 1.09-.08a34.249 34.249 0 0 1-.83 5.16c-.24.93-.5 1.86-.77 2.8-.23.8-.45 1.6-.68 2.4h-.83c-.01.31-.01.62-.01.93.86.01 1.71.01 2.59.02a2.507 2.507 0 0 0 .03-.89 2.315 2.315 0 0 0-.82-.05c.29-1.06.55-2.15.82-3.21.75-.08 1.5-.18 2.25-.28.15 1.25.28 2.49.37 3.71-.33.05-.7.1-1.06.18.05.28.1.6.15.88a14.94 14.94 0 0 1 4.9-.21c-.05-.36-.1-.7-.18-1.03-.46-.01-.75-.01-1.24-.01zm-4.95-4.28c.34-1.66.69-3.31.96-4.97.35 1.5.65 3.06.88 4.64-.63.1-1.25.23-1.84.33zm6.76-3.88c.2.03.41.03.59.06.58-.7 1.15-1.4 1.73-2.07.51.01.98.01 1.42.04-.15 3.31-.09 6.74-.26 10.03a.878.878 0 0 0-1.1 1.26c1.46.01 2.52-.19 3.97-.18a.489.489 0 0 0 .42-.18.6.6 0 0 0 .05-.29.735.735 0 0 0-.1-.41.6.6 0 0 0-.36-.19 4.233 4.233 0 0 0-.5.05c.15-2.15.26-4.3.4-6.48.06-1.03.12-2.07.17-3.13a.876.876 0 0 1 .06-.31c.54.03 1.11.03 1.76.03a10.379 10.379 0 0 0 .67 1.51 4.065 4.065 0 0 0 .59.18 13.479 13.479 0 0 0 .56-2.59c-3.16-.12-6.32-.21-9.49-.33-.18 1.01-.4 1.99-.58 3zM8.01 54.28h5.96v2.98H4.84V35.01H-.01v-2.99h4.85v-9.08h3.17v9.08h5.58v2.99H8.01v19.27zm14.85-17.54a9.278 9.278 0 0 1 8.35-5.15 9.6 9.6 0 0 1 7.54 3.56c2.21 2.6 2.36 5.43 2.36 8.65v10.48h4.22v2.98H33.71v-2.98h4.23V45.1c0-2.35.14-4.76-1.11-6.83a7.252 7.252 0 0 0-6.29-3.6 7.527 7.527 0 0 0-5.72 2.5c-1.92 2.21-1.96 4.33-1.96 7.07v10.04h4.22v2.98H15.46v-2.98h4.23V25.92h-4.23v-2.98h7.4v13.8zM69.35 50.2a13.388 13.388 0 1 1 1.06-5.34v.96H47.35a10.043 10.043 0 0 0 18.64 4.38h3.36zm-1.92-6.97a10.274 10.274 0 0 0-10.33-8.75 10.145 10.145 0 0 0-9.75 8.75h20.08zm14.98-6.78a9.387 9.387 0 0 1 8.46-4.86c2.83 0 7.06 1.54 8.69 4.86a14.849 14.849 0 0 1 1.4 6.58v11.25h4.22v2.98H93.56v-2.98h4.23V44.19c0-2.26-.05-4.43-1.21-6.4-1.34-2.35-4.17-3.07-6.58-3.07a7.9 7.9 0 0 0-5.9 2.64c-1.64 1.92-1.69 4.09-1.69 6.44v10.48h4.23v2.98H75.02v-2.98h4.23V35.01h-4.23v-2.99h7.39v4.43zm47.46 13.75a13.388 13.388 0 1 1 1.06-5.34v.96h-23.06a10.043 10.043 0 0 0 18.64 4.38h3.36zm-1.92-6.97a10.274 10.274 0 0 0-10.33-8.75 10.145 10.145 0 0 0-9.75 8.75h20.08zm31.89 14.03h-3.31l-5.62-17.45-6.39 17.45h-3.27l-7.63-22.25h-4.23v-2.99h11.43v2.99h-3.99l6.34 18.12 6.49-18.65h2.64l5.91 18.41 6.43-17.88h-4.08v-2.99h11.48v2.99h-4.23zm14.46-5.48h3.7V28.42h-3.7v-5.48h15.23c2.54 0 5.04.24 7.1 1.78a8.2 8.2 0 0 1 3.22 6.82 7.844 7.844 0 0 1-4.46 7.31 9.155 9.155 0 0 1 5.95 8.85 9.643 9.643 0 0 1-3.22 7.26c-2.3 2.02-4.94 2.3-7.87 2.3H174.3v-5.48zm10.23-.24h3.6c1.54 0 3.41.05 4.76-.86a4.5 4.5 0 0 0 1.92-3.75 4.688 4.688 0 0 0-1.87-3.9c-1.4-1.01-3.08-1.01-4.76-1.01h-3.65v9.52zm.05-14.9h3.31c1.59 0 3.08.1 4.42-.87a4.2 4.2 0 0 0-.24-6.68c-1.2-.77-2.74-.67-4.13-.67h-3.36v8.22zm27.71 15.14h3.32v5.48h-12.73v-5.48h3.55V28.42h-3.31v-5.48h9.17v28.84zm24.26 2.02a9.475 9.475 0 0 1-8.26 4.14 13.293 13.293 0 0 1-13.16-13.37 13.561 13.561 0 0 1 13.45-13.65 9.215 9.215 0 0 1 7.97 4.33v-3.66h9.17v5.48h-3.22v14.71h3.22v5.48h-9.17V53.8zm.09-9.52a7.7 7.7 0 0 0-7.73-7.64 7.8 7.8 0 0 0-7.73 7.93 7.717 7.717 0 0 0 7.63 7.65 7.828 7.828 0 0 0 7.83-7.94zm13.74-7.21h-3.31v-5.48h9.17v3.66a8.309 8.309 0 0 1 7.59-4.24 10.177 10.177 0 0 1 7.4 3.18c2.11 2.35 2.16 4.61 2.16 7.55v10.04h3.31v5.48h-12.48v-5.48h3.31v-8.31a7.449 7.449 0 0 0-1.01-4.62 5.61 5.61 0 0 0-4.51-2.07 5.761 5.761 0 0 0-4.66 2.17c-1.11 1.44-1.11 3.65-1.11 5.38v7.45h3.32v5.48h-12.49v-5.48h3.31V37.07zm43.23-.57h-2.64v-4.91h12.63v5.48h-3.12l-7.06 6.83 7.49 7.88h4.04v5.48h-13.98v-5.48h2.16l-6.1-6.73v6.73h2.31v5.48h-11.53v-5.48h3.36V28.42h-3.36v-5.48h9.22v20.14z"/></svg>