<svg xmlns="http://www.w3.org/2000/svg" width="304.94" height="57.94" viewBox="0 0 304.94 57.94">
  <metadata><?xpacket begin="﻿" id="W5M0MpCehiHzreSzNTczkc9d"?>
<x:xmpmeta xmlns:x="adobe:ns:meta/" x:xmptk="Adobe XMP Core 5.6-c138 79.159824, 2016/09/14-01:09:01        ">
   <rdf:RDF xmlns:rdf="http://www.w3.org/1999/02/22-rdf-syntax-ns#">
      <rdf:Description rdf:about=""/>
   </rdf:RDF>
</x:xmpmeta>
                                                                                                    
                                                                                                    
                                                                                                    
                                                                                                    
                                                                                                    
                                                                                                    
                                                                                                    
                                                                                                    
                                                                                                    
                                                                                                    
                                                                                                    
                                                                                                    
                                                                                                    
                                                                                                    
                                                                                                    
                                                                                                    
                                                                                                    
                                                                                                    
                                                                                                    
                                                                                                    
                           
<?xpacket end="w"?></metadata>
<defs>
    <style>
      .cls-1 {
        fill: #fff;
        fill-rule: evenodd;
      }
    </style>
  </defs>
  <path id="From_your_friends_at_Blank" data-name="From your friends at Blank" class="cls-1" d="M1215.28,1447.43c0.03-.99.06-1.95,0.09-2.93-1.48.01-2.98,0.06-4.46,0.08-1.45.04-2.28,0.11-3.73,0.16-0.01.23-.01,0.44-0.01,0.67,0.49,0,.99.03,1.45,0.04-0.17,3.42-.09,6.97-0.26,10.39a0.865,0.865,0,0,0-1.01.2,0.83,0.83,0,0,0-.06,1.04c1.43,0.01,2.49-.19,3.94-0.19a0.489,0.489,0,0,0,.42-0.18,0.5,0.5,0,0,0,.05-0.28,0.719,0.719,0,0,0-.07-0.39,0.687,0.687,0,0,0-.39-0.21,2.626,2.626,0,0,0-.49.05c0.08-1.56.19-3.11,0.28-4.69,0.75-.08,1.5-0.2,2.23-0.35a1.627,1.627,0,0,0,.6-0.23,1.566,1.566,0,0,0,.21-1.12c-0.98.23-2,.46-2.98,0.69,0.02-.26.03-0.52,0.05-0.78,0.06-1.04.12-2.07,0.18-3.14a0.848,0.848,0,0,1,.15-0.51,1.538,1.538,0,0,1,1.17-.44,1.756,1.756,0,0,1,1.09.16,1.652,1.652,0,0,1,.51,1.79C1214.11,1447.47,1214.81,1447.42,1215.28,1447.43Zm10.81,8.53a2.534,2.534,0,0,1-.28-1.11c-0.04-.58-0.09-1.15-0.14-1.72a2.922,2.922,0,0,0-.54-1.74,1.5,1.5,0,0,0-.77-0.52,3.1,3.1,0,0,0,1.79-1.16,3.036,3.036,0,0,0,.25-2.77,3.249,3.249,0,0,0-.51-1.04,3.453,3.453,0,0,0-2.25-1.18,9.768,9.768,0,0,0-2.59.09,2.348,2.348,0,0,0-.37.05v-0.13c-1.27.05-2.56,0.07-3.86,0.11a6.271,6.271,0,0,0-.03.75c0.49,0.01.98,0.03,1.48,0.04q0.045,5.175-.21,10.31a0.83,0.83,0,0,0-.91.16,0.816,0.816,0,0,0-.19.9c1.32-.02,2.65-0.04,3.97-0.05a52.417,52.417,0,0,1-.44-5.74c0.52-.05,1.07-0.07,1.61-0.07h0.16a1.319,1.319,0,0,1,.87,1.36c0,0.67-.01,1.35-0.01,1.99a2.929,2.929,0,0,0,.3,1.64,2.067,2.067,0,0,0,1.32.86,6.627,6.627,0,0,0,1.61.06,1.069,1.069,0,0,0,.65-0.18,0.375,0.375,0,0,0,.08-0.57A0.817,0.817,0,0,1,1226.09,1455.96Zm-5.62-5.34c-0.02-1.77.04-3.53,0.18-5.27a6.169,6.169,0,0,1,1.48.17,2.2,2.2,0,0,1,1.39,1.12,2.887,2.887,0,0,1,.2,1.43,3.206,3.206,0,0,1-.26,1.32,2.342,2.342,0,0,1-1.59,1.13A5.088,5.088,0,0,1,1220.47,1450.62Zm13.57-6.1a4.526,4.526,0,0,0-3.51,1.1,5.514,5.514,0,0,0-1.47,2.76,9.738,9.738,0,0,0,.11,5.11,5.375,5.375,0,0,0,1.54,2.63,3.564,3.564,0,0,0,3.21.74c1.17-.46,1.87-1.78,2.45-2.89a9.061,9.061,0,0,0,.88-4.46C1237.21,1446.74,1235.46,1444.6,1234.04,1444.52Zm-0.58,11.2a1.3,1.3,0,0,1-1.3-.66,2.891,2.891,0,0,1-.35-1.48,23.831,23.831,0,0,1,.42-6.3,3.578,3.578,0,0,1,.48-1.26,1.291,1.291,0,0,1,1.17-.62c0.75,0.08,2.19,1.52,2.18,4.55C1236.04,1452.54,1234.81,1455.46,1233.46,1455.72Zm16.8,0.14a1.631,1.631,0,0,1-.28-1.07,58.3,58.3,0,0,1,.03-6.74,5.854,5.854,0,0,1,.43-2.12,0.392,0.392,0,0,1,.49-0.02,0.351,0.351,0,0,0,.01-0.57,1.028,1.028,0,0,0-.63-0.16c-1.19-.01-1.78-0.04-2.98-0.05a0.773,0.773,0,0,0-.49.11,0.3,0.3,0,0,0-.03.44c0.21,0.02.39,0.08,0.6,0.1-0.64,2.26-1.4,3.99-2.08,6.08-0.69-2.05-1.28-4.18-1.76-6.28a0.839,0.839,0,0,0,.32-0.59c-1.66-.06-3.12-0.15-4.77-0.21,0.05,0.36.07,0.73,0.12,1.09a0.655,0.655,0,0,1,.91.24,1.712,1.712,0,0,1,.12,1.03c-0.22,2.41-.28,8.46-0.46,8.71a0.685,0.685,0,0,1-.91.21,0.927,0.927,0,0,0,.05.96,0.831,0.831,0,0,0,.57.1c1.53-.09,2.43.2,3.96,0.08,0-.11.01-0.73,0.01-0.86-0.39,0-.78,0-1.14-0.01,0.19-3.03.21-6.87,0.41-9.98,0.82,2.99,1.68,5.85,2.52,8.83,0.31,0,.83-0.12,1.14-0.12a0.19,0.19,0,0,0-.05-0.13c0.84-2.36,1.69-4.81,2.58-6.88-0.06,1.22-.12,2.25-0.1,3.91,0.02,1.17.18,4.49-.02,4.49a0.722,0.722,0,0,0-.91.69c0.9,0.01,2.8-.09,3.73-0.11a9.318,9.318,0,0,1-.23-0.91A0.842,0.842,0,0,1,1250.26,1455.86Zm16.72-10.7c-0.62.02-1.6-.08-2.2-0.06-0.03.18-.05,0.39-0.08,0.59,0.18,0.03.39,0.06,0.57,0.09-0.94,1.18-1.65,2.42-2.48,3.64-0.49-1.12-1.1-2.55-1.51-3.46,0.31,0.05.59,0.11,0.9,0.16,0.21-.2.4-1.01,0.11-1.03-0.9-.14-3.81,0-4.72,0,0.03,0.31.05,0.62,0.05,0.93a1.9,1.9,0,0,1,.99.11,11.3,11.3,0,0,1,.79,1.43c0.38,1.25,1.18,2.88,1.59,4.13a4.929,4.929,0,0,0-.09,1.01l-0.09,3.81a0.671,0.671,0,0,0-.71.15,0.612,0.612,0,0,0-.13.68c1.14-.02,2.72-0.07,3.89-0.09-0.02-.26-0.02-0.49-0.05-0.75h-0.62c-0.04-1.48-.09-2.93-0.13-4.41a4.453,4.453,0,0,1,.11-1.32,4.377,4.377,0,0,1,.52-0.98c0.66-1.01,1.34-2.05,1.99-3.08a2.493,2.493,0,0,1,.47-0.59,0.75,0.75,0,0,1,.73-0.13A8.153,8.153,0,0,1,1266.98,1445.16Zm6.67-.43a4.526,4.526,0,0,0-3.51,1.1,5.5,5.5,0,0,0-1.46,2.76,9.735,9.735,0,0,0,.1,5.11,5.451,5.451,0,0,0,1.54,2.63,3.564,3.564,0,0,0,3.21.74c1.17-.46,1.88-1.78,2.45-2.89a9.044,9.044,0,0,0,.88-4.45C1276.83,1446.95,1275.08,1444.82,1273.65,1444.73Zm-0.58,11.2a1.265,1.265,0,0,1-1.29-.66,3,3,0,0,1-.36-1.48,23.323,23.323,0,0,1,.43-6.29,3.683,3.683,0,0,1,.47-1.27,1.291,1.291,0,0,1,1.17-.62c0.75,0.08,2.2,1.52,2.18,4.55C1275.65,1452.75,1274.42,1455.68,1273.07,1455.93Zm15.3-10.78a0.788,0.788,0,0,0-.49-0.11c-0.67.02-1.55,0.04-2.23,0.07a0.647,0.647,0,0,0,.2.75c0.24,0.18.57,0.5,0.81,0.29a44.519,44.519,0,0,1-.25,7.83,4.037,4.037,0,0,1-.4,1.55,1.564,1.564,0,0,1-1.22.93c-2.75.19-2.53-2.4-2.45-7.2a32.386,32.386,0,0,1,.33-3.5l1.14,0.09v-0.81a25.731,25.731,0,0,1-5.34.13c0,0.36-.03.75-0.03,1.14,0.36-.07.75-0.15,1.11-0.25a56.765,56.765,0,0,0-.14,7.26,7.074,7.074,0,0,0,.3,1.94,2.932,2.932,0,0,0,1.16,1.57,4.979,4.979,0,0,0,2.1.53,10.7,10.7,0,0,0,1.79,0,2.994,2.994,0,0,0,1.61-.69,4.848,4.848,0,0,0,1.34-3.15c0.04-2.59,0-4.8.06-7.42,0.24-.05.26-0.1,0.5-0.15A0.888,0.888,0,0,0,1288.37,1445.15Zm10.94,11.2a2.233,2.233,0,0,1-.28-1.11l-0.15-1.71a2.872,2.872,0,0,0-.53-1.74,1.54,1.54,0,0,0-.78-0.53,2.791,2.791,0,0,0,2.04-3.93,3.354,3.354,0,0,0-.51-1.04,3.474,3.474,0,0,0-2.25-1.18,10.223,10.223,0,0,0-2.59.09,2.082,2.082,0,0,0-.36.05v-0.13c-1.27.05-2.57,0.07-3.87,0.11a6.438,6.438,0,0,0-.03.76c0.49,0,.99.03,1.48,0.03,0.03,3.45-.04,6.9-0.21,10.32a0.816,0.816,0,0,0-1.1,1.05c1.33-.02,2.65-0.03,3.97-0.05a52.409,52.409,0,0,1-.43-5.73,13.967,13.967,0,0,1,1.6-.07h0.16a1.3,1.3,0,0,1,.87,1.35c0,0.67,0,1.35-.01,2a2.982,2.982,0,0,0,.3,1.63,2.093,2.093,0,0,0,1.32.86,6.161,6.161,0,0,0,1.61.06,1.113,1.113,0,0,0,.65-0.17,0.376,0.376,0,0,0,.08-0.57A0.794,0.794,0,0,1,1299.31,1456.35Zm-5.63-5.34c-0.01-1.76.05-3.53,0.19-5.26a5.663,5.663,0,0,1,1.47.16,2.244,2.244,0,0,1,1.4,1.12,3,3,0,0,1,.2,1.43,3.352,3.352,0,0,1-.27,1.32,2.312,2.312,0,0,1-1.59,1.13A5.061,5.061,0,0,1,1293.68,1451.01Zm20.86-3.05c0.03-.99.07-1.95,0.1-2.93-1.48.02-2.98,0.06-4.46,0.08-1.45.04-2.28,0.12-3.74,0.16v0.67c0.49,0.01.98,0.03,1.45,0.04-0.17,3.42-.09,6.97-0.26,10.39a0.865,0.865,0,0,0-1.01.2,0.83,0.83,0,0,0-.06,1.04c1.42,0.01,2.49-.19,3.94-0.19a0.482,0.482,0,0,0,.42-0.17,0.557,0.557,0,0,0,.05-0.29,0.657,0.657,0,0,0-.08-0.39,0.634,0.634,0,0,0-.38-0.21,4.233,4.233,0,0,0-.5.05c0.09-1.55.2-3.11,0.29-4.69a20.7,20.7,0,0,0,2.23-.35,1.7,1.7,0,0,0,.6-0.23,1.549,1.549,0,0,0,.21-1.11c-0.99.22-2,.45-2.99,0.68,0.03-.26.03-0.52,0.06-0.78,0.06-1.04.12-2.07,0.17-3.13a0.965,0.965,0,0,1,.16-0.52,1.538,1.538,0,0,1,1.17-.44,1.841,1.841,0,0,1,1.09.16,1.668,1.668,0,0,1,.51,1.8C1313.38,1448,1314.08,1447.96,1314.54,1447.96Zm10.82,8.53a2.467,2.467,0,0,1-.28-1.11c-0.05-.57-0.1-1.14-0.14-1.71a2.879,2.879,0,0,0-.54-1.74,1.456,1.456,0,0,0-.77-0.53,2.8,2.8,0,0,0,2.04-3.93,3.354,3.354,0,0,0-.51-1.04,3.5,3.5,0,0,0-2.25-1.18,9.858,9.858,0,0,0-2.6.09,2.226,2.226,0,0,0-.36.05v-0.13c-1.27.05-2.57,0.07-3.86,0.11a6.354,6.354,0,0,0-.03.75c0.49,0.01.98,0.04,1.47,0.04q0.06,5.175-.21,10.32a0.8,0.8,0,0,0-.9.15,0.816,0.816,0,0,0-.19.9c1.32-.02,2.64-0.03,3.97-0.05a52.417,52.417,0,0,1-.44-5.74c0.52-.04,1.06-0.07,1.61-0.06h0.15a1.3,1.3,0,0,1,.88,1.35c-0.01.67-.01,1.35-0.01,2a2.813,2.813,0,0,0,.3,1.63,2.067,2.067,0,0,0,1.32.86,6.1,6.1,0,0,0,1.6.06,1.093,1.093,0,0,0,.65-0.17,0.369,0.369,0,0,0,.08-0.57A0.8,0.8,0,0,1,1325.36,1456.49Zm-5.62-5.34c-0.02-1.76.04-3.53,0.18-5.26a5.739,5.739,0,0,1,1.48.16,2.2,2.2,0,0,1,1.39,1.12,2.887,2.887,0,0,1,.2,1.43,3.342,3.342,0,0,1-.26,1.32,2.342,2.342,0,0,1-1.59,1.13A5.116,5.116,0,0,1,1319.74,1451.15Zm8.61-5.89c0.05,0.36.07,0.72,0.12,1.11a0.616,0.616,0,0,1,.91.22,1.739,1.739,0,0,1,.12,1.03c-0.22,2.41-.27,8.45-0.46,8.74a0.664,0.664,0,0,1-.91.17,0.926,0.926,0,0,0,.05.96,0.844,0.844,0,0,0,.57.11c1.53-.1,2.44.19,3.97,0.1v-0.88c-0.39,0-.78-0.01-1.14-0.01,0.23-3.21.22-7.28,0.45-10.5,0.28,0.06.93,0.48,1.14,0.24a3.121,3.121,0,0,0-.05-1.09C1331.46,1445.4,1330.01,1445.34,1328.35,1445.26Zm7.88,0.87c-0.18,3.42-.09,6.97-0.27,10.39a0.874,0.874,0,0,0-1.01.21,0.815,0.815,0,0,0-.06,1.03c1.43,0.01,2.49-.19,3.95-0.18,1.55-.02,2.56-0.12,4.15-0.14-0.08-.96.56-3.42-0.61-3.32-1.19.12-.37,1.4-0.89,1.79a3.251,3.251,0,0,1-3.14.65c0.09-1.55.2-3.11,0.28-4.69a20.492,20.492,0,0,0,2.24-.35,1.649,1.649,0,0,0,.59-0.23,1.554,1.554,0,0,0,.22-1.11c-0.99.22-2,.45-2.99,0.68,0.03-.26.03-0.52,0.06-0.78,0.05-1.03.11-2.07,0.17-3.13a0.965,0.965,0,0,1,.16-0.52,1.5,1.5,0,0,1,1.17-.43,1.669,1.669,0,0,1,1.08.16,1.63,1.63,0,0,1,.51,1.79c-0.13.2,0.57,0.16,1.04,0.16,0.03-.99.06-1.94,0.09-2.93-1.47.02-2.98,0.06-4.46,0.08-1.45.04-2.28,0.12-3.73,0.16v0.68C1335.27,1446.1,1335.76,1446.13,1336.23,1446.13Zm16.07,0.21c0.21-.02.01,3.32-0.02,4.46-0.04,1.92.01,3.01,0.1,4.52a24.923,24.923,0,0,1-1.79-4.86,27.9,27.9,0,0,1-.93-4.03c0.31-.02.85-0.02,1.16-0.04-0.07-.29-0.36-0.6-0.43-0.91-1.92.04-3.4,0.06-5.32,0.1,0.03,0.42.05,0.86,0.05,1.27a2.763,2.763,0,0,0,.65-0.13c-0.12,1.87-.15,3.66-0.14,5.76a31.365,31.365,0,0,1-.02,4.48,0.75,0.75,0,0,0-.94.7c0.93,0,2.83-.09,3.76-0.11a9.318,9.318,0,0,1-.23-0.91,0.851,0.851,0,0,1-1.16-.26,1.631,1.631,0,0,1-.28-1.07,47.388,47.388,0,0,1,.03-6.74,11.2,11.2,0,0,1,.14-1.27,16.8,16.8,0,0,1,.94,2.7c0.56,2.29,1.23,3.2,1.89,5.46,0.08,0.31.9,1.4,0.59,2.39a26.262,26.262,0,0,1,3.65.02c-0.02-.42-0.05-0.86-0.07-1.3a1.017,1.017,0,0,1-.26.02,7.158,7.158,0,0,1-.27-1.87,57.774,57.774,0,0,1,.03-6.71,1.792,1.792,0,0,1,.29-1.09,0.847,0.847,0,0,1,1.17-.22c0.08-.24.19-0.68,0.24-0.91-0.93-.03-2.83-0.15-3.73-0.15A0.722,0.722,0,0,0,1352.3,1446.34Zm5.65,10.35a0.848,0.848,0,0,0-.91.15,0.874,0.874,0,0,0-.19.91c1.04-.02,2.05-0.01,3.09-0.03,0,0,0,.02-0.03.02a0.127,0.127,0,0,0,.06-0.02,8.048,8.048,0,0,0,.85-0.03v-0.02a7.242,7.242,0,0,0,2.23-.04,3.609,3.609,0,0,0,2.47-1.52,4.832,4.832,0,0,0,.58-1.91,15.366,15.366,0,0,0,.06-5.89c-0.53-2.28-3.74-3.34-6.23-2.81-1.07.02-2.15,0.07-3.22,0.09a6.271,6.271,0,0,0-.03.75c0.49,0.01.99,0.03,1.48,0.04C1358.19,1449.82,1358.12,1453.27,1357.95,1456.69Zm4.8-9.85a3.784,3.784,0,0,1,1.1,2.68,18.185,18.185,0,0,1-.19,5.05,3.628,3.628,0,0,1-.58,1.66,2.834,2.834,0,0,1-1.4.85c-0.31.05-.62,0.1-0.91,0.12a55.3,55.3,0,0,1-.25-10.91A3.485,3.485,0,0,1,1362.75,1446.84Zm9.16,3.37a3.734,3.734,0,0,1-.77-2.6,1.422,1.422,0,0,1,.6-1.11,1.263,1.263,0,0,1,1.48-.07c0.29,0.21.88,1.12,0.26,1.17a0.6,0.6,0,0,0-.4.85,0.773,0.773,0,0,0,1.09.16,2.018,2.018,0,0,0-.71-3.14,4.547,4.547,0,0,0-2.2-.03,3.7,3.7,0,0,0-2.63,1.02,2.772,2.772,0,0,0-.45,2.2c0.45,2.47,3.97,5.31,3.96,6.81a1.942,1.942,0,0,1-1.6,2.17,1.608,1.608,0,0,1-1.6-1.02c-0.15-.41.55-0.38,0.66-1-0.13-.73-0.85-1.2-1.24-0.82a2.507,2.507,0,0,0,.52,3.25,3.093,3.093,0,0,0,1.69.32,7.265,7.265,0,0,0,2.23-.17,3.284,3.284,0,0,0,2.19-3.15C1374.9,1453.41,1372.42,1451.04,1371.91,1450.21Zm16.76,6.7c-0.58-3.4-1.08-7.08-1.6-10.51a7.538,7.538,0,0,0,.83.06c-0.05-.31-0.1-0.62-0.15-0.94l-4.72.06c-0.06.33-.08,0.67-0.14,1.01,0.42-.03.73-0.05,1.09-0.08a34.249,34.249,0,0,1-.83,5.16c-0.24.93-.5,1.86-0.77,2.8-0.23.8-.45,1.6-0.68,2.4h-0.83c-0.01.31-.01,0.62-0.01,0.93,0.86,0.01,1.71.01,2.59,0.02a2.507,2.507,0,0,0,.03-0.89,2.315,2.315,0,0,0-.82-0.05c0.29-1.06.55-2.15,0.82-3.21,0.75-.08,1.5-0.18,2.25-0.28,0.15,1.25.28,2.49,0.37,3.71-0.33.05-.7,0.1-1.06,0.18,0.05,0.28.1,0.6,0.15,0.88a14.94,14.94,0,0,1,4.9-.21c-0.05-.36-0.1-0.7-0.18-1.03C1389.45,1456.91,1389.16,1456.91,1388.67,1456.91Zm-4.95-4.28c0.34-1.66.69-3.31,0.96-4.97,0.35,1.5.65,3.06,0.88,4.64C1384.93,1452.4,1384.31,1452.53,1383.72,1452.63Zm6.76-3.88c0.2,0.03.41,0.03,0.59,0.06,0.58-.7,1.15-1.4,1.73-2.07,0.51,0.01.98,0.01,1.42,0.04-0.15,3.31-.09,6.74-0.26,10.03a0.878,0.878,0,0,0-1.1,1.26c1.46,0.01,2.52-.19,3.97-0.18a0.489,0.489,0,0,0,.42-0.18,0.6,0.6,0,0,0,.05-0.29,0.735,0.735,0,0,0-.1-0.41,0.6,0.6,0,0,0-.36-0.19,4.233,4.233,0,0,0-.5.05c0.15-2.15.26-4.3,0.4-6.48,0.06-1.03.12-2.07,0.17-3.13a0.876,0.876,0,0,1,.06-0.31c0.54,0.03,1.11.03,1.76,0.03a10.379,10.379,0,0,0,.67,1.51,4.065,4.065,0,0,0,.59.18,13.479,13.479,0,0,0,.56-2.59c-3.16-.12-6.32-0.21-9.49-0.33C1390.88,1446.76,1390.66,1447.74,1390.48,1448.75Zm-229.44,50.03H1167v2.98h-9.13v-22.25h-4.85v-2.99h4.85v-9.08h3.17v9.08h5.58v2.99h-5.58v19.27Zm14.85-17.54a9.278,9.278,0,0,1,8.35-5.15,9.6,9.6,0,0,1,7.54,3.56c2.21,2.6,2.36,5.43,2.36,8.65v10.48h4.22v2.98h-11.62v-2.98h4.23v-9.18c0-2.35.14-4.76-1.11-6.83a7.252,7.252,0,0,0-6.29-3.6,7.527,7.527,0,0,0-5.72,2.5c-1.92,2.21-1.96,4.33-1.96,7.07v10.04h4.22v2.98h-11.62v-2.98h4.23v-28.36h-4.23v-2.98h7.4v13.8Zm46.49,13.46a13.388,13.388,0,1,1,1.06-5.34v0.96h-23.06a10.043,10.043,0,0,0,18.64,4.38h3.36Zm-1.92-6.97a10.274,10.274,0,0,0-10.33-8.75,10.145,10.145,0,0,0-9.75,8.75h20.08Zm14.98-6.78a9.387,9.387,0,0,1,8.46-4.86c2.83,0,7.06,1.54,8.69,4.86a14.849,14.849,0,0,1,1.4,6.58v11.25h4.22v2.98h-11.62v-2.98h4.23v-10.09c0-2.26-.05-4.43-1.21-6.4-1.34-2.35-4.17-3.07-6.58-3.07a7.9,7.9,0,0,0-5.9,2.64c-1.64,1.92-1.69,4.09-1.69,6.44v10.48h4.23v2.98h-11.62v-2.98h4.23v-19.27h-4.23v-2.99h7.39v4.43Zm47.46,13.75a13.388,13.388,0,1,1,1.06-5.34v0.96H1260.9a10.043,10.043,0,0,0,18.64,4.38h3.36Zm-1.92-6.97a10.274,10.274,0,0,0-10.33-8.75,10.145,10.145,0,0,0-9.75,8.75h20.08Zm31.89,14.03h-3.31l-5.62-17.45-6.39,17.45h-3.27l-7.63-22.25h-4.23v-2.99h11.43v2.99h-3.99l6.34,18.12,6.49-18.65h2.64l5.91,18.41,6.43-17.88h-4.08v-2.99h11.48v2.99h-4.23Zm14.46-5.48h3.7v-23.36h-3.7v-5.48h15.23c2.54,0,5.04.24,7.1,1.78a8.2,8.2,0,0,1,3.22,6.82,7.844,7.844,0,0,1-4.46,7.31,9.155,9.155,0,0,1,5.95,8.85,9.643,9.643,0,0,1-3.22,7.26c-2.3,2.02-4.94,2.3-7.87,2.3h-15.95v-5.48Zm10.23-.24h3.6c1.54,0,3.41.05,4.76-.86a4.5,4.5,0,0,0,1.92-3.75,4.688,4.688,0,0,0-1.87-3.9c-1.4-1.01-3.08-1.01-4.76-1.01h-3.65v9.52Zm0.05-14.9h3.31c1.59,0,3.08.1,4.42-.87a4.2,4.2,0,0,0-.24-6.68c-1.2-.77-2.74-0.67-4.13-0.67h-3.36v8.22Zm27.71,15.14h3.32v5.48h-12.73v-5.48h3.55v-23.36h-3.31v-5.48h9.17v28.84Zm24.26,2.02a9.475,9.475,0,0,1-8.26,4.14,13.293,13.293,0,0,1-13.16-13.37,13.561,13.561,0,0,1,13.45-13.65,9.215,9.215,0,0,1,7.97,4.33v-3.66h9.17v5.48h-3.22v14.71h3.22v5.48h-9.17v-3.46Zm0.09-9.52a7.7,7.7,0,0,0-7.73-7.64,7.8,7.8,0,0,0-7.73,7.93,7.717,7.717,0,0,0,7.63,7.65A7.828,7.828,0,0,0,1389.67,1488.78Zm13.74-7.21h-3.31v-5.48h9.17v3.66a8.309,8.309,0,0,1,7.59-4.24,10.177,10.177,0,0,1,7.4,3.18c2.11,2.35,2.16,4.61,2.16,7.55v10.04h3.31v5.48h-12.48v-5.48h3.31v-8.31a7.449,7.449,0,0,0-1.01-4.62,5.61,5.61,0,0,0-4.51-2.07,5.761,5.761,0,0,0-4.66,2.17c-1.11,1.44-1.11,3.65-1.11,5.38v7.45h3.32v5.48H1400.1v-5.48h3.31v-14.71Zm43.23-.57H1444v-4.91h12.63v5.48h-3.12l-7.06,6.83,7.49,7.88h4.04v5.48H1444v-5.48h2.16l-6.1-6.73v6.73h2.31v5.48h-11.53v-5.48h3.36v-23.36h-3.36v-5.48h9.22v20.14Z" transform="translate(-1153.03 -1444.5)"/>
</svg>
