<?xml version="1.0" encoding="utf-8"?>
<!-- Generator: Adobe Illustrator 21.0.0, SVG Export Plug-In . SVG Version: 6.00 Build 0)  -->
<svg version="1.1" id="Layer_1" xmlns="http://www.w3.org/2000/svg" xmlns:xlink="http://www.w3.org/1999/xlink" x="0px" y="0px"
	 viewBox="0 0 272.6 61.2" style="enable-background:new 0 0 272.6 61.2;" xml:space="preserve">
<style type="text/css">
	.st0{fill:#F9F697;}
	.st1{fill:#54A5B4;}
</style>
<path class="st0" d="M0,4l272.6-4v61.3L0,56.6V4z"/>
<path id="get_in_touch" class="st1" d="M44.2,30.4c-0.5,2.6,0,5.3,1.4,7.6c0.4,0.8,1,1.4,1.7,2c1.3,0.9,2.8,1.3,4.3,1
	c1.4-0.1,2.8-0.5,4-1.3c1.1-0.9,1.8-2.2,2-3.6c0.2-1.4,0.1-2.8-0.1-4.2c0.5,0,0.9,0,1.4,0c0-0.4,0.1-0.9,0.1-1.3
	c-2.3-0.2-4.6-0.4-6.9-0.7c0,0.6,0.1,1.2,0.2,1.9c0.7,0,1.4,0.2,2.1,0.2c0,1.2,0,2.4,0,3.5c0,0.9-0.1,1.7-0.3,2.5
	c-0.3,0.8-0.9,1.5-1.7,1.7c-0.9,0.1-1.8-0.3-2.3-1.1c-0.5-0.7-0.8-1.6-0.9-2.4c-0.6-3.4-0.5-6.9,0.3-10.2c0.1-0.8,0.5-1.5,0.9-2.1
	c0.7-0.9,1.9-1.4,3-1.1c1.1,0.2,1.2,0.5,1.6,1.6c0.2,0.6,0,1.3-0.5,1.7c-0.2,0.1-0.5,0.2-0.7,0.3c-0.3,0-0.6,0.2-0.8,0.4
	c-0.2,0.2-0.1,0.6,0.1,0.8c1.3,0.1,2.5,0.1,3.8-0.2c0.5,0,1-0.3,1.2-0.8c0-0.4-0.3-0.8-0.7-0.9c-0.4-0.1-0.8-0.1-1.1,0
	c0.4-1,0.7-4.3-2-4.5c-2.1-0.2-4.3,0.4-6,1.7C46.1,24.5,44.6,27.7,44.2,30.4z M63.4,22.5C63.2,28,63.3,33.7,63,39.1
	c-0.5-0.3-1.2-0.1-1.6,0.3c-0.4,0.5-0.5,1.1-0.1,1.7c2.3,0,4-0.3,6.3-0.3c2.5,0,4.1-0.2,6.6-0.2c-0.1-1.5,0.9-5.5-1-5.3
	c-1.9,0.2-0.6,2.2-1.4,2.8c-1.7,1.2-3,1.6-5,1.1c0.1-2.5,0.3-5,0.4-7.5c1.2-0.1,2.4-0.3,3.6-0.6c0.3-0.1,0.7-0.2,0.9-0.4
	c0.3-0.5,0.5-1.2,0.3-1.8c-1.6,0.4-3.2,0.7-4.8,1.1c0-0.4,0-0.8,0.1-1.2c0.1-1.7,0.2-3.3,0.3-5c0-0.3,0.1-0.6,0.2-0.8
	c0.5-0.5,1.2-0.7,1.9-0.7c0.6-0.1,1.2,0,1.7,0.3c0.8,0.7,1.2,1.8,0.8,2.9c-0.2,0.3,0.9,0.2,1.7,0.3c0.1-1.6,0.1-3.1,0.2-4.7
	c-2.3,0-4.7,0.1-7.1,0.1c-2.3,0.1-3.6,0.2-5.9,0.2c0,0.4,0,0.7,0,1.1C61.9,22.5,62.7,22.5,63.4,22.5z M76.7,26.3
	c0.3,0.1,0.7,0.1,0.9,0.1c0.9-1.1,1.8-2.2,2.7-3.3c0.8,0,1.6,0,2.3,0.1c-0.2,5.3-0.1,10.8-0.4,16c-0.7-0.3-1.5,0-1.8,0.7
	c-0.2,0.4-0.1,0.9,0.1,1.3c2.3,0,4-0.3,6.3-0.3c0.3,0,0.5-0.1,0.7-0.3c0.1-0.1,0.1-0.3,0.1-0.4c0-0.2,0-0.5-0.2-0.7
	c-0.1-0.2-0.4-0.3-0.6-0.3c-0.3,0-0.5,0-0.8,0.1c0.2-3.4,0.4-6.9,0.6-10.3c0.1-1.7,0.2-3.3,0.3-5c0-0.2,0-0.3,0.1-0.5
	c0.9,0,1.8,0.1,2.8,0.1c0.3,0.8,0.6,1.6,1.1,2.4c0.3,0.1,0.6,0.2,0.9,0.3c0.4-1.3,0.7-2.7,0.9-4.1c-5-0.2-10.1-0.3-15.1-0.5
	C77.3,23.1,77,24.7,76.7,26.3z M106.6,21.4c0.1,0.6,0.1,1.2,0.2,1.8c0.4-0.3,1.1-0.2,1.4,0.2c0,0,0,0.1,0.1,0.1
	c0.2,0.5,0.3,1.1,0.2,1.7c-0.3,3.8-0.4,13.5-0.7,14c-0.3,0.5-1,0.6-1.4,0.3c-0.3,0.5-0.2,1.1,0.1,1.5c0.3,0.2,0.6,0.2,0.9,0.2
	c2.4-0.2,3.9,0.3,6.3,0.2c0-0.2,0-1.2,0-1.4c-0.6,0-1.2,0-1.8,0c0.3-5.1,0.3-11.6,0.7-16.8c0.4,0.1,1.5,0.8,1.8,0.4
	c0.1-0.6,0.1-1.2-0.1-1.7C111.6,21.7,109.3,21.6,106.6,21.4L106.6,21.4z M128.9,23.1c0.3,0,0,5.3,0,7.1c-0.1,3.1,0,4.8,0.2,7.2
	c-1.2-2.5-2.2-5.1-2.8-7.8c-0.7-2.1-1.2-4.3-1.5-6.4c0.5,0,1.4,0,1.9-0.1c-0.1-0.4-0.6-0.9-0.7-1.4c-3.1,0.1-5.4,0.1-8.5,0.2
	c0,0.7,0.1,1.4,0.1,2c0.4,0,0.7-0.1,1-0.2c-0.2,3-0.2,5.8-0.2,9.2c0,1.9,0.2,7.2,0,7.2c-0.6-0.2-1.3,0.2-1.5,0.8c0,0.1,0,0.2,0,0.3
	c1.5,0,4.5-0.1,6-0.2c-0.1-0.4-0.3-1.1-0.4-1.4c-0.6,0.4-1.5,0.2-1.8-0.4c-0.3-0.5-0.5-1.1-0.4-1.7c-0.2-3.6-0.2-7.2,0.1-10.8
	c0-0.7,0.1-1.4,0.2-2c0.6,1.4,1.1,2.8,1.5,4.3c0.9,3.7,1.9,5.1,3,8.7c0.1,0.5,1.4,2.2,0.9,3.8c1.9-0.1,3.9-0.1,5.8,0
	c0-0.7-0.1-1.4-0.1-2.1c-0.1,0-0.3,0-0.4,0c-0.3-1-0.4-2-0.4-3c-0.2-3.6-0.2-7.2,0.1-10.7c0-0.6,0.1-1.2,0.5-1.7
	c0.4-0.6,1.2-0.8,1.8-0.4c0.1-0.4,0.3-1.1,0.4-1.4c-1.5-0.1-4.5-0.2-5.9-0.2c0,0.6,0.5,1.2,1.2,1.2
	C128.8,23.1,128.8,23.1,128.9,23.1L128.9,23.1z M146.9,26.7c0.3,0.1,0.7,0.1,0.9,0.1c0.9-1.1,1.8-2.2,2.7-3.3c0.8,0,1.6,0,2.3,0.1
	c-0.2,5.3-0.1,10.8-0.4,16c-0.6-0.2-1.2-0.1-1.6,0.4c-0.4,0.5-0.5,1.1-0.1,1.7c2.3,0,4-0.3,6.3-0.3c0.3,0,0.5-0.1,0.7-0.3
	c0.1-0.1,0.1-0.3,0.1-0.4c0-0.2,0-0.5-0.2-0.7c-0.2-0.2-0.4-0.3-0.6-0.3c-0.3,0-0.5,0-0.8,0.1c0.2-3.4,0.4-6.9,0.6-10.4
	c0.1-1.7,0.2-3.3,0.3-5c0-0.2,0-0.3,0.1-0.5c0.9,0,1.8,0.1,2.8,0.1c0.3,0.8,0.6,1.6,1.1,2.4c0.3,0.1,0.6,0.2,0.9,0.3
	c0.4-1.3,0.7-2.7,0.9-4.1c-5-0.2-10.1-0.3-15.1-0.5C147.5,23.5,147.2,25.1,146.9,26.7L146.9,26.7z M173.5,21.4
	c-2.4-0.1-4.4,0.5-5.6,1.8c-1.2,1.2-2,2.8-2.3,4.4c-0.7,2.7-0.6,5.5,0.2,8.2c0.4,1.6,1.2,3.1,2.4,4.2c1.3,1,3.5,1.8,5.1,1.2
	c1.9-0.7,3-2.8,3.9-4.6c1.1-2.2,1.5-4.7,1.4-7.1C178.5,25,175.8,21.6,173.5,21.4L173.5,21.4z M172.6,39.3c-0.8,0.1-1.7-0.3-2.1-1.1
	c-0.4-0.7-0.6-1.5-0.6-2.4c-0.2-3.4,0-6.8,0.7-10.1c0.1-0.7,0.4-1.4,0.8-2c0.4-0.6,1.1-1,1.9-1c1.2,0.1,3.5,2.4,3.5,7.3
	C176.7,34.2,174.7,38.9,172.6,39.3L172.6,39.3z M196.9,22.1c-0.2-0.1-0.5-0.2-0.8-0.2c-1.1,0-2.5,0.1-3.6,0.1
	c-0.2,0.4,0,0.9,0.3,1.2c0.4,0.3,0.9,0.8,1.3,0.5c0.2,4.2,0.1,8.4-0.4,12.5c0,0.9-0.3,1.7-0.6,2.5c-0.3,0.8-1.1,1.4-1.9,1.5
	c-4.4,0.3-4-3.8-3.9-11.5c0.1-1.9,0.3-3.7,0.5-5.6c0.6,0,1.2,0.1,1.8,0.1c0-0.4,0-0.9,0-1.3c-2.8,0.4-5.7,0.4-8.5,0.2
	c0,0.6,0,1.2-0.1,1.8c0.6-0.1,1.2-0.2,1.8-0.4c-0.3,3.9-0.4,7.7-0.2,11.6c0,1.1,0.2,2.1,0.5,3.1c0.3,1,1,1.9,1.8,2.5
	c1,0.5,2.2,0.8,3.3,0.8c0.9,0.1,1.9,0.1,2.8,0c0.9-0.1,1.8-0.5,2.6-1.1c1.3-1.4,2.1-3.2,2.1-5c0.1-4.1,0-7.7,0.1-11.8
	c0.4-0.1,0.4-0.2,0.8-0.2C197,23,197.1,22.5,196.9,22.1L196.9,22.1z M214,35.1c0-0.2,0.1-0.4,0.2-0.7c-1.5,0-3,0-4.4,0
	c-0.2,0.2-0.1,0.5,0.1,0.7c0,0,0,0,0.1,0c0.2,0.1,0.5,0.1,0.8,0.1v0.6c0,0.4,0,0.8-0.1,1.1c-0.3,1.7-1.2,3.3-2.7,3.5
	c-0.9,0.1-1.8-0.3-2.3-1c-0.5-0.7-0.8-1.6-0.9-2.4c-0.6-3.4-0.5-6.9,0.3-10.2c0.2-0.8,1.2-3.6,2.3-3.7c0.5-0.1,1,0.2,1.2,0.6
	c0.4,0.5,0.6,1,0.6,1.6c0.1,0.6,0,1.1-0.3,1.6c-0.2,0-0.4,0.1-0.6,0.1c-0.1,0.3,0.1,0.6,0.3,0.7c0.3,0.1,0.6,0.1,0.8,0
	c1.1-0.2,2.2-0.5,3.2-0.7c0-0.2,0.1-0.5,0.1-0.7c-0.3,0-0.5,0.1-0.8,0.1c-0.2-1.5-1-3-2.2-4c-0.5-0.4-1.2-0.7-1.9-0.6
	c-4,0-7.2,4.2-8,9.5c-0.4,2.6,0.1,5.3,1.4,7.6c0.5,0.7,1.1,1.4,1.8,2c1.2,0.9,2.8,1.2,4.3,1c1.7-0.1,3.4-0.9,4.6-2.1
	c1.1-1.2,1.7-2.9,1.6-4.5C213.4,35.1,213.7,35.1,214,35.1L214,35.1z M217.3,39.8c-0.3,0.5-1,0.6-1.4,0.3c-0.3,0.5-0.2,1.1,0.1,1.5
	c0.3,0.2,0.6,0.2,0.9,0.2c2.4-0.2,3.9,0.3,6.3,0.2c0-0.2,0-1.2,0-1.4c-0.6,0-1.2,0-1.8,0c0.1-2.4,0.2-5.1,0.3-7.8c0.1,0,0.1,0,0.2,0
	c1.8-0.1,3.5-0.4,5.2-0.6c0.2,0,0.5-0.1,0.7-0.2c-0.1,2.9-0.2,5.7-0.2,8.4c-0.6-0.1-0.6-0.1-1.2-0.1c-0.3,0.4-0.2,0.9,0.2,1.2
	c0,0,0,0,0.1,0c0.3,0.2,0.7,0.4,1.1,0.3c1.2,0,3,0,4.2,0c0-0.5,0-0.9-0.1-1.4c-0.5,0.2-1,0.1-1.4-0.1c-0.3-0.3,0.2-12.1,0.5-16.2
	c0.6,0,1.3,0.1,1.9,0.1c0-0.6,0-1.2,0-1.8c-1.7,0-3.9,0-5.5,0c-0.1,0.7-0.1,1.3-0.2,1.9c0.3-0.1,0.7-0.2,1-0.2c0,2-0.1,4.1-0.2,6.1
	c-1.9,0.4-3.8,0.7-5.6,1c-0.2,0-0.3,0.1-0.5,0.2c0.1-2.6,0.2-5.2,0.3-7.5c0.4,0.1,1.5,0.8,1.8,0.4c0.1-0.6,0.1-1.2-0.1-1.7
	c-2.6-0.1-4.9-0.2-7.6-0.3c0.1,0.6,0.1,1.2,0.2,1.8c0.4-0.3,1.1-0.2,1.4,0.2c0,0,0.1,0.1,0.1,0.1c0.2,0.5,0.3,1.1,0.2,1.7
	C217.7,29.7,217.6,39.3,217.3,39.8L217.3,39.8z"/>
</svg>
