<svg xmlns="http://www.w3.org/2000/svg" width="87" height="85" viewBox="0 0 87 85">
  <metadata><?xpacket begin="﻿" id="W5M0MpCehiHzreSzNTczkc9d"?>
<x:xmpmeta xmlns:x="adobe:ns:meta/" x:xmptk="Adobe XMP Core 5.6-c138 79.159824, 2016/09/14-01:09:01        ">
   <rdf:RDF xmlns:rdf="http://www.w3.org/1999/02/22-rdf-syntax-ns#">
      <rdf:Description rdf:about=""/>
   </rdf:RDF>
</x:xmpmeta>
                                                                                                    
                                                                                                    
                                                                                                    
                                                                                                    
                                                                                                    
                                                                                                    
                                                                                                    
                                                                                                    
                                                                                                    
                                                                                                    
                                                                                                    
                                                                                                    
                                                                                                    
                                                                                                    
                                                                                                    
                                                                                                    
                                                                                                    
                                                                                                    
                                                                                                    
                                                                                                    
                           
<?xpacket end="w"?></metadata>
<defs>
    <style>
      .cls-1 {
        fill: #fff;
        fill-rule: evenodd;
      }
    </style>
  </defs>
  <path id="Blank_logo" data-name="Blank logo" class="cls-1" d="M1327.82,1758.99v-6.38h2.24c0.06-.11.12-0.22,0.19-0.33-2.42-2.55-4.83-5.09-7.45-7.86v8.07h2.68v6.49h-14.27v-6.4h4.04v-28.26c-1.07,0-2.1.06-3.12-.03a1.278,1.278,0,0,1-.96-0.67c-0.08-1.89-.04-3.78-0.04-5.75h11.54v24.26c2.9-2.77,5.48-5.24,8.34-7.98-1.23-.06-2.13-0.1-3.13-0.15v-5.69h15.63v6.28a1.654,1.654,0,0,1-.56.13c-2.51-.45-4.27.7-5.94,2.45-1.93,2.02-4.08,3.83-6.28,5.87,1.81,1.81,3.56,3.54,5.3,5.28,0.23,0.24.49,0.45,0.7,0.71,1.99,2.59,4.38,4.25,7.84,3.52a2.187,2.187,0,0,1,.63.11v6.33h-17.38Zm-46.98-47.92v4.12H1270v-6.42h3.77v-28.29h-3.76V1674h10.77v14.41a1.311,1.311,0,0,0,.48-0.14c3.83-4.61,8.71-5.24,14.06-3.54,6.93,2.2,11.2,8.73,10.84,16.32a15.532,15.532,0,0,1-12.24,14.34,12.369,12.369,0,0,1-12.3-3.84c-0.16-.18-0.34-0.33-0.51-0.49A0.816,0.816,0,0,0,1280.84,1711.07Zm9.16-20.77a9.393,9.393,0,0,0-9.46,9.23,9.393,9.393,0,1,0,18.78.29A9.43,9.43,0,0,0,1290,1690.3Zm56.05-2.07v-3.72H1357v6.4h-3.73v17.73h3.71v6.51h-10.86v-3.99a11.928,11.928,0,0,1-6.23,4.41c-8.17,2.26-16.79-3.01-19.02-11.63a16.348,16.348,0,0,1,15.9-20.37,10.8,10.8,0,0,1,8.36,3.94c0.22,0.25.44,0.5,0.66,0.74A0.649,0.649,0,0,0,1346.05,1688.23Zm-9.2,21.03a9.552,9.552,0,0,0,9.39-9.68,9.35,9.35,0,0,0-9.36-9.19A9.436,9.436,0,0,0,1336.85,1709.26Zm-66.81,25.54v-6.52h11.28v4.09a8.48,8.48,0,0,0,.87-0.82c4.49-6.07,15.65-5.14,19.52,1.7a11.414,11.414,0,0,1,1.25,5.04c0.17,4.66.06,9.33,0.06,14.15h4.13v6.55h-15.44v-6.42h3.88c0-4.46.25-8.75-.08-13-0.29-3.67-4.28-5.84-8.36-5.03-3.29.65-5.32,2.62-5.51,5.98-0.21,3.93-.05,7.88-0.05,11.98h3.95v6.47h-15.49v-6.4h3.93V1734.8h-3.94Zm39.76-54.35h-3.78V1674h10.84v34.7h3.97v6.49h-15.11v-6.42h4.08v-28.32Zm46.98,70.68V1759h-7.37v-7.87h7.37Z" transform="translate(-1270 -1674)"/>
</svg>
